Tajawal-ExtraLight.ufo
<glyph name="exclam" format="1">
 <advance width="174" />
 <unicode hex="0021" />
 <outline>
  <contour>
   <point x="73" y="131" type="line" smooth="no" name="13" />
   <point x="100" y="131" type="line" smooth="no" name="13" />
   <point x="100" y="633" type="line" smooth="no" name="13" />
   <point x="73" y="633" type="line" smooth="no" name="13" />
  </contour>
  <contour>
   <point x="87" y="-1" type="curve" smooth="yes" name="15" />
   <point x="101" y="-1" type="offcurve" name="14" />
   <point x="108" y="4" type="offcurve" name="14" />
   <point x="108" y="22" type="curve" smooth="yes" name="15" />
   <point x="108" y="39" type="offcurve" name="14" />
   <point x="101" y="44" type="offcurve" name="14" />
   <point x="87" y="44" type="curve" smooth="yes" name="15" />
   <point x="73" y="44" type="offcurve" name="14" />
   <point x="66" y="38" type="offcurve" name="14" />
   <point x="66" y="21" type="curve" smooth="yes" name="15" />
   <point x="66" y="3" type="offcurve" name="14" />
   <point x="74" y="-1" type="offcurve" name="14" />
  </contour>
 </outline>
</glyph>
<glyph name="quotedbl" format="1">
 <advance width="222" />
 <unicode hex="0022" />
 <outline>
  <contour>
   <point x="70" y="519" type="line" smooth="no" name="13" />
   <point x="94" y="532" type="line" smooth="no" name="13" />
   <point x="94" y="645" type="line" smooth="no" name="13" />
   <point x="70" y="632" type="line" smooth="no" name="13" />
  </contour>
  <contour>
   <point x="129" y="519" type="line" smooth="no" name="13" />
   <point x="152" y="532" type="line" smooth="no" name="13" />
   <point x="152" y="645" type="line" smooth="no" name="13" />
   <point x="129" y="632" type="line" smooth="no" name="13" />
  </contour>
 </outline>
</glyph>
<glyph name="numbersign" format="1">
 <advance width="497" />
 <unicode hex="0023" />
 <outline>
  <contour>
   <point x="344" y="158" type="line" smooth="no" name="13" />
   <point x="447" y="158" type="line" smooth="no" name="13" />
   <point x="447" y="180" type="line" smooth="no" name="13" />
   <point x="350" y="180" type="line" smooth="no" name="13" />
   <point x="400" y="432" type="line" smooth="no" name="13" />
   <point x="482" y="432" type="line" smooth="no" name="13" />
   <point x="482" y="454" type="line" smooth="no" name="13" />
   <point x="404" y="454" type="line" smooth="no" name="13" />
   <point x="436" y="609" type="line" smooth="no" name="13" />
   <point x="408" y="609" type="line" smooth="no" name="13" />
   <point x="377" y="454" type="line" smooth="no" name="13" />
   <point x="188" y="454" type="line" smooth="no" name="13" />
   <point x="219" y="609" type="line" smooth="no" name="13" />
   <point x="192" y="609" type="line" smooth="no" name="13" />
   <point x="160" y="454" type="line" smooth="no" name="13" />
   <point x="51" y="454" type="line" smooth="no" name="13" />
   <point x="51" y="432" type="line" smooth="no" name="13" />
   <point x="156" y="432" type="line" smooth="no" name="13" />
   <point x="106" y="180" type="line" smooth="no" name="13" />
   <point x="15" y="180" type="line" smooth="no" name="13" />
   <point x="15" y="158" type="line" smooth="no" name="13" />
   <point x="101" y="158" type="line" smooth="no" name="13" />
   <point x="68" y="0" type="line" smooth="no" name="13" />
   <point x="96" y="0" type="line" smooth="no" name="13" />
   <point x="128" y="158" type="line" smooth="no" name="13" />
   <point x="316" y="158" type="line" smooth="no" name="13" />
   <point x="285" y="0" type="line" smooth="no" name="13" />
   <point x="312" y="0" type="line" smooth="no" name="13" />
  </contour>
  <contour>
   <point x="184" y="432" type="line" smooth="no" name="13" />
   <point x="373" y="432" type="line" smooth="no" name="13" />
   <point x="323" y="180" type="line" smooth="no" name="13" />
   <point x="133" y="180" type="line" smooth="no" name="13" />
  </contour>
 </outline>
</glyph>
<glyph name="dollar" format="1">
 <advance width="493" />
 <unicode hex="0024" />
 <outline>
  <contour>
   <point x="244" y="644" type="line" smooth="no" name="13" />
   <point x="202" y="644" type="offcurve" name="14" />
   <point x="164" y="638" type="offcurve" name="14" />
   <point x="127" y="615" type="curve" smooth="yes" name="15" />
   <point x="84" y="587" type="offcurve" name="14" />
   <point x="59" y="545" type="offcurve" name="14" />
   <point x="58" y="493" type="curve" smooth="yes" name="15" />
   <point x="60" y="453" type="offcurve" name="14" />
   <point x="69" y="421" type="offcurve" name="14" />
   <point x="101" y="395" type="curve" smooth="yes" name="15" />
   <point x="136" y="366" type="offcurve" name="14" />
   <point x="181" y="351" type="offcurve" name="14" />
   <point x="223" y="336" type="curve" smooth="yes" name="15" />
   <point x="230" y="333" type="offcurve" name="14" />
   <point x="237" y="331" type="offcurve" name="14" />
   <point x="244" y="328" type="curve" smooth="no" name="13" />
   <point x="244" y="16" type="line" smooth="no" name="13" />
   <point x="239" y="16" type="offcurve" name="14" />
   <point x="234" y="15" type="offcurve" name="14" />
   <point x="229" y="15" type="curve" smooth="yes" name="15" />
   <point x="177" y="15" type="offcurve" name="14" />
   <point x="123" y="41" type="offcurve" name="14" />
   <point x="76" y="63" type="curve" smooth="no" name="13" />
   <point x="62" y="44" type="line" smooth="no" name="13" />
   <point x="116" y="11" type="offcurve" name="14" />
   <point x="174" y="-11" type="offcurve" name="14" />
   <point x="237" y="-11" type="curve" smooth="yes" name="15" />
   <point x="239" y="-11" type="offcurve" name="14" />
   <point x="242" y="-11" type="offcurve" name="14" />
   <point x="244" y="-11" type="curve" smooth="no" name="13" />
   <point x="244" y="-74" type="line" smooth="no" name="13" />
   <point x="271" y="-74" type="line" smooth="no" name="13" />
   <point x="271" y="-9" type="line" smooth="no" name="13" />
   <point x="310" y="0" type="offcurve" name="14" />
   <point x="348" y="15" type="offcurve" name="14" />
   <point x="379" y="43" type="curve" smooth="yes" name="15" />
   <point x="413" y="75" type="offcurve" name="14" />
   <point x="428" y="123" type="offcurve" name="14" />
   <point x="428" y="169" type="curve" smooth="yes" name="15" />
   <point x="428" y="268" type="offcurve" name="14" />
   <point x="352" y="312" type="offcurve" name="14" />
   <point x="271" y="347" type="curve" smooth="no" name="13" />
   <point x="271" y="616" type="line" smooth="no" name="13" />
   <point x="311" y="615" type="offcurve" name="14" />
   <point x="348" y="597" type="offcurve" name="14" />
   <point x="383" y="580" type="curve" smooth="no" name="13" />
   <point x="399" y="601" type="line" smooth="no" name="13" />
   <point x="359" y="623" type="offcurve" name="14" />
   <point x="317" y="640" type="offcurve" name="14" />
   <point x="271" y="643" type="curve" smooth="no" name="13" />
   <point x="271" y="700" type="line" smooth="no" name="13" />
   <point x="244" y="700" type="line" smooth="no" name="13" />
  </contour>
  <contour>
   <point x="244" y="617" type="curve" smooth="no" name="13" />
   <point x="244" y="355" type="line" smooth="no" name="13" />
   <point x="157" y="388" type="offcurve" name="14" />
   <point x="85" y="406" type="offcurve" name="14" />
   <point x="85" y="491" type="curve" smooth="yes" name="15" />
   <point x="85" y="531" type="offcurve" name="14" />
   <point x="104" y="566" type="offcurve" name="14" />
   <point x="138" y="588" type="curve" smooth="yes" name="15" />
   <point x="170" y="609" type="offcurve" name="14" />
   <point x="206" y="616" type="offcurve" name="14" />
  </contour>
  <contour>
   <point x="271" y="19" type="curve" smooth="no" name="13" />
   <point x="271" y="318" type="line" smooth="no" name="13" />
   <point x="271" y="318" type="line" smooth="no" name="13" />
   <point x="357" y="288" type="offcurve" name="14" />
   <point x="401" y="237" type="offcurve" name="14" />
   <point x="401" y="166" type="curve" smooth="yes" name="15" />
   <point x="401" y="161" type="offcurve" name="14" />
   <point x="401" y="157" type="offcurve" name="14" />
   <point x="401" y="152" type="curve" smooth="no" name="13" />
   <point x="392" y="77" type="offcurve" name="14" />
   <point x="345" y="29" type="offcurve" name="14" />
  </contour>
 </outline>
</glyph>
<glyph name="percent" format="1">
 <advance width="666" />
 <unicode hex="0025" />
 <outline>
  <contour>
   <point x="173" y="0" type="line" smooth="no" name="13" />
   <point x="205" y="0" type="line" smooth="no" name="13" />
   <point x="499" y="565" type="line" smooth="no" name="13" />
   <point x="466" y="565" type="line" smooth="no" name="13" />
  </contour>
  <contour>
   <point x="616" y="156" type="curve" smooth="yes" name="15" />
   <point x="616" y="223" type="offcurve" name="14" />
   <point x="584" y="297" type="offcurve" name="14" />
   <point x="509" y="297" type="curve" smooth="yes" name="15" />
   <point x="426" y="297" type="offcurve" name="14" />
   <point x="398" y="223" type="offcurve" name="14" />
   <point x="398" y="155" type="curve" smooth="yes" name="15" />
   <point x="398" y="77" type="offcurve" name="14" />
   <point x="429" y="6" type="offcurve" name="14" />
   <point x="509" y="6" type="curve" smooth="yes" name="15" />
   <point x="586" y="6" type="offcurve" name="14" />
   <point x="616" y="83" type="offcurve" name="14" />
  </contour>
  <contour>
   <point x="425" y="153" type="curve" smooth="yes" name="15" />
   <point x="425" y="153" type="offcurve" name="14" />
   <point x="425" y="154" type="offcurve" name="14" />
   <point x="425" y="154" type="curve" smooth="yes" name="15" />
   <point x="425" y="225" type="offcurve" name="14" />
   <point x="459" y="275" type="offcurve" name="14" />
   <point x="507" y="275" type="curve" smooth="yes" name="15" />
   <point x="554" y="275" type="offcurve" name="14" />
   <point x="588" y="225" type="offcurve" name="14" />
   <point x="589" y="154" type="curve" smooth="yes" name="15" />
   <point x="589" y="153" type="offcurve" name="14" />
   <point x="589" y="153" type="offcurve" name="14" />
   <point x="589" y="152" type="curve" smooth="yes" name="15" />
   <point x="589" y="80" type="offcurve" name="14" />
   <point x="555" y="28" type="offcurve" name="14" />
   <point x="507" y="28" type="curve" smooth="yes" name="15" />
   <point x="459" y="28" type="offcurve" name="14" />
   <point x="425" y="80" type="offcurve" name="14" />
  </contour>
  <contour>
   <point x="268" y="412" type="curve" smooth="yes" name="15" />
   <point x="268" y="479" type="offcurve" name="14" />
   <point x="236" y="553" type="offcurve" name="14" />
   <point x="161" y="553" type="curve" smooth="yes" name="15" />
   <point x="78" y="553" type="offcurve" name="14" />
   <point x="50" y="479" type="offcurve" name="14" />
   <point x="50" y="411" type="curve" smooth="yes" name="15" />
   <point x="50" y="333" type="offcurve" name="14" />
   <point x="81" y="262" type="offcurve" name="14" />
   <point x="161" y="262" type="curve" smooth="yes" name="15" />
   <point x="238" y="262" type="offcurve" name="14" />
   <point x="268" y="339" type="offcurve" name="14" />
  </contour>
  <contour>
   <point x="77" y="409" type="curve" smooth="no" name="13" />
   <point x="77" y="409" type="offcurve" name="14" />
   <point x="77" y="409" type="offcurve" name="14" />
   <point x="77" y="410" type="curve" smooth="yes" name="15" />
   <point x="77" y="481" type="offcurve" name="14" />
   <point x="111" y="531" type="offcurve" name="14" />
   <point x="159" y="531" type="curve" smooth="yes" name="15" />
   <point x="206" y="530" type="offcurve" name="14" />
   <point x="240" y="480" type="offcurve" name="14" />
   <point x="241" y="410" type="curve" smooth="yes" name="15" />
   <point x="241" y="409" type="offcurve" name="14" />
   <point x="241" y="408" type="offcurve" name="14" />
   <point x="241" y="408" type="curve" smooth="yes" name="15" />
   <point x="241" y="336" type="offcurve" name="14" />
   <point x="207" y="284" type="offcurve" name="14" />
   <point x="159" y="284" type="curve" smooth="yes" name="15" />
   <point x="111" y="284" type="offcurve" name="14" />
   <point x="77" y="335" type="offcurve" name="14" />
  </contour>
 </outline>
</glyph>
<glyph name="ampersand" format="1">
 <advance width="572" />
 <unicode hex="0026" />
 <outline>
  <contour>
   <point x="449" y="329" type="line" smooth="no" name="13" />
   <point x="449" y="274" type="line" smooth="yes" name="15" />
   <point x="449" y="196" type="offcurve" name="14" />
   <point x="445" y="163" type="offcurve" name="14" />
   <point x="431" y="111" type="curve" smooth="no" name="13" />
   <point x="218" y="357" type="line" smooth="yes" name="15" />
   <point x="199" y="379" type="offcurve" name="14" />
   <point x="177" y="405" type="offcurve" name="14" />
   <point x="162" y="429" type="curve" smooth="yes" name="15" />
   <point x="148" y="452" type="offcurve" name="14" />
   <point x="139" y="481" type="offcurve" name="14" />
   <point x="138" y="523" type="curve" smooth="yes" name="15" />
   <point x="138" y="578" type="offcurve" name="14" />
   <point x="180" y="621" type="offcurve" name="14" />
   <point x="242" y="624" type="curve" smooth="yes" name="15" />
   <point x="245" y="624" type="offcurve" name="14" />
   <point x="249" y="624" type="offcurve" name="14" />
   <point x="252" y="624" type="curve" smooth="yes" name="15" />
   <point x="286" y="624" type="offcurve" name="14" />
   <point x="310" y="614" type="offcurve" name="14" />
   <point x="355" y="590" type="curve" smooth="no" name="13" />
   <point x="366" y="610" type="line" smooth="no" name="13" />
   <point x="316" y="636" type="offcurve" name="14" />
   <point x="286" y="646" type="offcurve" name="14" />
   <point x="247" y="646" type="curve" smooth="yes" name="15" />
   <point x="245" y="646" type="offcurve" name="14" />
   <point x="244" y="646" type="offcurve" name="14" />
   <point x="243" y="646" type="curve" smooth="yes" name="15" />
   <point x="164" y="644" type="offcurve" name="14" />
   <point x="113" y="593" type="offcurve" name="14" />
   <point x="111" y="513" type="curve" smooth="yes" name="15" />
   <point x="111" y="512" type="offcurve" name="14" />
   <point x="111" y="510" type="offcurve" name="14" />
   <point x="111" y="508" type="curve" smooth="yes" name="15" />
   <point x="111" y="458" type="offcurve" name="14" />
   <point x="124" y="432" type="offcurve" name="14" />
   <point x="176" y="364" type="curve" smooth="yes" name="15" />
   <point x="190" y="346" type="line" smooth="no" name="13" />
   <point x="106" y="284" type="offcurve" name="14" />
   <point x="78" y="241" type="offcurve" name="14" />
   <point x="78" y="173" type="curve" smooth="yes" name="15" />
   <point x="78" y="171" type="offcurve" name="14" />
   <point x="78" y="169" type="offcurve" name="14" />
   <point x="78" y="167" type="curve" smooth="yes" name="15" />
   <point x="81" y="63" type="offcurve" name="14" />
   <point x="161" y="-11" type="offcurve" name="14" />
   <point x="275" y="-12" type="curve" smooth="yes" name="15" />
   <point x="276" y="-12" type="offcurve" name="14" />
   <point x="278" y="-12" type="offcurve" name="14" />
   <point x="279" y="-12" type="curve" smooth="yes" name="15" />
   <point x="352" y="-12" type="offcurve" name="14" />
   <point x="396" y="11" type="offcurve" name="14" />
   <point x="436" y="69" type="curve" smooth="no" name="13" />
   <point x="491" y="0" type="line" smooth="no" name="13" />
   <point x="521" y="0" type="line" smooth="no" name="13" />
   <point x="451" y="95" type="line" smooth="no" name="13" />
   <point x="473" y="172" type="offcurve" name="14" />
   <point x="476" y="205" type="offcurve" name="14" />
   <point x="476" y="292" type="curve" smooth="yes" name="15" />
   <point x="476" y="329" type="line" smooth="no" name="13" />
  </contour>
  <contour>
   <point x="208" y="331" type="curve" smooth="no" name="13" />
   <point x="420" y="86" type="line" smooth="no" name="13" />
   <point x="371" y="21" type="offcurve" name="14" />
   <point x="339" y="12" type="offcurve" name="14" />
   <point x="282" y="10" type="curve" smooth="yes" name="15" />
   <point x="280" y="10" type="offcurve" name="14" />
   <point x="278" y="10" type="offcurve" name="14" />
   <point x="276" y="10" type="curve" smooth="yes" name="15" />
   <point x="179" y="10" type="offcurve" name="14" />
   <point x="105" y="79" type="offcurve" name="14" />
   <point x="105" y="170" type="curve" smooth="yes" name="15" />
   <point x="105" y="171" type="offcurve" name="14" />
   <point x="105" y="172" type="offcurve" name="14" />
   <point x="105" y="172" type="curve" smooth="yes" name="15" />
   <point x="106" y="235" type="offcurve" name="14" />
   <point x="132" y="275" type="offcurve" name="14" />
  </contour>
 </outline>
</glyph>
<glyph name="quotesingle" format="1">
 <advance width="164" />
 <unicode hex="0027" />
 <outline>
  <contour>
   <point x="70" y="519" type="line" smooth="no" name="13" />
   <point x="94" y="532" type="line" smooth="no" name="13" />
   <point x="94" y="645" type="line" smooth="no" name="13" />
   <point x="70" y="632" type="line" smooth="no" name="13" />
  </contour>
 </outline>
</glyph>
<glyph name="parenleft" format="1">
 <advance width="368" />
 <unicode hex="0028" />
 <outline>
  <contour>
   <point x="229" y="645" type="line" smooth="no" name="13" />
   <point x="122" y="488" type="offcurve" name="14" />
   <point x="91" y="400" type="offcurve" name="14" />
   <point x="91" y="250" type="curve" smooth="yes" name="15" />
   <point x="91" y="101" type="offcurve" name="14" />
   <point x="122" y="15" type="offcurve" name="14" />
   <point x="229" y="-142" type="curve" smooth="no" name="13" />
   <point x="250" y="-142" type="line" smooth="no" name="13" />
   <point x="144" y="31" type="offcurve" name="14" />
   <point x="118" y="108" type="offcurve" name="14" />
   <point x="118" y="250" type="curve" smooth="yes" name="15" />
   <point x="118" y="395" type="offcurve" name="14" />
   <point x="145" y="475" type="offcurve" name="14" />
   <point x="250" y="645" type="curve" smooth="no" name="13" />
  </contour>
 </outline>
</glyph>
<glyph name="parenright" format="1">
 <advance width="368" />
 <unicode hex="0029" />
 <outline>
  <contour>
   <point x="112" y="645" type="line" smooth="no" name="13" />
   <point x="211" y="490" type="offcurve" name="14" />
   <point x="243" y="394" type="offcurve" name="14" />
   <point x="243" y="250" type="curve" smooth="yes" name="15" />
   <point x="243" y="109" type="offcurve" name="14" />
   <point x="212" y="18" type="offcurve" name="14" />
   <point x="112" y="-142" type="curve" smooth="no" name="13" />
   <point x="131" y="-142" type="line" smooth="no" name="13" />
   <point x="230" y="-8" type="offcurve" name="14" />
   <point x="269" y="102" type="offcurve" name="14" />
   <point x="270" y="250" type="curve" smooth="yes" name="15" />
   <point x="270" y="250" type="offcurve" name="14" />
   <point x="270" y="251" type="offcurve" name="14" />
   <point x="270" y="252" type="curve" smooth="yes" name="15" />
   <point x="270" y="398" type="offcurve" name="14" />
   <point x="229" y="514" type="offcurve" name="14" />
   <point x="131" y="645" type="curve" smooth="no" name="13" />
  </contour>
 </outline>
</glyph>
<glyph name="asterisk" format="1">
 <advance width="339" />
 <unicode hex="002a" />
 <outline>
  <contour>
   <point x="181" y="643" type="line" smooth="no" name="13" />
   <point x="165" y="509" type="line" smooth="no" name="13" />
   <point x="62" y="594" type="line" smooth="no" name="13" />
   <point x="37" y="557" type="line" smooth="no" name="13" />
   <point x="157" y="502" type="line" smooth="no" name="13" />
   <point x="46" y="433" type="line" smooth="no" name="13" />
   <point x="74" y="399" type="line" smooth="no" name="13" />
   <point x="164" y="494" type="line" smooth="no" name="13" />
   <point x="197" y="371" type="line" smooth="no" name="13" />
   <point x="236" y="383" type="line" smooth="no" name="13" />
   <point x="174" y="497" type="line" smooth="no" name="13" />
   <point x="302" y="493" type="line" smooth="no" name="13" />
   <point x="299" y="533" type="line" smooth="no" name="13" />
   <point x="173" y="508" type="line" smooth="no" name="13" />
   <point x="223" y="629" type="line" smooth="no" name="13" />
  </contour>
 </outline>
</glyph>
<glyph name="plus" format="1">
 <advance width="516" />
 <unicode hex="002b" />
 <outline>
  <contour>
   <point x="245" y="216" type="line" smooth="no" name="13" />
   <point x="245" y="0" type="line" smooth="no" name="13" />
   <point x="272" y="0" type="line" smooth="no" name="13" />
   <point x="272" y="216" type="line" smooth="no" name="13" />
   <point x="474" y="216" type="line" smooth="no" name="13" />
   <point x="474" y="238" type="line" smooth="no" name="13" />
   <point x="272" y="238" type="line" smooth="no" name="13" />
   <point x="272" y="454" type="line" smooth="no" name="13" />
   <point x="245" y="454" type="line" smooth="no" name="13" />
   <point x="245" y="238" type="line" smooth="no" name="13" />
   <point x="42" y="238" type="line" smooth="no" name="13" />
   <point x="42" y="216" type="line" smooth="no" name="13" />
  </contour>
 </outline>
</glyph>
<glyph name="comma" format="1">
 <advance width="182" />
 <unicode hex="002c" />
 <outline>
  <contour>
   <point x="86" y="-75" type="line" smooth="no" name="13" />
   <point x="106" y="-53" type="offcurve" name="14" />
   <point x="115" y="-31" type="offcurve" name="14" />
   <point x="115" y="-2" type="curve" smooth="yes" name="15" />
   <point x="115" y="0" type="offcurve" name="14" />
   <point x="115" y="1" type="offcurve" name="14" />
   <point x="115" y="2" type="curve" smooth="yes" name="15" />
   <point x="114" y="30" type="offcurve" name="14" />
   <point x="103" y="45" type="offcurve" name="14" />
   <point x="82" y="45" type="curve" smooth="yes" name="15" />
   <point x="67" y="45" type="offcurve" name="14" />
   <point x="56" y="35" type="offcurve" name="14" />
   <point x="56" y="19" type="curve" smooth="yes" name="15" />
   <point x="56" y="3" type="offcurve" name="14" />
   <point x="65" y="-9" type="offcurve" name="14" />
   <point x="78" y="-9" type="curve" smooth="no" name="13" />
   <point x="86" y="-10" type="offcurve" name="14" />
   <point x="96" y="-5" type="offcurve" name="14" />
   <point x="101" y="6" type="curve" smooth="no" name="13" />
   <point x="101" y="1" type="offcurve" name="14" />
   <point x="102" y="-5" type="offcurve" name="14" />
   <point x="102" y="-10" type="curve" smooth="yes" name="15" />
   <point x="102" y="-33" type="offcurve" name="14" />
   <point x="90" y="-52" type="offcurve" name="14" />
   <point x="74" y="-66" type="curve" smooth="no" name="13" />
  </contour>
 </outline>
</glyph>
<glyph name="hyphen" format="1">
 <advance width="245" />
 <unicode hex="002d" />
 <outline>
  <contour>
   <point x="220" y="230" type="line" smooth="no" name="13" />
   <point x="220" y="252" type="line" smooth="no" name="13" />
   <point x="25" y="252" type="line" smooth="no" name="13" />
   <point x="25" y="230" type="line" smooth="no" name="13" />
  </contour>
 </outline>
</glyph>
<glyph name="period" format="1">
 <advance width="222" />
 <unicode hex="002e" />
 <outline>
  <contour>
   <point x="111" y="-5" type="curve" smooth="yes" name="15" />
   <point x="125" y="-5" type="offcurve" name="14" />
   <point x="132" y="0" type="offcurve" name="14" />
   <point x="132" y="18" type="curve" smooth="yes" name="15" />
   <point x="132" y="35" type="offcurve" name="14" />
   <point x="125" y="40" type="offcurve" name="14" />
   <point x="111" y="40" type="curve" smooth="yes" name="15" />
   <point x="97" y="40" type="offcurve" name="14" />
   <point x="90" y="34" type="offcurve" name="14" />
   <point x="90" y="17" type="curve" smooth="yes" name="15" />
   <point x="90" y="-1" type="offcurve" name="14" />
   <point x="98" y="-5" type="offcurve" name="14" />
  </contour>
 </outline>
</glyph>
<glyph name="slash" format="1">
 <advance width="327" />
 <unicode hex="002f" />
 <outline>
  <contour>
   <point x="328" y="633" type="line" smooth="no" name="13" />
   <point x="299" y="633" type="line" smooth="no" name="13" />
   <point x="-22" y="-30" type="line" smooth="no" name="13" />
   <point x="9" y="-30" type="line" smooth="no" name="13" />
  </contour>
 </outline>
</glyph>
<glyph name="zero" format="1">
 <advance width="523" />
 <unicode hex="0030" />
 <outline>
  <contour>
   <point x="477" y="315" type="curve" smooth="yes" name="15" />
   <point x="477" y="502" type="offcurve" name="14" />
   <point x="396" y="645" type="offcurve" name="14" />
   <point x="265" y="645" type="curve" smooth="yes" name="15" />
   <point x="131" y="645" type="offcurve" name="14" />
   <point x="48" y="502" type="offcurve" name="14" />
   <point x="48" y="315" type="curve" smooth="yes" name="15" />
   <point x="48" y="119" type="offcurve" name="14" />
   <point x="128" y="-12" type="offcurve" name="14" />
   <point x="265" y="-12" type="curve" smooth="yes" name="15" />
   <point x="399" y="-12" type="offcurve" name="14" />
   <point x="477" y="119" type="offcurve" name="14" />
  </contour>
  <contour>
   <point x="263" y="623" type="curve" smooth="yes" name="15" />
   <point x="376" y="623" type="offcurve" name="14" />
   <point x="450" y="505" type="offcurve" name="14" />
   <point x="450" y="321" type="curve" smooth="yes" name="15" />
   <point x="450" y="320" type="offcurve" name="14" />
   <point x="450" y="319" type="offcurve" name="14" />
   <point x="450" y="319" type="curve" smooth="yes" name="15" />
   <point x="450" y="130" type="offcurve" name="14" />
   <point x="378" y="10" type="offcurve" name="14" />
   <point x="262" y="10" type="curve" smooth="yes" name="15" />
   <point x="148" y="10" type="offcurve" name="14" />
   <point x="75" y="127" type="offcurve" name="14" />
   <point x="75" y="310" type="curve" smooth="yes" name="15" />
   <point x="75" y="312" type="offcurve" name="14" />
   <point x="75" y="314" type="offcurve" name="14" />
   <point x="75" y="317" type="curve" smooth="yes" name="15" />
   <point x="77" y="508" type="offcurve" name="14" />
   <point x="146" y="622" type="offcurve" name="14" />
   <point x="261" y="623" type="curve" smooth="yes" name="15" />
   <point x="262" y="623" type="offcurve" name="14" />
   <point x="262" y="623" type="offcurve" name="14" />
  </contour>
 </outline>
</glyph>
<glyph name="one" format="1">
 <advance width="375" />
 <unicode hex="0031" />
 <outline>
  <contour>
   <point x="233" y="633" type="line" smooth="no" name="13" />
   <point x="207" y="633" type="line" smooth="no" name="13" />
   <point x="38" y="539" type="line" smooth="no" name="13" />
   <point x="54" y="518" type="line" smooth="no" name="13" />
   <point x="206" y="601" type="line" smooth="no" name="13" />
   <point x="206" y="0" type="line" smooth="no" name="13" />
   <point x="233" y="0" type="line" smooth="no" name="13" />
  </contour>
 </outline>
</glyph>
<glyph name="two" format="1">
 <advance width="480" />
 <unicode hex="0032" />
 <outline>
  <contour>
   <point x="52" y="0" type="line" smooth="no" name="13" />
   <point x="399" y="0" type="line" smooth="no" name="13" />
   <point x="399" y="22" type="line" smooth="no" name="13" />
   <point x="88" y="22" type="line" smooth="no" name="13" />
   <point x="245" y="195" type="line" smooth="yes" name="15" />
   <point x="381" y="345" type="offcurve" name="14" />
   <point x="406" y="362" type="offcurve" name="14" />
   <point x="407" y="460" type="curve" smooth="yes" name="15" />
   <point x="407" y="461" type="offcurve" name="14" />
   <point x="407" y="461" type="offcurve" name="14" />
   <point x="407" y="462" type="curve" smooth="yes" name="15" />
   <point x="407" y="561" type="offcurve" name="14" />
   <point x="340" y="629" type="offcurve" name="14" />
   <point x="241" y="633" type="curve" smooth="yes" name="15" />
   <point x="236" y="633" type="offcurve" name="14" />
   <point x="232" y="633" type="offcurve" name="14" />
   <point x="227" y="633" type="curve" smooth="yes" name="15" />
   <point x="170" y="633" type="offcurve" name="14" />
   <point x="130" y="619" type="offcurve" name="14" />
   <point x="72" y="580" type="curve" smooth="no" name="13" />
   <point x="86" y="563" type="line" smooth="no" name="13" />
   <point x="149" y="599" type="offcurve" name="14" />
   <point x="183" y="611" type="offcurve" name="14" />
   <point x="230" y="611" type="curve" smooth="yes" name="15" />
   <point x="230" y="611" type="offcurve" name="14" />
   <point x="231" y="611" type="offcurve" name="14" />
   <point x="231" y="611" type="curve" smooth="yes" name="15" />
   <point x="321" y="611" type="offcurve" name="14" />
   <point x="379" y="555" type="offcurve" name="14" />
   <point x="380" y="466" type="curve" smooth="yes" name="15" />
   <point x="380" y="463" type="offcurve" name="14" />
   <point x="380" y="461" type="offcurve" name="14" />
   <point x="380" y="458" type="curve" smooth="yes" name="15" />
   <point x="380" y="386" type="offcurve" name="14" />
   <point x="364" y="360" type="offcurve" name="14" />
   <point x="261" y="247" type="curve" smooth="yes" name="15" />
   <point x="52" y="20" type="line" smooth="no" name="13" />
  </contour>
 </outline>
</glyph>
<glyph name="three" format="1">
 <advance width="496" />
 <unicode hex="0033" />
 <outline>
  <contour>
   <point x="69" y="572" type="line" smooth="no" name="13" />
   <point x="127" y="609" type="offcurve" name="14" />
   <point x="154" y="618" type="offcurve" name="14" />
   <point x="199" y="618" type="curve" smooth="yes" name="15" />
   <point x="200" y="618" type="offcurve" name="14" />
   <point x="201" y="618" type="offcurve" name="14" />
   <point x="203" y="618" type="curve" smooth="yes" name="15" />
   <point x="295" y="617" type="offcurve" name="14" />
   <point x="355" y="567" type="offcurve" name="14" />
   <point x="356" y="492" type="curve" smooth="yes" name="15" />
   <point x="356" y="492" type="offcurve" name="14" />
   <point x="356" y="491" type="offcurve" name="14" />
   <point x="356" y="490" type="curve" smooth="yes" name="15" />
   <point x="356" y="408" type="offcurve" name="14" />
   <point x="282" y="347" type="offcurve" name="14" />
   <point x="195" y="347" type="curve" smooth="yes" name="15" />
   <point x="128" y="347" type="line" smooth="no" name="13" />
   <point x="128" y="325" type="line" smooth="no" name="13" />
   <point x="195" y="325" type="line" smooth="yes" name="15" />
   <point x="310" y="325" type="offcurve" name="14" />
   <point x="383" y="266" type="offcurve" name="14" />
   <point x="384" y="174" type="curve" smooth="yes" name="15" />
   <point x="384" y="173" type="offcurve" name="14" />
   <point x="384" y="173" type="offcurve" name="14" />
   <point x="384" y="172" type="curve" smooth="yes" name="15" />
   <point x="384" y="80" type="offcurve" name="14" />
   <point x="311" y="15" type="offcurve" name="14" />
   <point x="206" y="14" type="curve" smooth="yes" name="15" />
   <point x="205" y="14" type="offcurve" name="14" />
   <point x="205" y="14" type="offcurve" name="14" />
   <point x="204" y="14" type="curve" smooth="yes" name="15" />
   <point x="156" y="14" type="offcurve" name="14" />
   <point x="125" y="25" type="offcurve" name="14" />
   <point x="62" y="64" type="curve" smooth="no" name="13" />
   <point x="48" y="47" type="line" smooth="no" name="13" />
   <point x="103" y="6" type="offcurve" name="14" />
   <point x="143" y="-8" type="offcurve" name="14" />
   <point x="202" y="-8" type="curve" smooth="yes" name="15" />
   <point x="205" y="-8" type="offcurve" name="14" />
   <point x="209" y="-8" type="offcurve" name="14" />
   <point x="212" y="-8" type="curve" smooth="yes" name="15" />
   <point x="330" y="-5" type="offcurve" name="14" />
   <point x="411" y="68" type="offcurve" name="14" />
   <point x="411" y="172" type="curve" smooth="yes" name="15" />
   <point x="411" y="173" type="offcurve" name="14" />
   <point x="411" y="173" type="offcurve" name="14" />
   <point x="411" y="174" type="curve" smooth="yes" name="15" />
   <point x="410" y="263" type="offcurve" name="14" />
   <point x="364" y="312" type="offcurve" name="14" />
   <point x="255" y="340" type="curve" smooth="no" name="13" />
   <point x="343" y="367" type="offcurve" name="14" />
   <point x="383" y="419" type="offcurve" name="14" />
   <point x="383" y="489" type="curve" smooth="yes" name="15" />
   <point x="383" y="490" type="offcurve" name="14" />
   <point x="383" y="491" type="offcurve" name="14" />
   <point x="383" y="492" type="curve" smooth="yes" name="15" />
   <point x="382" y="578" type="offcurve" name="14" />
   <point x="311" y="640" type="offcurve" name="14" />
   <point x="211" y="640" type="curve" smooth="yes" name="15" />
   <point x="210" y="640" type="offcurve" name="14" />
   <point x="209" y="640" type="offcurve" name="14" />
   <point x="208" y="640" type="curve" smooth="yes" name="15" />
   <point x="149" y="640" type="offcurve" name="14" />
   <point x="109" y="627" type="offcurve" name="14" />
   <point x="55" y="590" type="curve" smooth="no" name="13" />
  </contour>
 </outline>
</glyph>
<glyph name="four" format="1">
 <advance width="547" />
 <unicode hex="0034" />
 <outline>
  <contour>
   <point x="35" y="163" type="line" smooth="no" name="13" />
   <point x="35" y="149" type="line" smooth="no" name="13" />
   <point x="343" y="149" type="line" smooth="no" name="13" />
   <point x="343" y="0" type="line" smooth="no" name="13" />
   <point x="370" y="0" type="line" smooth="no" name="13" />
   <point x="370" y="149" type="line" smooth="no" name="13" />
   <point x="497" y="149" type="line" smooth="no" name="13" />
   <point x="497" y="171" type="line" smooth="no" name="13" />
   <point x="370" y="171" type="line" smooth="no" name="13" />
   <point x="370" y="633" type="line" smooth="no" name="13" />
   <point x="341" y="633" type="line" smooth="no" name="13" />
  </contour>
  <contour>
   <point x="71" y="171" type="line" smooth="no" name="13" />
   <point x="343" y="592" type="line" smooth="no" name="13" />
   <point x="343" y="171" type="line" smooth="no" name="13" />
  </contour>
 </outline>
</glyph>
<glyph name="five" format="1">
 <advance width="539" />
 <unicode hex="0035" />
 <outline>
  <contour>
   <point x="409" y="611" type="line" smooth="no" name="13" />
   <point x="409" y="633" type="line" smooth="no" name="13" />
   <point x="121" y="633" type="line" smooth="no" name="13" />
   <point x="121" y="369" type="line" smooth="no" name="13" />
   <point x="188" y="381" type="offcurve" name="14" />
   <point x="208" y="382" type="offcurve" name="14" />
   <point x="232" y="382" type="curve" smooth="yes" name="15" />
   <point x="357" y="382" type="offcurve" name="14" />
   <point x="426" y="311" type="offcurve" name="14" />
   <point x="426" y="199" type="curve" smooth="yes" name="15" />
   <point x="426" y="198" type="offcurve" name="14" />
   <point x="426" y="197" type="offcurve" name="14" />
   <point x="426" y="196" type="curve" smooth="yes" name="15" />
   <point x="425" y="85" type="offcurve" name="14" />
   <point x="359" y="22" type="offcurve" name="14" />
   <point x="243" y="22" type="curve" smooth="yes" name="15" />
   <point x="242" y="22" type="offcurve" name="14" />
   <point x="241" y="22" type="offcurve" name="14" />
   <point x="241" y="22" type="curve" smooth="yes" name="15" />
   <point x="189" y="22" type="offcurve" name="14" />
   <point x="160" y="32" type="offcurve" name="14" />
   <point x="101" y="69" type="curve" smooth="no" name="13" />
   <point x="90" y="50" type="line" smooth="no" name="13" />
   <point x="147" y="13" type="offcurve" name="14" />
   <point x="189" y="-1" type="offcurve" name="14" />
   <point x="247" y="-1" type="curve" smooth="yes" name="15" />
   <point x="250" y="-1" type="offcurve" name="14" />
   <point x="254" y="-1" type="offcurve" name="14" />
   <point x="258" y="0" type="curve" smooth="no" name="13" />
   <point x="373" y="3" type="offcurve" name="14" />
   <point x="451" y="81" type="offcurve" name="14" />
   <point x="453" y="195" type="curve" smooth="no" name="13" />
   <point x="454" y="197" type="offcurve" name="14" />
   <point x="454" y="199" type="offcurve" name="14" />
   <point x="454" y="202" type="curve" smooth="yes" name="15" />
   <point x="454" y="323" type="offcurve" name="14" />
   <point x="371" y="404" type="offcurve" name="14" />
   <point x="246" y="404" type="curve" smooth="yes" name="15" />
   <point x="213" y="404" type="offcurve" name="14" />
   <point x="181" y="401" type="offcurve" name="14" />
   <point x="148" y="397" type="curve" smooth="no" name="13" />
   <point x="148" y="611" type="line" smooth="no" name="13" />
  </contour>
 </outline>
</glyph>
<glyph name="six" format="1">
 <advance width="547" />
 <unicode hex="0036" />
 <outline>
  <contour>
   <point x="437" y="603" type="line" smooth="no" name="13" />
   <point x="391" y="636" type="offcurve" name="14" />
   <point x="354" y="645" type="offcurve" name="14" />
   <point x="319" y="645" type="curve" smooth="yes" name="15" />
   <point x="315" y="645" type="offcurve" name="14" />
   <point x="312" y="645" type="offcurve" name="14" />
   <point x="308" y="645" type="curve" smooth="yes" name="15" />
   <point x="179" y="639" type="offcurve" name="14" />
   <point x="87" y="495" type="offcurve" name="14" />
   <point x="86" y="298" type="curve" smooth="yes" name="15" />
   <point x="86" y="117" type="offcurve" name="14" />
   <point x="163" y="-12" type="offcurve" name="14" />
   <point x="282" y="-12" type="curve" smooth="yes" name="15" />
   <point x="385" y="-12" type="offcurve" name="14" />
   <point x="461" y="77" type="offcurve" name="14" />
   <point x="461" y="201" type="curve" smooth="yes" name="15" />
   <point x="461" y="202" type="offcurve" name="14" />
   <point x="461" y="203" type="offcurve" name="14" />
   <point x="461" y="205" type="curve" smooth="yes" name="15" />
   <point x="461" y="329" type="offcurve" name="14" />
   <point x="394" y="409" type="offcurve" name="14" />
   <point x="287" y="410" type="curve" smooth="yes" name="15" />
   <point x="215" y="410" type="offcurve" name="14" />
   <point x="166" y="371" type="offcurve" name="14" />
   <point x="118" y="322" type="curve" smooth="no" name="13" />
   <point x="121" y="452" type="offcurve" name="14" />
   <point x="165" y="623" type="offcurve" name="14" />
   <point x="322" y="623" type="curve" smooth="yes" name="15" />
   <point x="354" y="623" type="offcurve" name="14" />
   <point x="381" y="614" type="offcurve" name="14" />
   <point x="424" y="585" type="curve" smooth="no" name="13" />
  </contour>
  <contour>
   <point x="118" y="285" type="curve" smooth="no" name="13" />
   <point x="173" y="362" type="offcurve" name="14" />
   <point x="249" y="388" type="offcurve" name="14" />
   <point x="288" y="388" type="curve" smooth="yes" name="15" />
   <point x="289" y="388" type="offcurve" name="14" />
   <point x="290" y="388" type="offcurve" name="14" />
   <point x="290" y="388" type="curve" smooth="yes" name="15" />
   <point x="376" y="385" type="offcurve" name="14" />
   <point x="434" y="310" type="offcurve" name="14" />
   <point x="434" y="204" type="curve" smooth="yes" name="15" />
   <point x="434" y="203" type="offcurve" name="14" />
   <point x="434" y="201" type="offcurve" name="14" />
   <point x="434" y="200" type="curve" smooth="yes" name="15" />
   <point x="433" y="92" type="offcurve" name="14" />
   <point x="371" y="11" type="offcurve" name="14" />
   <point x="290" y="10" type="curve" smooth="yes" name="15" />
   <point x="226" y="11" type="offcurve" name="14" />
   <point x="183" y="42" type="offcurve" name="14" />
   <point x="154" y="99" type="curve" smooth="yes" name="15" />
   <point x="126" y="155" type="offcurve" name="14" />
   <point x="120" y="223" type="offcurve" name="14" />
  </contour>
 </outline>
</glyph>
<glyph name="seven" format="1">
 <advance width="404" />
 <unicode hex="0037" />
 <outline>
  <contour>
   <point x="42" y="611" type="line" smooth="no" name="13" />
   <point x="342" y="611" type="line" smooth="no" name="13" />
   <point x="81" y="0" type="line" smooth="no" name="13" />
   <point x="109" y="0" type="line" smooth="no" name="13" />
   <point x="370" y="616" type="line" smooth="no" name="13" />
   <point x="370" y="633" type="line" smooth="no" name="13" />
   <point x="42" y="633" type="line" smooth="no" name="13" />
  </contour>
 </outline>
</glyph>
<glyph name="eight" format="1">
 <advance width="560" />
 <unicode hex="0038" />
 <outline>
  <contour>
   <point x="231" y="349" type="curve" smooth="no" name="13" />
   <point x="133" y="307" type="offcurve" name="14" />
   <point x="87" y="258" type="offcurve" name="14" />
   <point x="86" y="177" type="curve" smooth="yes" name="15" />
   <point x="86" y="177" type="offcurve" name="14" />
   <point x="86" y="176" type="offcurve" name="14" />
   <point x="86" y="176" type="curve" smooth="yes" name="15" />
   <point x="86" y="73" type="offcurve" name="14" />
   <point x="168" y="-11" type="offcurve" name="14" />
   <point x="271" y="-12" type="curve" smooth="yes" name="15" />
   <point x="383" y="-12" type="offcurve" name="14" />
   <point x="462" y="76" type="offcurve" name="14" />
   <point x="462" y="179" type="curve" smooth="yes" name="15" />
   <point x="461" y="260" type="offcurve" name="14" />
   <point x="411" y="309" type="offcurve" name="14" />
   <point x="314" y="347" type="curve" smooth="no" name="13" />
   <point x="403" y="389" type="offcurve" name="14" />
   <point x="446" y="430" type="offcurve" name="14" />
   <point x="446" y="498" type="curve" smooth="yes" name="15" />
   <point x="446" y="498" type="offcurve" name="14" />
   <point x="446" y="499" type="offcurve" name="14" />
   <point x="446" y="499" type="curve" smooth="yes" name="15" />
   <point x="446" y="571" type="offcurve" name="14" />
   <point x="387" y="650" type="offcurve" name="14" />
   <point x="276" y="650" type="curve" smooth="yes" name="15" />
   <point x="276" y="650" type="offcurve" name="14" />
   <point x="275" y="650" type="offcurve" name="14" />
   <point x="275" y="650" type="curve" smooth="yes" name="15" />
   <point x="176" y="650" type="offcurve" name="14" />
   <point x="103" y="585" type="offcurve" name="14" />
   <point x="103" y="499" type="curve" smooth="yes" name="15" />
   <point x="103" y="433" type="offcurve" name="14" />
   <point x="143" y="393" type="offcurve" name="14" />
  </contour>
  <contour>
   <point x="276" y="356" type="curve" smooth="no" name="13" />
   <point x="172" y="395" type="offcurve" name="14" />
   <point x="130" y="439" type="offcurve" name="14" />
   <point x="130" y="502" type="curve" smooth="yes" name="15" />
   <point x="130" y="503" type="offcurve" name="14" />
   <point x="130" y="504" type="offcurve" name="14" />
   <point x="130" y="504" type="curve" smooth="yes" name="15" />
   <point x="131" y="573" type="offcurve" name="14" />
   <point x="195" y="627" type="offcurve" name="14" />
   <point x="276" y="628" type="curve" smooth="yes" name="15" />
   <point x="277" y="628" type="offcurve" name="14" />
   <point x="277" y="628" type="offcurve" name="14" />
   <point x="277" y="628" type="curve" smooth="no" name="13" />
   <point x="357" y="628" type="offcurve" name="14" />
   <point x="417" y="575" type="offcurve" name="14" />
   <point x="419" y="504" type="curve" smooth="yes" name="15" />
   <point x="419" y="503" type="offcurve" name="14" />
   <point x="419" y="502" type="offcurve" name="14" />
   <point x="419" y="501" type="curve" smooth="yes" name="15" />
   <point x="419" y="437" type="offcurve" name="14" />
   <point x="378" y="396" type="offcurve" name="14" />
  </contour>
  <contour>
   <point x="270" y="338" type="curve" smooth="no" name="13" />
   <point x="384" y="305" type="offcurve" name="14" />
   <point x="433" y="255" type="offcurve" name="14" />
   <point x="435" y="176" type="curve" smooth="no" name="13" />
   <point x="436" y="175" type="offcurve" name="14" />
   <point x="436" y="174" type="offcurve" name="14" />
   <point x="436" y="172" type="curve" smooth="yes" name="15" />
   <point x="436" y="86" type="offcurve" name="14" />
   <point x="359" y="10" type="offcurve" name="14" />
   <point x="274" y="10" type="curve" smooth="yes" name="15" />
   <point x="187" y="10" type="offcurve" name="14" />
   <point x="113" y="89" type="offcurve" name="14" />
   <point x="113" y="174" type="curve" smooth="yes" name="15" />
   <point x="113" y="175" type="offcurve" name="14" />
   <point x="113" y="176" type="offcurve" name="14" />
   <point x="113" y="176" type="curve" smooth="yes" name="15" />
   <point x="114" y="256" type="offcurve" name="14" />
   <point x="160" y="304" type="offcurve" name="14" />
  </contour>
 </outline>
</glyph>
<glyph name="nine" format="1">
 <advance width="547" />
 <unicode hex="0039" />
 <outline>
  <contour>
   <point x="105" y="32" type="line" smooth="no" name="13" />
   <point x="148" y="-1" type="offcurve" name="14" />
   <point x="188" y="-12" type="offcurve" name="14" />
   <point x="231" y="-12" type="curve" smooth="yes" name="15" />
   <point x="234" y="-12" type="offcurve" name="14" />
   <point x="238" y="-12" type="offcurve" name="14" />
   <point x="241" y="-12" type="curve" smooth="yes" name="15" />
   <point x="367" y="-7" type="offcurve" name="14" />
   <point x="446" y="125" type="offcurve" name="14" />
   <point x="446" y="334" type="curve" smooth="yes" name="15" />
   <point x="446" y="334" type="offcurve" name="14" />
   <point x="446" y="335" type="offcurve" name="14" />
   <point x="446" y="336" type="curve" smooth="yes" name="15" />
   <point x="446" y="522" type="offcurve" name="14" />
   <point x="380" y="645" type="offcurve" name="14" />
   <point x="259" y="645" type="curve" smooth="yes" name="15" />
   <point x="163" y="645" type="offcurve" name="14" />
   <point x="80" y="552" type="offcurve" name="14" />
   <point x="80" y="432" type="curve" smooth="yes" name="15" />
   <point x="80" y="285" type="offcurve" name="14" />
   <point x="181" y="226" type="offcurve" name="14" />
   <point x="257" y="226" type="curve" smooth="no" name="13" />
   <point x="259" y="225" type="offcurve" name="14" />
   <point x="261" y="225" type="offcurve" name="14" />
   <point x="263" y="225" type="curve" smooth="yes" name="15" />
   <point x="319" y="225" type="offcurve" name="14" />
   <point x="361" y="245" type="offcurve" name="14" />
   <point x="416" y="297" type="curve" smooth="no" name="13" />
   <point x="395" y="99" type="offcurve" name="14" />
   <point x="342" y="19" type="offcurve" name="14" />
   <point x="240" y="10" type="curve" smooth="no" name="13" />
   <point x="235" y="10" type="offcurve" name="14" />
   <point x="231" y="9" type="offcurve" name="14" />
   <point x="226" y="9" type="curve" smooth="yes" name="15" />
   <point x="189" y="9" type="offcurve" name="14" />
   <point x="157" y="24" type="offcurve" name="14" />
   <point x="118" y="52" type="curve" smooth="no" name="13" />
  </contour>
  <contour>
   <point x="418" y="336" type="curve" smooth="no" name="13" />
   <point x="370" y="275" type="offcurve" name="14" />
   <point x="320" y="248" type="offcurve" name="14" />
   <point x="260" y="248" type="curve" smooth="yes" name="15" />
   <point x="177" y="248" type="offcurve" name="14" />
   <point x="107" y="331" type="offcurve" name="14" />
   <point x="107" y="428" type="curve" smooth="yes" name="15" />
   <point x="107" y="430" type="offcurve" name="14" />
   <point x="107" y="431" type="offcurve" name="14" />
   <point x="107" y="433" type="curve" smooth="yes" name="15" />
   <point x="110" y="533" type="offcurve" name="14" />
   <point x="181" y="623" type="offcurve" name="14" />
   <point x="256" y="623" type="curve" smooth="yes" name="15" />
   <point x="352" y="622" type="offcurve" name="14" />
   <point x="418" y="517" type="offcurve" name="14" />
   <point x="418" y="338" type="curve" smooth="yes" name="15" />
   <point x="418" y="337" type="offcurve" name="14" />
   <point x="418" y="336" type="offcurve" name="14" />
  </contour>
 </outline>
</glyph>
<glyph name="colon" format="1">
 <advance width="182" />
 <unicode hex="003a" />
 <outline>
  <contour>
   <point x="111" y="235" type="curve" smooth="yes" name="15" />
   <point x="125" y="235" type="offcurve" name="14" />
   <point x="132" y="240" type="offcurve" name="14" />
   <point x="132" y="258" type="curve" smooth="yes" name="15" />
   <point x="132" y="275" type="offcurve" name="14" />
   <point x="125" y="280" type="offcurve" name="14" />
   <point x="111" y="280" type="curve" smooth="yes" name="15" />
   <point x="97" y="280" type="offcurve" name="14" />
   <point x="90" y="274" type="offcurve" name="14" />
   <point x="90" y="257" type="curve" smooth="yes" name="15" />
   <point x="90" y="239" type="offcurve" name="14" />
   <point x="98" y="235" type="offcurve" name="14" />
  </contour>
  <contour>
   <point x="111" y="-5" type="curve" smooth="yes" name="15" />
   <point x="125" y="-5" type="offcurve" name="14" />
   <point x="132" y="0" type="offcurve" name="14" />
   <point x="132" y="18" type="curve" smooth="yes" name="15" />
   <point x="132" y="35" type="offcurve" name="14" />
   <point x="125" y="40" type="offcurve" name="14" />
   <point x="111" y="40" type="curve" smooth="yes" name="15" />
   <point x="97" y="40" type="offcurve" name="14" />
   <point x="90" y="34" type="offcurve" name="14" />
   <point x="90" y="17" type="curve" smooth="yes" name="15" />
   <point x="90" y="-1" type="offcurve" name="14" />
   <point x="98" y="-5" type="offcurve" name="14" />
  </contour>
 </outline>
</glyph>
<glyph name="semicolon" format="1">
 <advance width="163" />
 <unicode hex="003b" />
 <outline>
  <contour>
   <point x="87" y="-75" type="line" smooth="no" name="13" />
   <point x="107" y="-53" type="offcurve" name="14" />
   <point x="115" y="-31" type="offcurve" name="14" />
   <point x="115" y="-2" type="curve" smooth="yes" name="15" />
   <point x="115" y="0" type="offcurve" name="14" />
   <point x="115" y="1" type="offcurve" name="14" />
   <point x="115" y="2" type="curve" smooth="yes" name="15" />
   <point x="115" y="30" type="offcurve" name="14" />
   <point x="103" y="45" type="offcurve" name="14" />
   <point x="82" y="45" type="curve" smooth="yes" name="15" />
   <point x="67" y="45" type="offcurve" name="14" />
   <point x="56" y="35" type="offcurve" name="14" />
   <point x="56" y="19" type="curve" smooth="yes" name="15" />
   <point x="56" y="3" type="offcurve" name="14" />
   <point x="66" y="-9" type="offcurve" name="14" />
   <point x="79" y="-9" type="curve" smooth="no" name="13" />
   <point x="87" y="-10" type="offcurve" name="14" />
   <point x="96" y="-5" type="offcurve" name="14" />
   <point x="101" y="6" type="curve" smooth="no" name="13" />
   <point x="102" y="1" type="offcurve" name="14" />
   <point x="103" y="-5" type="offcurve" name="14" />
   <point x="103" y="-10" type="curve" smooth="yes" name="15" />
   <point x="103" y="-33" type="offcurve" name="14" />
   <point x="90" y="-52" type="offcurve" name="14" />
   <point x="74" y="-66" type="curve" smooth="no" name="13" />
  </contour>
  <contour>
   <point x="74" y="282" type="curve" smooth="no" name="13" />
   <point x="58" y="279" type="offcurve" name="14" />
   <point x="49" y="271" type="offcurve" name="14" />
   <point x="49" y="256" type="curve" smooth="yes" name="15" />
   <point x="49" y="242" type="offcurve" name="14" />
   <point x="60" y="231" type="offcurve" name="14" />
   <point x="75" y="231" type="curve" smooth="yes" name="15" />
   <point x="89" y="231" type="offcurve" name="14" />
   <point x="100" y="242" type="offcurve" name="14" />
   <point x="100" y="256" type="curve" smooth="yes" name="15" />
   <point x="100" y="271" type="offcurve" name="14" />
   <point x="92" y="279" type="offcurve" name="14" />
  </contour>
 </outline>
</glyph>
<glyph name="less" format="1">
 <advance width="517" />
 <unicode hex="003c" />
 <outline>
  <contour>
   <point x="446" y="445" type="line" smooth="no" name="13" />
   <point x="446" y="473" type="line" smooth="no" name="13" />
   <point x="42" y="255" type="line" smooth="no" name="13" />
   <point x="42" y="229" type="line" smooth="no" name="13" />
   <point x="446" y="-10" type="line" smooth="no" name="13" />
   <point x="446" y="17" type="line" smooth="no" name="13" />
   <point x="71" y="242" type="line" smooth="no" name="13" />
  </contour>
 </outline>
</glyph>
<glyph name="equal" format="1">
 <advance width="489" />
 <unicode hex="003d" />
 <outline>
  <contour>
   <point x="447" y="295" type="line" smooth="no" name="13" />
   <point x="447" y="317" type="line" smooth="no" name="13" />
   <point x="42" y="317" type="line" smooth="no" name="13" />
   <point x="42" y="295" type="line" smooth="no" name="13" />
  </contour>
  <contour>
   <point x="447" y="138" type="line" smooth="no" name="13" />
   <point x="447" y="160" type="line" smooth="no" name="13" />
   <point x="42" y="160" type="line" smooth="no" name="13" />
   <point x="42" y="138" type="line" smooth="no" name="13" />
  </contour>
 </outline>
</glyph>
<glyph name="greater" format="1">
 <advance width="517" />
 <unicode hex="003e" />
 <outline>
  <contour>
   <point x="446" y="241" type="line" smooth="no" name="13" />
   <point x="71" y="16" type="line" smooth="no" name="13" />
   <point x="71" y="-12" type="line" smooth="no" name="13" />
   <point x="475" y="228" type="line" smooth="no" name="13" />
   <point x="475" y="253" type="line" smooth="no" name="13" />
   <point x="71" y="472" type="line" smooth="no" name="13" />
   <point x="71" y="443" type="line" smooth="no" name="13" />
  </contour>
 </outline>
</glyph>
<glyph name="question" format="1">
 <advance width="349" />
 <unicode hex="003f" />
 <outline>
  <contour>
   <point x="135" y="51" type="curve" smooth="no" name="13" />
   <point x="117" y="50" type="offcurve" name="14" />
   <point x="106" y="38" type="offcurve" name="14" />
   <point x="106" y="22" type="curve" smooth="yes" name="15" />
   <point x="106" y="6" type="offcurve" name="14" />
   <point x="119" y="-8" type="offcurve" name="14" />
   <point x="135" y="-8" type="curve" smooth="yes" name="15" />
   <point x="151" y="-8" type="offcurve" name="14" />
   <point x="165" y="6" type="offcurve" name="14" />
   <point x="165" y="22" type="curve" smooth="yes" name="15" />
   <point x="165" y="38" type="offcurve" name="14" />
   <point x="153" y="50" type="offcurve" name="14" />
  </contour>
  <contour>
   <point x="148" y="154" type="line" smooth="no" name="13" />
   <point x="148" y="219" type="line" smooth="yes" name="15" />
   <point x="148" y="268" type="offcurve" name="14" />
   <point x="148" y="268" type="offcurve" name="14" />
   <point x="200" y="315" type="curve" smooth="yes" name="15" />
   <point x="213" y="327" type="line" smooth="yes" name="15" />
   <point x="269" y="378" type="offcurve" name="14" />
   <point x="310" y="418" type="offcurve" name="14" />
   <point x="310" y="499" type="curve" smooth="yes" name="15" />
   <point x="310" y="587" type="offcurve" name="14" />
   <point x="255" y="644" type="offcurve" name="14" />
   <point x="169" y="644" type="curve" smooth="yes" name="15" />
   <point x="125" y="644" type="offcurve" name="14" />
   <point x="94" y="633" type="offcurve" name="14" />
   <point x="45" y="601" type="curve" smooth="no" name="13" />
   <point x="56" y="583" type="line" smooth="no" name="13" />
   <point x="106" y="613" type="offcurve" name="14" />
   <point x="130" y="622" type="offcurve" name="14" />
   <point x="163" y="622" type="curve" smooth="yes" name="15" />
   <point x="165" y="622" type="offcurve" name="14" />
   <point x="166" y="622" type="offcurve" name="14" />
   <point x="167" y="622" type="curve" smooth="yes" name="15" />
   <point x="239" y="620" type="offcurve" name="14" />
   <point x="283" y="574" type="offcurve" name="14" />
   <point x="283" y="501" type="curve" smooth="yes" name="15" />
   <point x="283" y="499" type="offcurve" name="14" />
   <point x="283" y="497" type="offcurve" name="14" />
   <point x="283" y="495" type="curve" smooth="yes" name="15" />
   <point x="281" y="443" type="offcurve" name="14" />
   <point x="258" y="404" type="offcurve" name="14" />
   <point x="199" y="351" type="curve" smooth="yes" name="15" />
   <point x="191" y="344" type="offcurve" name="14" />
   <point x="181" y="336" type="offcurve" name="14" />
   <point x="174" y="330" type="curve" smooth="yes" name="15" />
   <point x="126" y="290" type="offcurve" name="14" />
   <point x="121" y="281" type="offcurve" name="14" />
   <point x="121" y="223" type="curve" smooth="yes" name="15" />
   <point x="121" y="154" type="line" smooth="no" name="13" />
  </contour>
 </outline>
</glyph>
<glyph name="at" format="1">
 <advance width="685" />
 <unicode hex="0040" />
 <outline>
  <contour>
   <point x="439" y="49" type="curve" smooth="no" name="13" />
   <point x="459" y="4" type="offcurve" name="14" />
   <point x="481" y="-14" type="offcurve" name="14" />
   <point x="517" y="-15" type="curve" smooth="yes" name="15" />
   <point x="518" y="-15" type="offcurve" name="14" />
   <point x="519" y="-15" type="offcurve" name="14" />
   <point x="519" y="-15" type="curve" smooth="yes" name="15" />
   <point x="591" y="-15" type="offcurve" name="14" />
   <point x="638" y="58" type="offcurve" name="14" />
   <point x="638" y="168" type="curve" smooth="yes" name="15" />
   <point x="638" y="340" type="offcurve" name="14" />
   <point x="520" y="463" type="offcurve" name="14" />
   <point x="356" y="463" type="curve" smooth="yes" name="15" />
   <point x="356" y="463" type="offcurve" name="14" />
   <point x="355" y="463" type="offcurve" name="14" />
   <point x="355" y="463" type="curve" smooth="yes" name="15" />
   <point x="182" y="463" type="offcurve" name="14" />
   <point x="48" y="321" type="offcurve" name="14" />
   <point x="48" y="140" type="curve" smooth="yes" name="15" />
   <point x="48" y="138" type="offcurve" name="14" />
   <point x="48" y="135" type="offcurve" name="14" />
   <point x="48" y="133" type="curve" smooth="yes" name="15" />
   <point x="51" y="-41" type="offcurve" name="14" />
   <point x="183" y="-177" type="offcurve" name="14" />
   <point x="350" y="-178" type="curve" smooth="yes" name="15" />
   <point x="351" y="-178" type="offcurve" name="14" />
   <point x="352" y="-178" type="offcurve" name="14" />
   <point x="353" y="-178" type="curve" smooth="yes" name="15" />
   <point x="368" y="-178" type="offcurve" name="14" />
   <point x="379" y="-178" type="offcurve" name="14" />
   <point x="390" y="-176" type="curve" smooth="no" name="13" />
   <point x="390" y="-154" type="line" smooth="no" name="13" />
   <point x="379" y="-156" type="offcurve" name="14" />
   <point x="370" y="-156" type="offcurve" name="14" />
   <point x="358" y="-156" type="curve" smooth="yes" name="15" />
   <point x="356" y="-156" type="offcurve" name="14" />
   <point x="353" y="-156" type="offcurve" name="14" />
   <point x="351" y="-156" type="curve" smooth="yes" name="15" />
   <point x="187" y="-153" type="offcurve" name="14" />
   <point x="75" y="-29" type="offcurve" name="14" />
   <point x="75" y="136" type="curve" smooth="yes" name="15" />
   <point x="75" y="305" type="offcurve" name="14" />
   <point x="198" y="439" type="offcurve" name="14" />
   <point x="355" y="441" type="curve" smooth="yes" name="15" />
   <point x="356" y="441" type="offcurve" name="14" />
   <point x="357" y="441" type="offcurve" name="14" />
   <point x="358" y="441" type="curve" smooth="yes" name="15" />
   <point x="507" y="441" type="offcurve" name="14" />
   <point x="610" y="330" type="offcurve" name="14" />
   <point x="611" y="169" type="curve" smooth="yes" name="15" />
   <point x="611" y="169" type="offcurve" name="14" />
   <point x="611" y="168" type="offcurve" name="14" />
   <point x="611" y="168" type="curve" smooth="yes" name="15" />
   <point x="611" y="74" type="offcurve" name="14" />
   <point x="575" y="9" type="offcurve" name="14" />
   <point x="523" y="7" type="curve" smooth="yes" name="15" />
   <point x="522" y="7" type="offcurve" name="14" />
   <point x="522" y="7" type="offcurve" name="14" />
   <point x="521" y="7" type="curve" smooth="yes" name="15" />
   <point x="484" y="7" type="offcurve" name="14" />
   <point x="458" y="45" type="offcurve" name="14" />
   <point x="458" y="96" type="curve" smooth="yes" name="15" />
   <point x="458" y="277" type="line" smooth="no" name="13" />
   <point x="442" y="277" type="line" smooth="no" name="13" />
   <point x="432" y="244" type="line" smooth="no" name="13" />
   <point x="395" y="269" type="offcurve" name="14" />
   <point x="372" y="278" type="offcurve" name="14" />
   <point x="340" y="278" type="curve" smooth="yes" name="15" />
   <point x="339" y="278" type="offcurve" name="14" />
   <point x="338" y="278" type="offcurve" name="14" />
   <point x="337" y="278" type="curve" smooth="yes" name="15" />
   <point x="261" y="276" type="offcurve" name="14" />
   <point x="212" y="219" type="offcurve" name="14" />
   <point x="212" y="130" type="curve" smooth="yes" name="15" />
   <point x="212" y="129" type="offcurve" name="14" />
   <point x="212" y="129" type="offcurve" name="14" />
   <point x="212" y="128" type="curve" smooth="yes" name="15" />
   <point x="213" y="44" type="offcurve" name="14" />
   <point x="261" y="-12" type="offcurve" name="14" />
   <point x="333" y="-12" type="curve" smooth="yes" name="15" />
   <point x="333" y="-12" type="offcurve" name="14" />
   <point x="334" y="-12" type="offcurve" name="14" />
   <point x="334" y="-12" type="curve" smooth="yes" name="15" />
   <point x="381" y="-12" type="offcurve" name="14" />
   <point x="410" y="5" type="offcurve" name="14" />
  </contour>
  <contour>
   <point x="431" y="217" type="curve" smooth="no" name="13" />
   <point x="431" y="118" type="line" smooth="yes" name="15" />
   <point x="431" y="57" type="offcurve" name="14" />
   <point x="389" y="11" type="offcurve" name="14" />
   <point x="335" y="10" type="curve" smooth="yes" name="15" />
   <point x="335" y="10" type="offcurve" name="14" />
   <point x="334" y="10" type="offcurve" name="14" />
   <point x="334" y="10" type="curve" smooth="yes" name="15" />
   <point x="276" y="10" type="offcurve" name="14" />
   <point x="239" y="58" type="offcurve" name="14" />
   <point x="239" y="134" type="curve" smooth="yes" name="15" />
   <point x="239" y="206" type="offcurve" name="14" />
   <point x="280" y="255" type="offcurve" name="14" />
   <point x="337" y="255" type="curve" smooth="yes" name="15" />
   <point x="338" y="255" type="offcurve" name="14" />
   <point x="339" y="255" type="offcurve" name="14" />
   <point x="339" y="255" type="curve" smooth="yes" name="15" />
   <point x="369" y="255" type="offcurve" name="14" />
   <point x="394" y="245" type="offcurve" name="14" />
  </contour>
 </outline>
</glyph>
<glyph name="A" format="1">
 <advance width="528" />
 <unicode hex="0041" />
 <outline>
  <contour>
   <point x="244" y="633" type="line" smooth="no" name="13" />
   <point x="21" y="0" type="line" smooth="no" name="13" />
   <point x="48" y="0" type="line" smooth="no" name="13" />
   <point x="105" y="161" type="line" smooth="no" name="13" />
   <point x="424" y="161" type="line" smooth="no" name="13" />
   <point x="481" y="0" type="line" smooth="no" name="13" />
   <point x="508" y="0" type="line" smooth="no" name="13" />
   <point x="286" y="633" type="line" smooth="no" name="13" />
  </contour>
  <contour>
   <point x="264" y="615" type="line" smooth="no" name="13" />
   <point x="417" y="183" type="line" smooth="no" name="13" />
   <point x="113" y="183" type="line" smooth="no" name="13" />
  </contour>
 </outline>
</glyph>
<glyph name="B" format="1">
 <advance width="509" />
 <unicode hex="0042" />
 <outline>
  <contour>
   <point x="90" y="6" type="line" smooth="no" name="13" />
   <point x="154" y="-4" type="offcurve" name="14" />
   <point x="186" y="-7" type="offcurve" name="14" />
   <point x="228" y="-7" type="curve" smooth="yes" name="15" />
   <point x="231" y="-7" type="offcurve" name="14" />
   <point x="233" y="-7" type="offcurve" name="14" />
   <point x="235" y="-7" type="curve" smooth="yes" name="15" />
   <point x="378" y="-6" type="offcurve" name="14" />
   <point x="450" y="51" type="offcurve" name="14" />
   <point x="452" y="163" type="curve" smooth="yes" name="15" />
   <point x="452" y="164" type="offcurve" name="14" />
   <point x="452" y="166" type="offcurve" name="14" />
   <point x="452" y="168" type="curve" smooth="yes" name="15" />
   <point x="452" y="255" type="offcurve" name="14" />
   <point x="407" y="314" type="offcurve" name="14" />
   <point x="323" y="336" type="curve" smooth="no" name="13" />
   <point x="317" y="337" type="line" smooth="no" name="13" />
   <point x="401" y="372" type="offcurve" name="14" />
   <point x="428" y="406" type="offcurve" name="14" />
   <point x="429" y="478" type="curve" smooth="no" name="13" />
   <point x="430" y="480" type="offcurve" name="14" />
   <point x="430" y="482" type="offcurve" name="14" />
   <point x="430" y="483" type="curve" smooth="yes" name="15" />
   <point x="430" y="583" type="offcurve" name="14" />
   <point x="359" y="640" type="offcurve" name="14" />
   <point x="235" y="640" type="curve" smooth="yes" name="15" />
   <point x="187" y="640" type="offcurve" name="14" />
   <point x="145" y="636" type="offcurve" name="14" />
   <point x="90" y="628" type="curve" smooth="no" name="13" />
  </contour>
  <contour>
   <point x="117" y="605" type="line" smooth="no" name="13" />
   <point x="161" y="615" type="offcurve" name="14" />
   <point x="185" y="618" type="offcurve" name="14" />
   <point x="218" y="618" type="curve" smooth="yes" name="15" />
   <point x="223" y="618" type="offcurve" name="14" />
   <point x="228" y="618" type="offcurve" name="14" />
   <point x="234" y="618" type="curve" smooth="yes" name="15" />
   <point x="343" y="615" type="offcurve" name="14" />
   <point x="403" y="568" type="offcurve" name="14" />
   <point x="403" y="484" type="curve" smooth="yes" name="15" />
   <point x="403" y="392" type="offcurve" name="14" />
   <point x="328" y="346" type="offcurve" name="14" />
   <point x="243" y="346" type="curve" smooth="yes" name="15" />
   <point x="117" y="346" type="line" smooth="no" name="13" />
  </contour>
  <contour>
   <point x="117" y="324" type="line" smooth="no" name="13" />
   <point x="250" y="324" type="line" smooth="yes" name="15" />
   <point x="358" y="324" type="offcurve" name="14" />
   <point x="425" y="264" type="offcurve" name="14" />
   <point x="425" y="167" type="curve" smooth="yes" name="15" />
   <point x="425" y="166" type="offcurve" name="14" />
   <point x="425" y="164" type="offcurve" name="14" />
   <point x="425" y="163" type="curve" smooth="yes" name="15" />
   <point x="423" y="65" type="offcurve" name="14" />
   <point x="365" y="19" type="offcurve" name="14" />
   <point x="238" y="15" type="curve" smooth="yes" name="15" />
   <point x="232" y="15" type="offcurve" name="14" />
   <point x="227" y="15" type="offcurve" name="14" />
   <point x="222" y="15" type="curve" smooth="yes" name="15" />
   <point x="191" y="15" type="offcurve" name="14" />
   <point x="168" y="18" type="offcurve" name="14" />
   <point x="117" y="28" type="curve" smooth="no" name="13" />
  </contour>
 </outline>
</glyph>
<glyph name="C" format="1">
 <advance width="531" />
 <unicode hex="0043" />
 <outline>
  <contour>
   <point x="472" y="594" type="line" smooth="no" name="13" />
   <point x="418" y="630" type="offcurve" name="14" />
   <point x="373" y="645" type="offcurve" name="14" />
   <point x="315" y="645" type="curve" smooth="yes" name="15" />
   <point x="314" y="645" type="offcurve" name="14" />
   <point x="312" y="645" type="offcurve" name="14" />
   <point x="310" y="645" type="curve" smooth="yes" name="15" />
   <point x="156" y="643" type="offcurve" name="14" />
   <point x="50" y="506" type="offcurve" name="14" />
   <point x="50" y="310" type="curve" smooth="yes" name="15" />
   <point x="50" y="118" type="offcurve" name="14" />
   <point x="157" y="-12" type="offcurve" name="14" />
   <point x="315" y="-12" type="curve" smooth="yes" name="15" />
   <point x="315" y="-12" type="offcurve" name="14" />
   <point x="316" y="-12" type="offcurve" name="14" />
   <point x="316" y="-12" type="curve" smooth="yes" name="15" />
   <point x="379" y="-12" type="offcurve" name="14" />
   <point x="425" y="5" type="offcurve" name="14" />
   <point x="480" y="46" type="curve" smooth="no" name="13" />
   <point x="466" y="65" type="line" smooth="no" name="13" />
   <point x="409" y="25" type="offcurve" name="14" />
   <point x="373" y="10" type="offcurve" name="14" />
   <point x="320" y="10" type="curve" smooth="yes" name="15" />
   <point x="319" y="10" type="offcurve" name="14" />
   <point x="319" y="10" type="offcurve" name="14" />
   <point x="318" y="10" type="curve" smooth="yes" name="15" />
   <point x="178" y="11" type="offcurve" name="14" />
   <point x="78" y="128" type="offcurve" name="14" />
   <point x="77" y="315" type="curve" smooth="yes" name="15" />
   <point x="77" y="316" type="offcurve" name="14" />
   <point x="77" y="317" type="offcurve" name="14" />
   <point x="77" y="319" type="curve" smooth="yes" name="15" />
   <point x="77" y="498" type="offcurve" name="14" />
   <point x="169" y="618" type="offcurve" name="14" />
   <point x="310" y="623" type="curve" smooth="yes" name="15" />
   <point x="314" y="623" type="offcurve" name="14" />
   <point x="317" y="623" type="offcurve" name="14" />
   <point x="320" y="623" type="curve" smooth="yes" name="15" />
   <point x="366" y="623" type="offcurve" name="14" />
   <point x="400" y="611" type="offcurve" name="14" />
   <point x="460" y="574" type="curve" smooth="no" name="13" />
  </contour>
 </outline>
</glyph>
<glyph name="D" format="1">
 <advance width="588" />
 <unicode hex="0044" />
 <outline>
  <contour>
   <point x="90" y="1" type="line" smooth="no" name="13" />
   <point x="157" y="-9" type="offcurve" name="14" />
   <point x="186" y="-12" type="offcurve" name="14" />
   <point x="223" y="-12" type="curve" smooth="yes" name="15" />
   <point x="225" y="-12" type="offcurve" name="14" />
   <point x="226" y="-12" type="offcurve" name="14" />
   <point x="228" y="-12" type="curve" smooth="yes" name="15" />
   <point x="421" y="-11" type="offcurve" name="14" />
   <point x="531" y="110" type="offcurve" name="14" />
   <point x="531" y="318" type="curve" smooth="yes" name="15" />
   <point x="531" y="320" type="offcurve" name="14" />
   <point x="531" y="321" type="offcurve" name="14" />
   <point x="531" y="323" type="curve" smooth="yes" name="15" />
   <point x="530" y="527" type="offcurve" name="14" />
   <point x="417" y="645" type="offcurve" name="14" />
   <point x="224" y="645" type="curve" smooth="yes" name="15" />
   <point x="187" y="645" type="offcurve" name="14" />
   <point x="157" y="642" type="offcurve" name="14" />
   <point x="90" y="633" type="curve" smooth="no" name="13" />
  </contour>
  <contour>
   <point x="117" y="610" type="line" smooth="no" name="13" />
   <point x="167" y="620" type="offcurve" name="14" />
   <point x="190" y="623" type="offcurve" name="14" />
   <point x="221" y="623" type="curve" smooth="yes" name="15" />
   <point x="222" y="623" type="offcurve" name="14" />
   <point x="223" y="623" type="offcurve" name="14" />
   <point x="223" y="623" type="curve" smooth="yes" name="15" />
   <point x="396" y="622" type="offcurve" name="14" />
   <point x="501" y="508" type="offcurve" name="14" />
   <point x="504" y="319" type="curve" smooth="yes" name="15" />
   <point x="504" y="317" type="offcurve" name="14" />
   <point x="504" y="314" type="offcurve" name="14" />
   <point x="504" y="311" type="curve" smooth="yes" name="15" />
   <point x="504" y="123" type="offcurve" name="14" />
   <point x="402" y="12" type="offcurve" name="14" />
   <point x="225" y="10" type="curve" smooth="yes" name="15" />
   <point x="223" y="10" type="offcurve" name="14" />
   <point x="221" y="10" type="offcurve" name="14" />
   <point x="220" y="10" type="curve" smooth="yes" name="15" />
   <point x="194" y="10" type="offcurve" name="14" />
   <point x="174" y="12" type="offcurve" name="14" />
   <point x="117" y="23" type="curve" smooth="no" name="13" />
  </contour>
 </outline>
</glyph>
<glyph name="F" format="1">
 <advance width="507" />
 <unicode hex="0046" />
 <outline>
  <contour>
   <point x="94" y="0" type="line" smooth="no" name="13" />
   <point x="121" y="0" type="line" smooth="no" name="13" />
   <point x="121" y="320" type="line" smooth="no" name="13" />
   <point x="388" y="320" type="line" smooth="no" name="13" />
   <point x="388" y="342" type="line" smooth="no" name="13" />
   <point x="121" y="342" type="line" smooth="no" name="13" />
   <point x="121" y="611" type="line" smooth="no" name="13" />
   <point x="437" y="611" type="line" smooth="no" name="13" />
   <point x="437" y="633" type="line" smooth="no" name="13" />
   <point x="94" y="633" type="line" smooth="no" name="13" />
  </contour>
 </outline>
</glyph>
<glyph name="G" format="1">
 <advance width="592" />
 <unicode hex="0047" />
 <outline>
  <contour>
   <point x="479" y="588" type="line" smooth="no" name="13" />
   <point x="420" y="627" type="offcurve" name="14" />
   <point x="380" y="640" type="offcurve" name="14" />
   <point x="315" y="640" type="curve" smooth="yes" name="15" />
   <point x="315" y="640" type="offcurve" name="14" />
   <point x="314" y="640" type="offcurve" name="14" />
   <point x="313" y="640" type="curve" smooth="yes" name="15" />
   <point x="157" y="639" type="offcurve" name="14" />
   <point x="50" y="508" type="offcurve" name="14" />
   <point x="50" y="315" type="curve" smooth="yes" name="15" />
   <point x="50" y="121" type="offcurve" name="14" />
   <point x="159" y="-6" type="offcurve" name="14" />
   <point x="324" y="-6" type="curve" smooth="yes" name="15" />
   <point x="325" y="-6" type="offcurve" name="14" />
   <point x="326" y="-6" type="offcurve" name="14" />
   <point x="327" y="-6" type="curve" smooth="yes" name="15" />
   <point x="390" y="-6" type="offcurve" name="14" />
   <point x="432" y="7" type="offcurve" name="14" />
   <point x="500" y="45" type="curve" smooth="no" name="13" />
   <point x="500" y="316" type="line" smooth="no" name="13" />
   <point x="350" y="316" type="line" smooth="no" name="13" />
   <point x="350" y="294" type="line" smooth="no" name="13" />
   <point x="473" y="294" type="line" smooth="no" name="13" />
   <point x="473" y="57" type="line" smooth="no" name="13" />
   <point x="415" y="26" type="offcurve" name="14" />
   <point x="381" y="15" type="offcurve" name="14" />
   <point x="334" y="15" type="curve" smooth="yes" name="15" />
   <point x="330" y="15" type="offcurve" name="14" />
   <point x="326" y="15" type="offcurve" name="14" />
   <point x="322" y="16" type="curve" smooth="no" name="13" />
   <point x="173" y="20" type="offcurve" name="14" />
   <point x="80" y="132" type="offcurve" name="14" />
   <point x="77" y="311" type="curve" smooth="yes" name="15" />
   <point x="77" y="314" type="offcurve" name="14" />
   <point x="77" y="317" type="offcurve" name="14" />
   <point x="77" y="320" type="curve" smooth="yes" name="15" />
   <point x="77" y="499" type="offcurve" name="14" />
   <point x="169" y="614" type="offcurve" name="14" />
   <point x="318" y="618" type="curve" smooth="yes" name="15" />
   <point x="322" y="618" type="offcurve" name="14" />
   <point x="325" y="618" type="offcurve" name="14" />
   <point x="327" y="618" type="curve" smooth="yes" name="15" />
   <point x="375" y="618" type="offcurve" name="14" />
   <point x="407" y="607" type="offcurve" name="14" />
   <point x="468" y="571" type="curve" smooth="no" name="13" />
  </contour>
 </outline>
</glyph>
<glyph name="H" format="1">
 <advance width="605" />
 <unicode hex="0048" />
 <outline>
  <contour>
   <point x="117" y="0" type="line" smooth="no" name="13" />
   <point x="117" y="319" type="line" smooth="no" name="13" />
   <point x="488" y="319" type="line" smooth="no" name="13" />
   <point x="488" y="0" type="line" smooth="no" name="13" />
   <point x="515" y="0" type="line" smooth="no" name="13" />
   <point x="515" y="633" type="line" smooth="no" name="13" />
   <point x="488" y="633" type="line" smooth="no" name="13" />
   <point x="488" y="341" type="line" smooth="no" name="13" />
   <point x="117" y="341" type="line" smooth="no" name="13" />
   <point x="117" y="633" type="line" smooth="no" name="13" />
   <point x="90" y="633" type="line" smooth="no" name="13" />
   <point x="90" y="0" type="line" smooth="no" name="13" />
  </contour>
 </outline>
</glyph>
<glyph name="I" format="1">
 <advance width="215" />
 <unicode hex="0049" />
 <outline>
  <contour>
   <point x="125" y="633" type="line" smooth="no" name="13" />
   <point x="98" y="633" type="line" smooth="no" name="13" />
   <point x="98" y="0" type="line" smooth="no" name="13" />
   <point x="125" y="0" type="line" smooth="no" name="13" />
  </contour>
 </outline>
</glyph>
<glyph name="J" format="1">
 <advance width="201" />
 <unicode hex="004a" />
 <outline>
  <contour>
   <point x="110" y="633" type="line" smooth="no" name="13" />
   <point x="83" y="633" type="line" smooth="no" name="13" />
   <point x="83" y="-39" type="line" smooth="yes" name="15" />
   <point x="83" y="-114" type="offcurve" name="14" />
   <point x="60" y="-146" type="offcurve" name="14" />
   <point x="12" y="-146" type="curve" smooth="yes" name="15" />
   <point x="-16" y="-146" type="offcurve" name="14" />
   <point x="-40" y="-133" type="offcurve" name="14" />
   <point x="-64" y="-119" type="curve" smooth="no" name="13" />
   <point x="-78" y="-139" type="line" smooth="no" name="13" />
   <point x="-39" y="-160" type="offcurve" name="14" />
   <point x="-15" y="-168" type="offcurve" name="14" />
   <point x="14" y="-168" type="curve" smooth="yes" name="15" />
   <point x="15" y="-168" type="offcurve" name="14" />
   <point x="15" y="-168" type="offcurve" name="14" />
   <point x="15" y="-168" type="curve" smooth="no" name="13" />
   <point x="79" y="-168" type="offcurve" name="14" />
   <point x="110" y="-128" type="offcurve" name="14" />
   <point x="110" y="-45" type="curve" smooth="yes" name="15" />
  </contour>
 </outline>
</glyph>
<glyph name="K" format="1">
 <advance width="448" />
 <unicode hex="004b" />
 <outline>
  <contour>
   <point x="90" y="0" type="line" smooth="no" name="13" />
   <point x="117" y="0" type="line" smooth="no" name="13" />
   <point x="117" y="329" type="line" smooth="no" name="13" />
   <point x="366" y="0" type="line" smooth="no" name="13" />
   <point x="398" y="0" type="line" smooth="no" name="13" />
   <point x="146" y="333" type="line" smooth="no" name="13" />
   <point x="417" y="633" type="line" smooth="no" name="13" />
   <point x="382" y="633" type="line" smooth="no" name="13" />
   <point x="117" y="338" type="line" smooth="no" name="13" />
   <point x="117" y="633" type="line" smooth="no" name="13" />
   <point x="90" y="633" type="line" smooth="no" name="13" />
  </contour>
 </outline>
</glyph>
<glyph name="L" format="1">
 <advance width="447" />
 <unicode hex="004c" />
 <outline>
  <contour>
   <point x="90" y="0" type="line" smooth="no" name="13" />
   <point x="382" y="0" type="line" smooth="no" name="13" />
   <point x="382" y="22" type="line" smooth="no" name="13" />
   <point x="117" y="22" type="line" smooth="no" name="13" />
   <point x="117" y="633" type="line" smooth="no" name="13" />
   <point x="90" y="633" type="line" smooth="no" name="13" />
  </contour>
 </outline>
</glyph>
<glyph name="M" format="1">
 <advance width="713" />
 <unicode hex="004d" />
 <outline>
  <contour>
   <point x="117" y="568" type="line" smooth="no" name="13" />
   <point x="185" y="391" type="offcurve" name="14" />
   <point x="221" y="305" type="offcurve" name="14" />
   <point x="277" y="171" type="curve" smooth="yes" name="15" />
   <point x="297" y="123" type="offcurve" name="14" />
   <point x="320" y="68" type="offcurve" name="14" />
   <point x="348" y="0" type="curve" smooth="no" name="13" />
   <point x="366" y="0" type="line" smooth="no" name="13" />
   <point x="392" y="61" type="offcurve" name="14" />
   <point x="413" y="112" type="offcurve" name="14" />
   <point x="431" y="157" type="curve" smooth="yes" name="15" />
   <point x="490" y="296" type="offcurve" name="14" />
   <point x="525" y="382" type="offcurve" name="14" />
   <point x="596" y="567" type="curve" smooth="no" name="13" />
   <point x="596" y="0" type="line" smooth="no" name="13" />
   <point x="623" y="0" type="line" smooth="no" name="13" />
   <point x="623" y="633" type="line" smooth="no" name="13" />
   <point x="595" y="633" type="line" smooth="no" name="13" />
   <point x="549" y="519" type="offcurve" name="14" />
   <point x="518" y="440" type="offcurve" name="14" />
   <point x="490" y="373" type="curve" smooth="yes" name="15" />
   <point x="447" y="265" type="offcurve" name="14" />
   <point x="415" y="186" type="offcurve" name="14" />
   <point x="357" y="33" type="curve" smooth="no" name="13" />
   <point x="298" y="189" type="offcurve" name="14" />
   <point x="264" y="272" type="offcurve" name="14" />
   <point x="223" y="375" type="curve" smooth="yes" name="15" />
   <point x="196" y="444" type="offcurve" name="14" />
   <point x="165" y="520" type="offcurve" name="14" />
   <point x="120" y="633" type="curve" smooth="no" name="13" />
   <point x="90" y="633" type="line" smooth="no" name="13" />
   <point x="90" y="0" type="line" smooth="no" name="13" />
   <point x="117" y="0" type="line" smooth="no" name="13" />
  </contour>
 </outline>
</glyph>
<glyph name="N" format="1">
 <advance width="559" />
 <unicode hex="004e" />
 <outline>
  <contour>
   <point x="117" y="0" type="line" smooth="no" name="13" />
   <point x="117" y="581" type="line" smooth="no" name="13" />
   <point x="315" y="226" type="offcurve" name="14" />
   <point x="315" y="226" type="offcurve" name="14" />
   <point x="443" y="0" type="curve" smooth="no" name="13" />
   <point x="469" y="0" type="line" smooth="no" name="13" />
   <point x="469" y="633" type="line" smooth="no" name="13" />
   <point x="442" y="633" type="line" smooth="no" name="13" />
   <point x="442" y="48" type="line" smooth="no" name="13" />
   <point x="317" y="277" type="offcurve" name="14" />
   <point x="299" y="309" type="offcurve" name="14" />
   <point x="116" y="633" type="curve" smooth="no" name="13" />
   <point x="90" y="633" type="line" smooth="no" name="13" />
   <point x="90" y="0" type="line" smooth="no" name="13" />
  </contour>
 </outline>
</glyph>
<glyph name="P" format="1">
 <advance width="489" />
 <unicode hex="0050" />
 <outline>
  <contour>
   <point x="90" y="0" type="line" smooth="no" name="13" />
   <point x="117" y="0" type="line" smooth="no" name="13" />
   <point x="117" y="291" type="line" smooth="no" name="13" />
   <point x="158" y="281" type="offcurve" name="14" />
   <point x="180" y="278" type="offcurve" name="14" />
   <point x="214" y="277" type="curve" smooth="yes" name="15" />
   <point x="215" y="277" type="offcurve" name="14" />
   <point x="216" y="277" type="offcurve" name="14" />
   <point x="217" y="277" type="curve" smooth="yes" name="15" />
   <point x="348" y="277" type="offcurve" name="14" />
   <point x="428" y="344" type="offcurve" name="14" />
   <point x="431" y="456" type="curve" smooth="no" name="13" />
   <point x="432" y="458" type="offcurve" name="14" />
   <point x="432" y="461" type="offcurve" name="14" />
   <point x="432" y="464" type="curve" smooth="yes" name="15" />
   <point x="432" y="576" type="offcurve" name="14" />
   <point x="354" y="645" type="offcurve" name="14" />
   <point x="227" y="645" type="curve" smooth="yes" name="15" />
   <point x="181" y="645" type="offcurve" name="14" />
   <point x="135" y="638" type="offcurve" name="14" />
   <point x="90" y="631" type="curve" smooth="no" name="13" />
  </contour>
  <contour>
   <point x="117" y="610" type="line" smooth="no" name="13" />
   <point x="160" y="620" type="offcurve" name="14" />
   <point x="181" y="623" type="offcurve" name="14" />
   <point x="216" y="623" type="curve" smooth="yes" name="15" />
   <point x="217" y="623" type="offcurve" name="14" />
   <point x="218" y="623" type="offcurve" name="14" />
   <point x="219" y="623" type="curve" smooth="yes" name="15" />
   <point x="340" y="623" type="offcurve" name="14" />
   <point x="405" y="567" type="offcurve" name="14" />
   <point x="405" y="464" type="curve" smooth="yes" name="15" />
   <point x="405" y="461" type="offcurve" name="14" />
   <point x="405" y="458" type="offcurve" name="14" />
   <point x="404" y="455" type="curve" smooth="no" name="13" />
   <point x="401" y="352" type="offcurve" name="14" />
   <point x="335" y="299" type="offcurve" name="14" />
   <point x="207" y="299" type="curve" smooth="yes" name="15" />
   <point x="206" y="299" type="offcurve" name="14" />
   <point x="206" y="299" type="offcurve" name="14" />
   <point x="205" y="299" type="curve" smooth="yes" name="15" />
   <point x="173" y="300" type="offcurve" name="14" />
   <point x="156" y="302" type="offcurve" name="14" />
   <point x="117" y="313" type="curve" smooth="no" name="13" />
  </contour>
 </outline>
</glyph>
<glyph name="Q" format="1">
 <advance width="623" />
 <unicode hex="0051" />
 <outline>
  <contour>
   <point x="407" y="7" type="line" smooth="no" name="13" />
   <point x="456" y="29" type="offcurve" name="14" />
   <point x="496" y="69" type="offcurve" name="14" />
   <point x="522" y="115" type="curve" smooth="yes" name="15" />
   <point x="538" y="143" type="offcurve" name="14" />
   <point x="550" y="173" type="offcurve" name="14" />
   <point x="558" y="204" type="curve" smooth="yes" name="15" />
   <point x="568" y="242" type="offcurve" name="14" />
   <point x="572" y="280" type="offcurve" name="14" />
   <point x="573" y="319" type="curve" smooth="yes" name="15" />
   <point x="573" y="484" type="offcurve" name="14" />
   <point x="485" y="645" type="offcurve" name="14" />
   <point x="314" y="645" type="curve" smooth="yes" name="15" />
   <point x="313" y="645" type="offcurve" name="14" />
   <point x="312" y="645" type="offcurve" name="14" />
   <point x="312" y="645" type="curve" smooth="yes" name="15" />
   <point x="135" y="643" type="offcurve" name="14" />
   <point x="50" y="482" type="offcurve" name="14" />
   <point x="50" y="319" type="curve" smooth="yes" name="15" />
   <point x="50" y="152" type="offcurve" name="14" />
   <point x="143" y="-12" type="offcurve" name="14" />
   <point x="312" y="-12" type="curve" smooth="yes" name="15" />
   <point x="337" y="-11" type="offcurve" name="14" />
   <point x="362" y="-8" type="offcurve" name="14" />
   <point x="387" y="0" type="curve" smooth="no" name="13" />
   <point x="499" y="-109" type="line" smooth="no" name="13" />
   <point x="532" y="-109" type="line" smooth="no" name="13" />
  </contour>
  <contour>
   <point x="77" y="320" type="curve" smooth="no" name="13" />
   <point x="77" y="501" type="offcurve" name="14" />
   <point x="171" y="622" type="offcurve" name="14" />
   <point x="312" y="623" type="curve" smooth="yes" name="15" />
   <point x="312" y="623" type="offcurve" name="14" />
   <point x="313" y="623" type="offcurve" name="14" />
   <point x="313" y="623" type="curve" smooth="yes" name="15" />
   <point x="455" y="623" type="offcurve" name="14" />
   <point x="545" y="505" type="offcurve" name="14" />
   <point x="546" y="319" type="curve" smooth="yes" name="15" />
   <point x="546" y="319" type="offcurve" name="14" />
   <point x="546" y="318" type="offcurve" name="14" />
   <point x="546" y="318" type="curve" smooth="yes" name="15" />
   <point x="546" y="134" type="offcurve" name="14" />
   <point x="452" y="10" type="offcurve" name="14" />
   <point x="313" y="10" type="curve" smooth="yes" name="15" />
   <point x="312" y="10" type="offcurve" name="14" />
   <point x="312" y="10" type="offcurve" name="14" />
   <point x="312" y="10" type="curve" smooth="no" name="13" />
   <point x="173" y="11" type="offcurve" name="14" />
   <point x="77" y="137" type="offcurve" name="14" />
   <point x="77" y="319" type="curve" smooth="yes" name="15" />
   <point x="77" y="320" type="offcurve" name="14" />
   <point x="77" y="320" type="offcurve" name="14" />
  </contour>
 </outline>
</glyph>
<glyph name="R" format="1">
 <advance width="503" />
 <unicode hex="0052" />
 <outline>
  <contour>
   <point x="299" y="290" type="line" smooth="no" name="13" />
   <point x="370" y="306" type="offcurve" name="14" />
   <point x="431" y="359" type="offcurve" name="14" />
   <point x="431" y="456" type="curve" smooth="yes" name="15" />
   <point x="431" y="574" type="offcurve" name="14" />
   <point x="356" y="645" type="offcurve" name="14" />
   <point x="224" y="645" type="curve" smooth="yes" name="15" />
   <point x="188" y="645" type="offcurve" name="14" />
   <point x="155" y="642" type="offcurve" name="14" />
   <point x="90" y="633" type="curve" smooth="no" name="13" />
   <point x="90" y="0" type="line" smooth="no" name="13" />
   <point x="117" y="0" type="line" smooth="no" name="13" />
   <point x="117" y="289" type="line" smooth="no" name="13" />
   <point x="152" y="280" type="offcurve" name="14" />
   <point x="180" y="277" type="offcurve" name="14" />
   <point x="203" y="277" type="curve" smooth="yes" name="15" />
   <point x="223" y="277" type="offcurve" name="14" />
   <point x="245" y="279" type="offcurve" name="14" />
   <point x="272" y="284" type="curve" smooth="no" name="13" />
   <point x="401" y="0" type="line" smooth="no" name="13" />
   <point x="431" y="0" type="line" smooth="no" name="13" />
  </contour>
  <contour>
   <point x="117" y="613" type="line" smooth="no" name="13" />
   <point x="161" y="621" type="offcurve" name="14" />
   <point x="182" y="623" type="offcurve" name="14" />
   <point x="219" y="623" type="curve" smooth="yes" name="15" />
   <point x="343" y="623" type="offcurve" name="14" />
   <point x="404" y="562" type="offcurve" name="14" />
   <point x="404" y="455" type="curve" smooth="yes" name="15" />
   <point x="404" y="351" type="offcurve" name="14" />
   <point x="332" y="299" type="offcurve" name="14" />
   <point x="205" y="299" type="curve" smooth="yes" name="15" />
   <point x="173" y="299" type="offcurve" name="14" />
   <point x="156" y="302" type="offcurve" name="14" />
   <point x="117" y="312" type="curve" smooth="no" name="13" />
  </contour>
 </outline>
</glyph>
<glyph name="S" format="1">
 <advance width="458" />
 <unicode hex="0053" />
 <outline>
  <contour>
   <point x="50" y="44" type="line" smooth="no" name="13" />
   <point x="115" y="3" type="offcurve" name="14" />
   <point x="161" y="-12" type="offcurve" name="14" />
   <point x="222" y="-12" type="curve" smooth="yes" name="15" />
   <point x="225" y="-12" type="offcurve" name="14" />
   <point x="227" y="-12" type="offcurve" name="14" />
   <point x="229" y="-12" type="curve" smooth="yes" name="15" />
   <point x="337" y="-10" type="offcurve" name="14" />
   <point x="407" y="52" type="offcurve" name="14" />
   <point x="415" y="154" type="curve" smooth="yes" name="15" />
   <point x="416" y="161" type="offcurve" name="14" />
   <point x="416" y="168" type="offcurve" name="14" />
   <point x="416" y="175" type="curve" smooth="yes" name="15" />
   <point x="416" y="265" type="offcurve" name="14" />
   <point x="364" y="315" type="offcurve" name="14" />
   <point x="227" y="360" type="curve" smooth="yes" name="15" />
   <point x="116" y="396" type="offcurve" name="14" />
   <point x="75" y="431" type="offcurve" name="14" />
   <point x="72" y="491" type="curve" smooth="yes" name="15" />
   <point x="72" y="492" type="offcurve" name="14" />
   <point x="72" y="494" type="offcurve" name="14" />
   <point x="72" y="496" type="curve" smooth="yes" name="15" />
   <point x="72" y="567" type="offcurve" name="14" />
   <point x="134" y="614" type="offcurve" name="14" />
   <point x="230" y="615" type="curve" smooth="yes" name="15" />
   <point x="233" y="615" type="offcurve" name="14" />
   <point x="235" y="615" type="offcurve" name="14" />
   <point x="237" y="615" type="curve" smooth="yes" name="15" />
   <point x="285" y="615" type="offcurve" name="14" />
   <point x="314" y="607" type="offcurve" name="14" />
   <point x="370" y="580" type="curve" smooth="no" name="13" />
   <point x="385" y="601" type="line" smooth="no" name="13" />
   <point x="328" y="634" type="offcurve" name="14" />
   <point x="288" y="645" type="offcurve" name="14" />
   <point x="229" y="645" type="curve" smooth="yes" name="15" />
   <point x="120" y="645" type="offcurve" name="14" />
   <point x="45" y="584" type="offcurve" name="14" />
   <point x="45" y="495" type="curve" smooth="yes" name="15" />
   <point x="45" y="392" type="offcurve" name="14" />
   <point x="142" y="356" type="offcurve" name="14" />
   <point x="225" y="329" type="curve" smooth="yes" name="15" />
   <point x="342" y="291" type="offcurve" name="14" />
   <point x="389" y="246" type="offcurve" name="14" />
   <point x="389" y="170" type="curve" smooth="yes" name="15" />
   <point x="389" y="164" type="offcurve" name="14" />
   <point x="389" y="158" type="offcurve" name="14" />
   <point x="388" y="152" type="curve" smooth="yes" name="15" />
   <point x="380" y="67" type="offcurve" name="14" />
   <point x="320" y="18" type="offcurve" name="14" />
   <point x="223" y="18" type="curve" smooth="yes" name="15" />
   <point x="222" y="18" type="offcurve" name="14" />
   <point x="221" y="18" type="offcurve" name="14" />
   <point x="221" y="18" type="curve" smooth="yes" name="15" />
   <point x="173" y="18" type="offcurve" name="14" />
   <point x="140" y="27" type="offcurve" name="14" />
   <point x="62" y="63" type="curve" smooth="no" name="13" />
  </contour>
 </outline>
</glyph>
<glyph name="T" format="1">
 <advance width="485" />
 <unicode hex="0054" />
 <outline>
  <contour>
   <point x="25" y="611" type="line" smooth="no" name="13" />
   <point x="228" y="611" type="line" smooth="no" name="13" />
   <point x="228" y="0" type="line" smooth="no" name="13" />
   <point x="255" y="0" type="line" smooth="no" name="13" />
   <point x="255" y="611" type="line" smooth="no" name="13" />
   <point x="474" y="611" type="line" smooth="no" name="13" />
   <point x="474" y="633" type="line" smooth="no" name="13" />
   <point x="25" y="633" type="line" smooth="no" name="13" />
  </contour>
 </outline>
</glyph>
<glyph name="U" format="1">
 <advance width="605" />
 <unicode hex="0055" />
 <outline>
  <contour>
   <point x="90" y="634" type="line" smooth="no" name="13" />
   <point x="90" y="254" type="line" smooth="yes" name="15" />
   <point x="90" y="79" type="offcurve" name="14" />
   <point x="162" y="-12" type="offcurve" name="14" />
   <point x="304" y="-12" type="curve" smooth="yes" name="15" />
   <point x="446" y="-12" type="offcurve" name="14" />
   <point x="516" y="79" type="offcurve" name="14" />
   <point x="516" y="253" type="curve" smooth="yes" name="15" />
   <point x="516" y="633" type="line" smooth="no" name="13" />
   <point x="489" y="633" type="line" smooth="no" name="13" />
   <point x="489" y="243" type="line" smooth="yes" name="15" />
   <point x="489" y="91" type="offcurve" name="14" />
   <point x="424" y="10" type="offcurve" name="14" />
   <point x="304" y="10" type="curve" smooth="yes" name="15" />
   <point x="183" y="10" type="offcurve" name="14" />
   <point x="117" y="91" type="offcurve" name="14" />
   <point x="117" y="243" type="curve" smooth="yes" name="15" />
   <point x="117" y="633" type="line" smooth="no" name="13" />
  </contour>
 </outline>
</glyph>
<glyph name="V" format="1">
 <advance width="516" />
 <unicode hex="0056" />
 <outline>
  <contour>
   <point x="50" y="633" type="line" smooth="no" name="13" />
   <point x="21" y="633" type="line" smooth="no" name="13" />
   <point x="247" y="0" type="line" smooth="no" name="13" />
   <point x="268" y="0" type="line" smooth="no" name="13" />
   <point x="494" y="633" type="line" smooth="no" name="13" />
   <point x="464" y="633" type="line" smooth="no" name="13" />
   <point x="258" y="35" type="line" smooth="no" name="13" />
  </contour>
 </outline>
</glyph>
<glyph name="W" format="1">
 <advance width="910" />
 <unicode hex="0057" />
 <outline>
  <contour>
   <point x="438" y="633" type="line" smooth="no" name="13" />
   <point x="267" y="32" type="line" smooth="no" name="13" />
   <point x="50" y="633" type="line" smooth="no" name="13" />
   <point x="21" y="633" type="line" smooth="no" name="13" />
   <point x="254" y="0" type="line" smooth="no" name="13" />
   <point x="281" y="0" type="line" smooth="no" name="13" />
   <point x="455" y="603" type="line" smooth="no" name="13" />
   <point x="629" y="0" type="line" smooth="no" name="13" />
   <point x="658" y="0" type="line" smooth="no" name="13" />
   <point x="888" y="633" type="line" smooth="no" name="13" />
   <point x="859" y="633" type="line" smooth="no" name="13" />
   <point x="645" y="31" type="line" smooth="no" name="13" />
   <point x="470" y="633" type="line" smooth="no" name="13" />
  </contour>
 </outline>
</glyph>
<glyph name="X" format="1">
 <advance width="518" />
 <unicode hex="0058" />
 <outline>
  <contour>
   <point x="266" y="353" type="line" smooth="no" name="13" />
   <point x="86" y="633" type="line" smooth="no" name="13" />
   <point x="58" y="633" type="line" smooth="no" name="13" />
   <point x="250" y="331" type="line" smooth="no" name="13" />
   <point x="19" y="0" type="line" smooth="no" name="13" />
   <point x="49" y="0" type="line" smooth="no" name="13" />
   <point x="267" y="311" type="line" smooth="no" name="13" />
   <point x="466" y="0" type="line" smooth="no" name="13" />
   <point x="498" y="0" type="line" smooth="no" name="13" />
   <point x="280" y="331" type="line" smooth="no" name="13" />
   <point x="484" y="633" type="line" smooth="no" name="13" />
   <point x="454" y="633" type="line" smooth="no" name="13" />
  </contour>
 </outline>
</glyph>
<glyph name="Y" format="1">
 <advance width="486" />
 <unicode hex="0059" />
 <outline>
  <contour>
   <point x="22" y="633" type="line" smooth="no" name="13" />
   <point x="228" y="253" type="line" smooth="no" name="13" />
   <point x="228" y="0" type="line" smooth="no" name="13" />
   <point x="255" y="0" type="line" smooth="no" name="13" />
   <point x="255" y="254" type="line" smooth="no" name="13" />
   <point x="463" y="633" type="line" smooth="no" name="13" />
   <point x="434" y="633" type="line" smooth="no" name="13" />
   <point x="242" y="279" type="line" smooth="no" name="13" />
   <point x="51" y="633" type="line" smooth="no" name="13" />
  </contour>
 </outline>
</glyph>
<glyph name="Z" format="1">
 <advance width="441" />
 <unicode hex="005a" />
 <outline>
  <contour>
   <point x="408" y="612" type="line" smooth="no" name="13" />
   <point x="408" y="633" type="line" smooth="no" name="13" />
   <point x="36" y="633" type="line" smooth="no" name="13" />
   <point x="36" y="611" type="line" smooth="no" name="13" />
   <point x="379" y="611" type="line" smooth="no" name="13" />
   <point x="27" y="19" type="line" smooth="no" name="13" />
   <point x="27" y="0" type="line" smooth="no" name="13" />
   <point x="413" y="0" type="line" smooth="no" name="13" />
   <point x="413" y="22" type="line" smooth="no" name="13" />
   <point x="58" y="22" type="line" smooth="no" name="13" />
  </contour>
 </outline>
</glyph>
<glyph name="bracketleft" format="1">
 <advance width="349" />
 <unicode hex="005b" />
 <outline>
  <contour>
   <point x="246" y="-140" type="line" smooth="no" name="13" />
   <point x="246" y="-118" type="line" smooth="no" name="13" />
   <point x="118" y="-118" type="line" smooth="no" name="13" />
   <point x="118" y="623" type="line" smooth="no" name="13" />
   <point x="246" y="623" type="line" smooth="no" name="13" />
   <point x="246" y="645" type="line" smooth="no" name="13" />
   <point x="91" y="645" type="line" smooth="no" name="13" />
   <point x="91" y="-140" type="line" smooth="no" name="13" />
  </contour>
 </outline>
</glyph>
<glyph name="backslash" format="1">
 <advance width="327" />
 <unicode hex="005c" />
 <outline>
  <contour>
   <point x="285" y="-30" type="line" smooth="no" name="13" />
   <point x="315" y="-30" type="line" smooth="no" name="13" />
   <point x="-6" y="633" type="line" smooth="no" name="13" />
   <point x="-35" y="633" type="line" smooth="no" name="13" />
  </contour>
 </outline>
</glyph>
<glyph name="bracketright" format="1">
 <advance width="349" />
 <unicode hex="005d" />
 <outline>
  <contour>
   <point x="104" y="645" type="line" smooth="no" name="13" />
   <point x="104" y="623" type="line" smooth="no" name="13" />
   <point x="232" y="623" type="line" smooth="no" name="13" />
   <point x="232" y="-118" type="line" smooth="no" name="13" />
   <point x="104" y="-118" type="line" smooth="no" name="13" />
   <point x="104" y="-140" type="line" smooth="no" name="13" />
   <point x="259" y="-140" type="line" smooth="no" name="13" />
   <point x="259" y="645" type="line" smooth="no" name="13" />
  </contour>
 </outline>
</glyph>
<glyph name="asciicircum" format="1">
 <advance width="363" />
 <unicode hex="005e" />
 <outline>
  <contour>
   <point x="164" y="609" type="line" smooth="no" name="13" />
   <point x="34" y="329" type="line" smooth="no" name="13" />
   <point x="61" y="329" type="line" smooth="no" name="13" />
   <point x="182" y="588" type="line" smooth="no" name="13" />
   <point x="301" y="329" type="line" smooth="no" name="13" />
   <point x="329" y="329" type="line" smooth="no" name="13" />
   <point x="198" y="609" type="line" smooth="no" name="13" />
  </contour>
 </outline>
</glyph>
<glyph name="underscore" format="1">
 <advance width="373" />
 <unicode hex="005f" />
 <outline>
  <contour>
   <point x="368" y="-52" type="line" smooth="no" name="13" />
   <point x="368" y="-30" type="line" smooth="no" name="13" />
   <point x="5" y="-30" type="line" smooth="no" name="13" />
   <point x="5" y="-52" type="line" smooth="no" name="13" />
  </contour>
 </outline>
</glyph>
<glyph name="grave" format="1">
 <advance width="127" />
 <unicode hex="0060" />
 <outline>
  <contour>
   <point x="90" y="565" type="line" smooth="no" name="13" />
   <point x="106" y="565" type="line" smooth="no" name="13" />
   <point x="61" y="655" type="line" smooth="no" name="13" />
   <point x="23" y="655" type="line" smooth="no" name="13" />
  </contour>
 </outline>
</glyph>
<glyph name="b" format="1">
 <advance width="504" />
 <unicode hex="0062" />
 <outline>
  <contour>
   <point x="97" y="0" type="line" smooth="no" name="13" />
   <point x="103" y="52" type="line" smooth="no" name="13" />
   <point x="144" y="16" type="offcurve" name="14" />
   <point x="193" y="-6" type="offcurve" name="14" />
   <point x="243" y="-6" type="curve" smooth="yes" name="15" />
   <point x="375" y="-6" type="offcurve" name="14" />
   <point x="453" y="91" type="offcurve" name="14" />
   <point x="453" y="236" type="curve" smooth="yes" name="15" />
   <point x="453" y="378" type="offcurve" name="14" />
   <point x="376" y="465" type="offcurve" name="14" />
   <point x="250" y="465" type="curve" smooth="yes" name="15" />
   <point x="184" y="465" type="offcurve" name="14" />
   <point x="141" y="438" type="offcurve" name="14" />
   <point x="105" y="403" type="curve" smooth="no" name="13" />
   <point x="105" y="642" type="line" smooth="no" name="13" />
   <point x="78" y="627" type="line" smooth="no" name="13" />
   <point x="78" y="0" type="line" smooth="no" name="13" />
  </contour>
  <contour>
   <point x="105" y="81" type="curve" smooth="no" name="13" />
   <point x="105" y="375" type="line" smooth="no" name="13" />
   <point x="152" y="424" type="offcurve" name="14" />
   <point x="195" y="443" type="offcurve" name="14" />
   <point x="250" y="443" type="curve" smooth="yes" name="15" />
   <point x="360" y="443" type="offcurve" name="14" />
   <point x="426" y="364" type="offcurve" name="14" />
   <point x="426" y="232" type="curve" smooth="yes" name="15" />
   <point x="426" y="102" type="offcurve" name="14" />
   <point x="359" y="16" type="offcurve" name="14" />
   <point x="245" y="16" type="curve" smooth="yes" name="15" />
   <point x="194" y="16" type="offcurve" name="14" />
   <point x="154" y="31" type="offcurve" name="14" />
  </contour>
 </outline>
</glyph>
<glyph name="c" format="1">
 <advance width="450" />
 <unicode hex="0063" />
 <outline>
  <contour>
   <point x="394" y="430" type="line" smooth="no" name="13" />
   <point x="362" y="447" type="offcurve" name="14" />
   <point x="325" y="466" type="offcurve" name="14" />
   <point x="263" y="466" type="curve" smooth="yes" name="15" />
   <point x="140" y="466" type="offcurve" name="14" />
   <point x="48" y="361" type="offcurve" name="14" />
   <point x="48" y="225" type="curve" smooth="yes" name="15" />
   <point x="48" y="84" type="offcurve" name="14" />
   <point x="139" y="-12" type="offcurve" name="14" />
   <point x="269" y="-12" type="curve" smooth="yes" name="15" />
   <point x="322" y="-12" type="offcurve" name="14" />
   <point x="361" y="-2" type="offcurve" name="14" />
   <point x="408" y="26" type="curve" smooth="no" name="13" />
   <point x="396" y="46" type="line" smooth="no" name="13" />
   <point x="342" y="18" type="offcurve" name="14" />
   <point x="316" y="10" type="offcurve" name="14" />
   <point x="274" y="10" type="curve" smooth="yes" name="15" />
   <point x="155" y="10" type="offcurve" name="14" />
   <point x="75" y="95" type="offcurve" name="14" />
   <point x="75" y="222" type="curve" smooth="yes" name="15" />
   <point x="75" y="348" type="offcurve" name="14" />
   <point x="155" y="444" type="offcurve" name="14" />
   <point x="259" y="444" type="curve" smooth="yes" name="15" />
   <point x="298" y="444" type="offcurve" name="14" />
   <point x="336" y="436" type="offcurve" name="14" />
   <point x="383" y="409" type="curve" smooth="no" name="13" />
  </contour>
 </outline>
</glyph>
<glyph name="d" format="1">
 <advance width="502" />
 <unicode hex="0064" />
 <outline>
  <contour>
   <point x="406" y="0" type="line" smooth="no" name="13" />
   <point x="424" y="0" type="line" smooth="no" name="13" />
   <point x="424" y="643" type="line" smooth="no" name="13" />
   <point x="397" y="630" type="line" smooth="no" name="13" />
   <point x="397" y="405" type="line" smooth="no" name="13" />
   <point x="365" y="439" type="offcurve" name="14" />
   <point x="319" y="466" type="offcurve" name="14" />
   <point x="258" y="466" type="curve" smooth="yes" name="15" />
   <point x="132" y="466" type="offcurve" name="14" />
   <point x="48" y="377" type="offcurve" name="14" />
   <point x="48" y="236" type="curve" smooth="yes" name="15" />
   <point x="48" y="85" type="offcurve" name="14" />
   <point x="124" y="-12" type="offcurve" name="14" />
   <point x="257" y="-12" type="curve" smooth="yes" name="15" />
   <point x="312" y="-12" type="offcurve" name="14" />
   <point x="357" y="8" type="offcurve" name="14" />
   <point x="399" y="52" type="curve" smooth="no" name="13" />
  </contour>
  <contour>
   <point x="397" y="82" type="line" smooth="no" name="13" />
   <point x="350" y="29" type="offcurve" name="14" />
   <point x="309" y="10" type="offcurve" name="14" />
   <point x="257" y="10" type="curve" smooth="yes" name="15" />
   <point x="145" y="10" type="offcurve" name="14" />
   <point x="75" y="93" type="offcurve" name="14" />
   <point x="75" y="226" type="curve" smooth="yes" name="15" />
   <point x="75" y="359" type="offcurve" name="14" />
   <point x="146" y="444" type="offcurve" name="14" />
   <point x="258" y="444" type="curve" smooth="yes" name="15" />
   <point x="310" y="444" type="offcurve" name="14" />
   <point x="351" y="424" type="offcurve" name="14" />
   <point x="397" y="374" type="curve" smooth="no" name="13" />
  </contour>
 </outline>
</glyph>
<glyph name="g" format="1">
 <advance width="517" />
 <unicode hex="0067" />
 <outline>
  <contour>
   <point x="411" y="408" type="line" smooth="no" name="13" />
   <point x="358" y="453" type="offcurve" name="14" />
   <point x="328" y="466" type="offcurve" name="14" />
   <point x="276" y="466" type="curve" smooth="yes" name="15" />
   <point x="150" y="466" type="offcurve" name="14" />
   <point x="63" y="367" type="offcurve" name="14" />
   <point x="63" y="227" type="curve" smooth="yes" name="15" />
   <point x="63" y="88" type="offcurve" name="14" />
   <point x="146" y="-12" type="offcurve" name="14" />
   <point x="267" y="-12" type="curve" smooth="yes" name="15" />
   <point x="320" y="-12" type="offcurve" name="14" />
   <point x="359" y="0" type="offcurve" name="14" />
   <point x="412" y="42" type="curve" smooth="no" name="13" />
   <point x="412" y="24" type="line" smooth="yes" name="15" />
   <point x="412" y="-100" type="offcurve" name="14" />
   <point x="361" y="-169" type="offcurve" name="14" />
   <point x="254" y="-169" type="curve" smooth="yes" name="15" />
   <point x="205" y="-169" type="offcurve" name="14" />
   <point x="164" y="-154" type="offcurve" name="14" />
   <point x="116" y="-114" type="curve" smooth="no" name="13" />
   <point x="100" y="-134" type="line" smooth="no" name="13" />
   <point x="159" y="-178" type="offcurve" name="14" />
   <point x="197" y="-191" type="offcurve" name="14" />
   <point x="253" y="-191" type="curve" smooth="yes" name="15" />
   <point x="375" y="-191" type="offcurve" name="14" />
   <point x="439" y="-115" type="offcurve" name="14" />
   <point x="439" y="24" type="curve" smooth="yes" name="15" />
   <point x="439" y="454" type="line" smooth="no" name="13" />
   <point x="419" y="454" type="line" smooth="no" name="13" />
  </contour>
  <contour>
   <point x="412" y="74" type="line" smooth="no" name="13" />
   <point x="369" y="29" type="offcurve" name="14" />
   <point x="323" y="10" type="offcurve" name="14" />
   <point x="273" y="10" type="curve" smooth="yes" name="15" />
   <point x="163" y="10" type="offcurve" name="14" />
   <point x="90" y="98" type="offcurve" name="14" />
   <point x="90" y="225" type="curve" smooth="yes" name="15" />
   <point x="90" y="354" type="offcurve" name="14" />
   <point x="163" y="444" type="offcurve" name="14" />
   <point x="271" y="444" type="curve" smooth="yes" name="15" />
   <point x="326" y="444" type="offcurve" name="14" />
   <point x="365" y="424" type="offcurve" name="14" />
   <point x="412" y="373" type="curve" smooth="no" name="13" />
  </contour>
 </outline>
</glyph>
<glyph name="h" format="1">
 <advance width="508" />
 <unicode hex="0068" />
 <outline>
  <contour>
   <point x="435" y="0" type="line" smooth="no" name="13" />
   <point x="435" y="273" type="line" smooth="yes" name="15" />
   <point x="435" y="394" type="offcurve" name="14" />
   <point x="368" y="466" type="offcurve" name="14" />
   <point x="256" y="466" type="curve" smooth="yes" name="15" />
   <point x="199" y="466" type="offcurve" name="14" />
   <point x="161" y="446" type="offcurve" name="14" />
   <point x="105" y="397" type="curve" smooth="no" name="13" />
   <point x="105" y="643" type="line" smooth="no" name="13" />
   <point x="78" y="630" type="line" smooth="no" name="13" />
   <point x="78" y="0" type="line" smooth="no" name="13" />
   <point x="105" y="0" type="line" smooth="no" name="13" />
   <point x="105" y="362" type="line" smooth="no" name="13" />
   <point x="156" y="422" type="offcurve" name="14" />
   <point x="202" y="444" type="offcurve" name="14" />
   <point x="255" y="444" type="curve" smooth="yes" name="15" />
   <point x="352" y="444" type="offcurve" name="14" />
   <point x="408" y="382" type="offcurve" name="14" />
   <point x="408" y="268" type="curve" smooth="yes" name="15" />
   <point x="408" y="0" type="line" smooth="no" name="13" />
  </contour>
 </outline>
</glyph>
<glyph name="i" format="1">
 <advance width="203" />
 <unicode hex="0069" />
 <outline>
  <contour>
   <point x="113" y="454" type="line" smooth="no" name="13" />
   <point x="86" y="454" type="line" smooth="no" name="13" />
   <point x="86" y="0" type="line" smooth="no" name="13" />
   <point x="113" y="0" type="line" smooth="no" name="13" />
  </contour>
  <contour>
   <point x="74" y="617" type="curve" smooth="yes" name="15" />
   <point x="74" y="603" type="offcurve" name="14" />
   <point x="86" y="590" type="offcurve" name="14" />
   <point x="102" y="590" type="curve" smooth="yes" name="15" />
   <point x="117" y="590" type="offcurve" name="14" />
   <point x="129" y="603" type="offcurve" name="14" />
   <point x="129" y="617" type="curve" smooth="yes" name="15" />
   <point x="129" y="633" type="offcurve" name="14" />
   <point x="117" y="645" type="offcurve" name="14" />
   <point x="102" y="645" type="curve" smooth="yes" name="15" />
   <point x="86" y="645" type="offcurve" name="14" />
   <point x="74" y="633" type="offcurve" name="14" />
  </contour>
 </outline>
</glyph>
<glyph name="j" format="1">
 <advance width="203" />
 <unicode hex="006a" />
 <outline>
  <contour>
   <point x="110" y="454" type="line" smooth="no" name="13" />
   <point x="83" y="454" type="line" smooth="no" name="13" />
   <point x="83" y="-73" type="line" smooth="yes" name="15" />
   <point x="83" y="-136" type="offcurve" name="14" />
   <point x="57" y="-169" type="offcurve" name="14" />
   <point x="6" y="-169" type="curve" smooth="yes" name="15" />
   <point x="5" y="-169" type="offcurve" name="14" />
   <point x="5" y="-169" type="offcurve" name="14" />
   <point x="4" y="-169" type="curve" smooth="yes" name="15" />
   <point x="-15" y="-169" type="offcurve" name="14" />
   <point x="-27" y="-165" type="offcurve" name="14" />
   <point x="-51" y="-151" type="curve" smooth="no" name="13" />
   <point x="-61" y="-171" type="line" smooth="no" name="13" />
   <point x="-31" y="-187" type="offcurve" name="14" />
   <point x="-17" y="-191" type="offcurve" name="14" />
   <point x="8" y="-191" type="curve" smooth="yes" name="15" />
   <point x="8" y="-191" type="offcurve" name="14" />
   <point x="9" y="-191" type="offcurve" name="14" />
   <point x="9" y="-191" type="curve" smooth="yes" name="15" />
   <point x="78" y="-191" type="offcurve" name="14" />
   <point x="110" y="-152" type="offcurve" name="14" />
   <point x="110" y="-70" type="curve" smooth="yes" name="15" />
  </contour>
  <contour>
   <point x="72" y="617" type="curve" smooth="yes" name="15" />
   <point x="72" y="603" type="offcurve" name="14" />
   <point x="84" y="590" type="offcurve" name="14" />
   <point x="100" y="590" type="curve" smooth="yes" name="15" />
   <point x="115" y="590" type="offcurve" name="14" />
   <point x="127" y="603" type="offcurve" name="14" />
   <point x="127" y="617" type="curve" smooth="yes" name="15" />
   <point x="127" y="633" type="offcurve" name="14" />
   <point x="115" y="645" type="offcurve" name="14" />
   <point x="100" y="645" type="curve" smooth="yes" name="15" />
   <point x="84" y="645" type="offcurve" name="14" />
   <point x="72" y="633" type="offcurve" name="14" />
  </contour>
 </outline>
</glyph>
<glyph name="k" format="1">
 <advance width="426" />
 <unicode hex="006b" />
 <outline>
  <contour>
   <point x="105" y="279" type="line" smooth="no" name="13" />
   <point x="105" y="645" type="line" smooth="no" name="13" />
   <point x="78" y="630" type="line" smooth="no" name="13" />
   <point x="78" y="0" type="line" smooth="no" name="13" />
   <point x="105" y="0" type="line" smooth="no" name="13" />
   <point x="105" y="267" type="line" smooth="no" name="13" />
   <point x="354" y="0" type="line" smooth="no" name="13" />
   <point x="391" y="0" type="line" smooth="no" name="13" />
   <point x="133" y="273" type="line" smooth="no" name="13" />
   <point x="327" y="454" type="line" smooth="no" name="13" />
   <point x="289" y="454" type="line" smooth="no" name="13" />
  </contour>
 </outline>
</glyph>
<glyph name="l" format="1">
 <advance width="187" />
 <unicode hex="006c" />
 <outline>
  <contour>
   <point x="105" y="645" type="line" smooth="no" name="13" />
   <point x="78" y="630" type="line" smooth="no" name="13" />
   <point x="78" y="0" type="line" smooth="no" name="13" />
   <point x="105" y="0" type="line" smooth="no" name="13" />
  </contour>
 </outline>
</glyph>
<glyph name="m" format="1">
 <advance width="780" />
 <unicode hex="006d" />
 <outline>
  <contour>
   <point x="707" y="0" type="line" smooth="no" name="13" />
   <point x="707" y="272" type="line" smooth="yes" name="15" />
   <point x="707" y="397" type="offcurve" name="14" />
   <point x="647" y="465" type="offcurve" name="14" />
   <point x="535" y="466" type="curve" smooth="yes" name="15" />
   <point x="534" y="466" type="offcurve" name="14" />
   <point x="533" y="466" type="offcurve" name="14" />
   <point x="532" y="466" type="curve" smooth="yes" name="15" />
   <point x="480" y="466" type="offcurve" name="14" />
   <point x="446" y="453" type="offcurve" name="14" />
   <point x="379" y="409" type="curve" smooth="no" name="13" />
   <point x="338" y="453" type="offcurve" name="14" />
   <point x="309" y="466" type="offcurve" name="14" />
   <point x="253" y="466" type="curve" smooth="yes" name="15" />
   <point x="253" y="466" type="offcurve" name="14" />
   <point x="252" y="466" type="offcurve" name="14" />
   <point x="252" y="466" type="curve" smooth="yes" name="15" />
   <point x="199" y="466" type="offcurve" name="14" />
   <point x="170" y="453" type="offcurve" name="14" />
   <point x="105" y="402" type="curve" smooth="no" name="13" />
   <point x="98" y="454" type="line" smooth="no" name="13" />
   <point x="78" y="454" type="line" smooth="no" name="13" />
   <point x="78" y="0" type="line" smooth="no" name="13" />
   <point x="105" y="0" type="line" smooth="no" name="13" />
   <point x="105" y="366" type="line" smooth="no" name="13" />
   <point x="163" y="424" type="offcurve" name="14" />
   <point x="200" y="444" type="offcurve" name="14" />
   <point x="250" y="444" type="curve" smooth="yes" name="15" />
   <point x="252" y="444" type="offcurve" name="14" />
   <point x="253" y="444" type="offcurve" name="14" />
   <point x="255" y="444" type="curve" smooth="yes" name="15" />
   <point x="338" y="442" type="offcurve" name="14" />
   <point x="384" y="381" type="offcurve" name="14" />
   <point x="384" y="272" type="curve" smooth="yes" name="15" />
   <point x="384" y="0" type="line" smooth="no" name="13" />
   <point x="411" y="0" type="line" smooth="no" name="13" />
   <point x="411" y="273" type="line" smooth="yes" name="15" />
   <point x="411" y="320" type="offcurve" name="14" />
   <point x="406" y="346" type="offcurve" name="14" />
   <point x="391" y="386" type="curve" smooth="no" name="13" />
   <point x="450" y="430" type="offcurve" name="14" />
   <point x="483" y="444" type="offcurve" name="14" />
   <point x="531" y="444" type="curve" smooth="yes" name="15" />
   <point x="533" y="444" type="offcurve" name="14" />
   <point x="535" y="444" type="offcurve" name="14" />
   <point x="536" y="444" type="curve" smooth="yes" name="15" />
   <point x="628" y="442" type="offcurve" name="14" />
   <point x="680" y="381" type="offcurve" name="14" />
   <point x="680" y="275" type="curve" smooth="yes" name="15" />
   <point x="680" y="0" type="line" smooth="no" name="13" />
  </contour>
 </outline>
</glyph>
<glyph name="n" format="1">
 <advance width="508" />
 <unicode hex="006e" />
 <outline>
  <contour>
   <point x="435" y="0" type="line" smooth="no" name="13" />
   <point x="435" y="273" type="line" smooth="yes" name="15" />
   <point x="435" y="399" type="offcurve" name="14" />
   <point x="376" y="466" type="offcurve" name="14" />
   <point x="262" y="466" type="curve" smooth="yes" name="15" />
   <point x="200" y="466" type="offcurve" name="14" />
   <point x="158" y="446" type="offcurve" name="14" />
   <point x="105" y="396" type="curve" smooth="no" name="13" />
   <point x="98" y="454" type="line" smooth="no" name="13" />
   <point x="78" y="454" type="line" smooth="no" name="13" />
   <point x="78" y="0" type="line" smooth="no" name="13" />
   <point x="105" y="0" type="line" smooth="no" name="13" />
   <point x="105" y="360" type="line" smooth="no" name="13" />
   <point x="157" y="421" type="offcurve" name="14" />
   <point x="196" y="444" type="offcurve" name="14" />
   <point x="258" y="444" type="curve" smooth="yes" name="15" />
   <point x="356" y="444" type="offcurve" name="14" />
   <point x="408" y="384" type="offcurve" name="14" />
   <point x="408" y="268" type="curve" smooth="yes" name="15" />
   <point x="408" y="0" type="line" smooth="no" name="13" />
  </contour>
 </outline>
</glyph>
<glyph name="p" format="1">
 <advance width="523" />
 <unicode hex="0070" />
 <outline>
  <contour>
   <point x="78" y="454" type="line" smooth="no" name="13" />
   <point x="78" y="-188" type="line" smooth="no" name="13" />
   <point x="105" y="-188" type="line" smooth="no" name="13" />
   <point x="105" y="53" type="line" smooth="no" name="13" />
   <point x="165" y="2" type="offcurve" name="14" />
   <point x="206" y="-12" type="offcurve" name="14" />
   <point x="263" y="-12" type="curve" smooth="yes" name="15" />
   <point x="390" y="-12" type="offcurve" name="14" />
   <point x="471" y="90" type="offcurve" name="14" />
   <point x="471" y="236" type="curve" smooth="yes" name="15" />
   <point x="471" y="376" type="offcurve" name="14" />
   <point x="395" y="466" type="offcurve" name="14" />
   <point x="274" y="466" type="curve" smooth="yes" name="15" />
   <point x="208" y="466" type="offcurve" name="14" />
   <point x="166" y="451" type="offcurve" name="14" />
   <point x="105" y="397" type="curve" smooth="no" name="13" />
   <point x="98" y="454" type="line" smooth="no" name="13" />
  </contour>
  <contour>
   <point x="105" y="85" type="curve" smooth="no" name="13" />
   <point x="105" y="364" type="line" smooth="no" name="13" />
   <point x="160" y="423" type="offcurve" name="14" />
   <point x="208" y="444" type="offcurve" name="14" />
   <point x="264" y="444" type="curve" smooth="yes" name="15" />
   <point x="379" y="444" type="offcurve" name="14" />
   <point x="444" y="365" type="offcurve" name="14" />
   <point x="444" y="231" type="curve" smooth="yes" name="15" />
   <point x="444" y="95" type="offcurve" name="14" />
   <point x="371" y="10" type="offcurve" name="14" />
   <point x="257" y="10" type="curve" smooth="yes" name="15" />
   <point x="207" y="10" type="offcurve" name="14" />
   <point x="161" y="31" type="offcurve" name="14" />
  </contour>
 </outline>
</glyph>
<glyph name="q" format="1">
 <advance width="518" />
 <unicode hex="0071" />
 <outline>
  <contour>
   <point x="441" y="453" type="line" smooth="no" name="13" />
   <point x="421" y="453" type="line" smooth="no" name="13" />
   <point x="414" y="396" type="line" smooth="no" name="13" />
   <point x="361" y="446" type="offcurve" name="14" />
   <point x="312" y="466" type="offcurve" name="14" />
   <point x="248" y="466" type="curve" smooth="yes" name="15" />
   <point x="129" y="466" type="offcurve" name="14" />
   <point x="48" y="370" type="offcurve" name="14" />
   <point x="48" y="235" type="curve" smooth="yes" name="15" />
   <point x="48" y="92" type="offcurve" name="14" />
   <point x="128" y="-12" type="offcurve" name="14" />
   <point x="251" y="-12" type="curve" smooth="yes" name="15" />
   <point x="313" y="-12" type="offcurve" name="14" />
   <point x="354" y="1" type="offcurve" name="14" />
   <point x="414" y="51" type="curve" smooth="no" name="13" />
   <point x="414" y="-198" type="line" smooth="no" name="13" />
   <point x="441" y="-198" type="line" smooth="no" name="13" />
  </contour>
  <contour>
   <point x="414" y="85" type="line" smooth="no" name="13" />
   <point x="369" y="35" type="offcurve" name="14" />
   <point x="317" y="10" type="offcurve" name="14" />
   <point x="258" y="10" type="curve" smooth="yes" name="15" />
   <point x="144" y="10" type="offcurve" name="14" />
   <point x="75" y="93" type="offcurve" name="14" />
   <point x="75" y="227" type="curve" smooth="yes" name="15" />
   <point x="75" y="358" type="offcurve" name="14" />
   <point x="143" y="444" type="offcurve" name="14" />
   <point x="255" y="444" type="curve" smooth="yes" name="15" />
   <point x="314" y="444" type="offcurve" name="14" />
   <point x="360" y="419" type="offcurve" name="14" />
   <point x="414" y="364" type="curve" smooth="no" name="13" />
  </contour>
 </outline>
</glyph>
<glyph name="r" format="1">
 <advance width="363" />
 <unicode hex="0072" />
 <outline>
  <contour>
   <point x="338" y="436" type="line" smooth="no" name="13" />
   <point x="299" y="459" type="offcurve" name="14" />
   <point x="279" y="466" type="offcurve" name="14" />
   <point x="246" y="466" type="curve" smooth="yes" name="15" />
   <point x="245" y="466" type="offcurve" name="14" />
   <point x="245" y="466" type="offcurve" name="14" />
   <point x="244" y="466" type="curve" smooth="yes" name="15" />
   <point x="192" y="465" type="offcurve" name="14" />
   <point x="161" y="450" type="offcurve" name="14" />
   <point x="105" y="395" type="curve" smooth="no" name="13" />
   <point x="98" y="454" type="line" smooth="no" name="13" />
   <point x="78" y="454" type="line" smooth="no" name="13" />
   <point x="78" y="0" type="line" smooth="no" name="13" />
   <point x="105" y="0" type="line" smooth="no" name="13" />
   <point x="105" y="359" type="line" smooth="no" name="13" />
   <point x="164" y="424" type="offcurve" name="14" />
   <point x="195" y="444" type="offcurve" name="14" />
   <point x="243" y="444" type="curve" smooth="yes" name="15" />
   <point x="243" y="444" type="offcurve" name="14" />
   <point x="244" y="444" type="offcurve" name="14" />
   <point x="244" y="444" type="curve" smooth="yes" name="15" />
   <point x="269" y="444" type="offcurve" name="14" />
   <point x="285" y="438" type="offcurve" name="14" />
   <point x="318" y="416" type="curve" smooth="no" name="13" />
  </contour>
 </outline>
</glyph>
<glyph name="t" format="1">
 <advance width="326" />
 <unicode hex="0074" />
 <outline>
  <contour>
   <point x="141" y="431" type="line" smooth="no" name="13" />
   <point x="286" y="431" type="line" smooth="no" name="13" />
   <point x="286" y="453" type="line" smooth="no" name="13" />
   <point x="141" y="453" type="line" smooth="no" name="13" />
   <point x="141" y="575" type="line" smooth="no" name="13" />
   <point x="114" y="563" type="line" smooth="no" name="13" />
   <point x="114" y="453" type="line" smooth="no" name="13" />
   <point x="42" y="453" type="line" smooth="no" name="13" />
   <point x="42" y="431" type="line" smooth="no" name="13" />
   <point x="114" y="431" type="line" smooth="no" name="13" />
   <point x="114" y="110" type="line" smooth="yes" name="15" />
   <point x="114" y="27" type="offcurve" name="14" />
   <point x="145" y="-10" type="offcurve" name="14" />
   <point x="214" y="-10" type="curve" smooth="yes" name="15" />
   <point x="241" y="-10" type="offcurve" name="14" />
   <point x="260" y="-4" type="offcurve" name="14" />
   <point x="284" y="9" type="curve" smooth="no" name="13" />
   <point x="274" y="27" type="line" smooth="no" name="13" />
   <point x="254" y="16" type="offcurve" name="14" />
   <point x="237" y="12" type="offcurve" name="14" />
   <point x="218" y="12" type="curve" smooth="yes" name="15" />
   <point x="159" y="12" type="offcurve" name="14" />
   <point x="141" y="55" type="offcurve" name="14" />
   <point x="141" y="107" type="curve" smooth="yes" name="15" />
  </contour>
 </outline>
</glyph>
<glyph name="v" format="1">
 <advance width="407" />
 <unicode hex="0076" />
 <outline>
  <contour>
   <point x="224" y="0" type="line" smooth="no" name="13" />
   <point x="390" y="454" type="line" smooth="no" name="13" />
   <point x="363" y="454" type="line" smooth="no" name="13" />
   <point x="205" y="18" type="line" smooth="no" name="13" />
   <point x="43" y="454" type="line" smooth="no" name="13" />
   <point x="17" y="454" type="line" smooth="no" name="13" />
   <point x="185" y="0" type="line" smooth="no" name="13" />
  </contour>
 </outline>
</glyph>
<glyph name="w" format="1">
 <advance width="674" />
 <unicode hex="0077" />
 <outline>
  <contour>
   <point x="200" y="0" type="line" smooth="no" name="13" />
   <point x="342" y="430" type="line" smooth="no" name="13" />
   <point x="477" y="0" type="line" smooth="no" name="13" />
   <point x="510" y="0" type="line" smooth="no" name="13" />
   <point x="658" y="454" type="line" smooth="no" name="13" />
   <point x="631" y="454" type="line" smooth="no" name="13" />
   <point x="493" y="23" type="line" smooth="no" name="13" />
   <point x="360" y="454" type="line" smooth="no" name="13" />
   <point x="326" y="454" type="line" smooth="no" name="13" />
   <point x="182" y="23" type="line" smooth="no" name="13" />
   <point x="43" y="454" type="line" smooth="no" name="13" />
   <point x="16" y="454" type="line" smooth="no" name="13" />
   <point x="166" y="0" type="line" smooth="no" name="13" />
  </contour>
 </outline>
</glyph>
<glyph name="x" format="1">
 <advance width="388" />
 <unicode hex="0078" />
 <outline>
  <contour>
   <point x="196" y="259" type="line" smooth="no" name="13" />
   <point x="68" y="454" type="line" smooth="no" name="13" />
   <point x="37" y="454" type="line" smooth="no" name="13" />
   <point x="181" y="239" type="line" smooth="no" name="13" />
   <point x="18" y="0" type="line" smooth="no" name="13" />
   <point x="50" y="0" type="line" smooth="no" name="13" />
   <point x="196" y="219" type="line" smooth="no" name="13" />
   <point x="341" y="0" type="line" smooth="no" name="13" />
   <point x="372" y="0" type="line" smooth="no" name="13" />
   <point x="211" y="239" type="line" smooth="no" name="13" />
   <point x="362" y="454" type="line" smooth="no" name="13" />
   <point x="331" y="454" type="line" smooth="no" name="13" />
  </contour>
 </outline>
</glyph>
<glyph name="z" format="1">
 <advance width="394" />
 <unicode hex="007a" />
 <outline>
  <contour>
   <point x="366" y="0" type="line" smooth="no" name="13" />
   <point x="366" y="22" type="line" smooth="no" name="13" />
   <point x="59" y="22" type="line" smooth="no" name="13" />
   <point x="360" y="429" type="line" smooth="no" name="13" />
   <point x="360" y="454" type="line" smooth="no" name="13" />
   <point x="47" y="454" type="line" smooth="no" name="13" />
   <point x="47" y="432" type="line" smooth="no" name="13" />
   <point x="330" y="432" type="line" smooth="no" name="13" />
   <point x="29" y="22" type="line" smooth="no" name="13" />
   <point x="29" y="0" type="line" smooth="no" name="13" />
  </contour>
 </outline>
</glyph>
<glyph name="braceleft" format="1">
 <advance width="348" />
 <unicode hex="007b" />
 <outline>
  <contour>
   <point x="48" y="239" type="line" smooth="no" name="13" />
   <point x="128" y="201" type="offcurve" name="14" />
   <point x="159" y="153" type="offcurve" name="14" />
   <point x="159" y="69" type="curve" smooth="yes" name="15" />
   <point x="159" y="25" type="line" smooth="yes" name="15" />
   <point x="159" y="-101" type="offcurve" name="14" />
   <point x="187" y="-136" type="offcurve" name="14" />
   <point x="292" y="-139" type="curve" smooth="no" name="13" />
   <point x="291" y="-139" type="line" smooth="no" name="13" />
   <point x="291" y="-110" type="line" smooth="no" name="13" />
   <point x="292" y="-110" type="line" smooth="no" name="13" />
   <point x="288" y="-111" type="offcurve" name="14" />
   <point x="284" y="-111" type="offcurve" name="14" />
   <point x="280" y="-111" type="curve" smooth="yes" name="15" />
   <point x="205" y="-111" type="offcurve" name="14" />
   <point x="186" y="-81" type="offcurve" name="14" />
   <point x="186" y="25" type="curve" smooth="yes" name="15" />
   <point x="186" y="69" type="line" smooth="yes" name="15" />
   <point x="186" y="164" type="offcurve" name="14" />
   <point x="155" y="212" type="offcurve" name="14" />
   <point x="64" y="257" type="curve" smooth="no" name="13" />
   <point x="152" y="293" type="offcurve" name="14" />
   <point x="186" y="344" type="offcurve" name="14" />
   <point x="186" y="442" type="curve" smooth="yes" name="15" />
   <point x="186" y="482" type="line" smooth="yes" name="15" />
   <point x="186" y="587" type="offcurve" name="14" />
   <point x="205" y="616" type="offcurve" name="14" />
   <point x="279" y="616" type="curve" smooth="yes" name="15" />
   <point x="284" y="616" type="offcurve" name="14" />
   <point x="288" y="616" type="offcurve" name="14" />
   <point x="292" y="615" type="curve" smooth="no" name="13" />
   <point x="291" y="615" type="line" smooth="no" name="13" />
   <point x="291" y="644" type="line" smooth="no" name="13" />
   <point x="292" y="644" type="line" smooth="no" name="13" />
   <point x="187" y="641" type="offcurve" name="14" />
   <point x="159" y="606" type="offcurve" name="14" />
   <point x="159" y="482" type="curve" smooth="yes" name="15" />
   <point x="159" y="442" type="line" smooth="yes" name="15" />
   <point x="159" y="348" type="offcurve" name="14" />
   <point x="129" y="304" type="offcurve" name="14" />
   <point x="48" y="275" type="curve" smooth="no" name="13" />
  </contour>
 </outline>
</glyph>
<glyph name="bar" format="1">
 <advance width="203" />
 <unicode hex="007c" />
 <outline>
  <contour>
   <point x="113" y="662" type="line" smooth="no" name="13" />
   <point x="86" y="662" type="line" smooth="no" name="13" />
   <point x="86" y="-179" type="line" smooth="no" name="13" />
   <point x="113" y="-179" type="line" smooth="no" name="13" />
  </contour>
 </outline>
</glyph>
<glyph name="braceright" format="1">
 <advance width="348" />
 <unicode hex="007d" />
 <outline>
  <contour>
   <point x="300" y="239" type="curve" smooth="no" name="13" />
   <point x="300" y="275" type="line" smooth="no" name="13" />
   <point x="214" y="311" type="offcurve" name="14" />
   <point x="189" y="348" type="offcurve" name="14" />
   <point x="189" y="442" type="curve" smooth="yes" name="15" />
   <point x="189" y="482" type="line" smooth="yes" name="15" />
   <point x="189" y="606" type="offcurve" name="14" />
   <point x="161" y="640" type="offcurve" name="14" />
   <point x="56" y="644" type="curve" smooth="no" name="13" />
   <point x="57" y="644" type="line" smooth="no" name="13" />
   <point x="57" y="616" type="line" smooth="no" name="13" />
   <point x="56" y="616" type="line" smooth="no" name="13" />
   <point x="61" y="616" type="offcurve" name="14" />
   <point x="65" y="616" type="offcurve" name="14" />
   <point x="70" y="616" type="curve" smooth="yes" name="15" />
   <point x="143" y="616" type="offcurve" name="14" />
   <point x="162" y="586" type="offcurve" name="14" />
   <point x="162" y="482" type="curve" smooth="yes" name="15" />
   <point x="162" y="442" type="line" smooth="yes" name="15" />
   <point x="162" y="343" type="offcurve" name="14" />
   <point x="190" y="301" type="offcurve" name="14" />
   <point x="283" y="257" type="curve" smooth="no" name="13" />
   <point x="189" y="206" type="offcurve" name="14" />
   <point x="162" y="165" type="offcurve" name="14" />
   <point x="162" y="69" type="curve" smooth="yes" name="15" />
   <point x="162" y="25" type="line" smooth="yes" name="15" />
   <point x="162" y="-81" type="offcurve" name="14" />
   <point x="143" y="-111" type="offcurve" name="14" />
   <point x="70" y="-111" type="curve" smooth="yes" name="15" />
   <point x="65" y="-111" type="offcurve" name="14" />
   <point x="61" y="-111" type="offcurve" name="14" />
   <point x="56" y="-111" type="curve" smooth="no" name="13" />
   <point x="57" y="-111" type="line" smooth="no" name="13" />
   <point x="57" y="-139" type="line" smooth="no" name="13" />
   <point x="56" y="-139" type="line" smooth="no" name="13" />
   <point x="161" y="-135" type="offcurve" name="14" />
   <point x="189" y="-101" type="offcurve" name="14" />
   <point x="189" y="25" type="curve" smooth="yes" name="15" />
   <point x="189" y="69" type="line" smooth="yes" name="15" />
   <point x="189" y="154" type="offcurve" name="14" />
   <point x="215" y="193" type="offcurve" name="14" />
  </contour>
 </outline>
</glyph>
<glyph name="asciitilde" format="1">
 <advance width="460" />
 <unicode hex="007e" />
 <outline>
  <contour>
   <point x="44" y="220" type="line" smooth="no" name="13" />
   <point x="73" y="260" type="offcurve" name="14" />
   <point x="93" y="273" type="offcurve" name="14" />
   <point x="129" y="273" type="curve" smooth="yes" name="15" />
   <point x="161" y="273" type="offcurve" name="14" />
   <point x="189" y="258" type="offcurve" name="14" />
   <point x="217" y="243" type="curve" smooth="no" name="13" />
   <point x="220" y="241" type="offcurve" name="14" />
   <point x="224" y="239" type="offcurve" name="14" />
   <point x="227" y="238" type="curve" smooth="no" name="13" />
   <point x="281" y="210" type="offcurve" name="14" />
   <point x="308" y="201" type="offcurve" name="14" />
   <point x="340" y="201" type="curve" smooth="yes" name="15" />
   <point x="341" y="201" type="offcurve" name="14" />
   <point x="342" y="201" type="offcurve" name="14" />
   <point x="343" y="201" type="curve" smooth="yes" name="15" />
   <point x="386" y="201" type="offcurve" name="14" />
   <point x="407" y="216" type="offcurve" name="14" />
   <point x="436" y="263" type="curve" smooth="no" name="13" />
   <point x="418" y="273" type="line" smooth="no" name="13" />
   <point x="394" y="233" type="offcurve" name="14" />
   <point x="377" y="223" type="offcurve" name="14" />
   <point x="338" y="223" type="curve" smooth="yes" name="15" />
   <point x="305" y="223" type="offcurve" name="14" />
   <point x="275" y="237" type="offcurve" name="14" />
   <point x="245" y="252" type="curve" smooth="no" name="13" />
   <point x="242" y="254" type="offcurve" name="14" />
   <point x="238" y="256" type="offcurve" name="14" />
   <point x="235" y="258" type="curve" smooth="no" name="13" />
   <point x="177" y="286" type="offcurve" name="14" />
   <point x="153" y="294" type="offcurve" name="14" />
   <point x="126" y="295" type="curve" smooth="yes" name="15" />
   <point x="125" y="295" type="offcurve" name="14" />
   <point x="124" y="295" type="offcurve" name="14" />
   <point x="124" y="295" type="curve" smooth="yes" name="15" />
   <point x="84" y="295" type="offcurve" name="14" />
   <point x="60" y="278" type="offcurve" name="14" />
   <point x="28" y="230" type="curve" smooth="no" name="13" />
  </contour>
 </outline>
</glyph>
<glyph name="exclamdown" format="1">
 <advance width="174" />
 <unicode hex="00a1" />
 <outline>
  <contour>
   <point x="73" y="327" type="line" smooth="no" name="13" />
   <point x="73" y="-175" type="line" smooth="no" name="13" />
   <point x="100" y="-175" type="line" smooth="no" name="13" />
   <point x="100" y="327" type="line" smooth="no" name="13" />
  </contour>
  <contour>
   <point x="87" y="459" type="curve" smooth="yes" name="15" />
   <point x="74" y="459" type="offcurve" name="14" />
   <point x="66" y="455" type="offcurve" name="14" />
   <point x="66" y="437" type="curve" smooth="yes" name="15" />
   <point x="66" y="420" type="offcurve" name="14" />
   <point x="73" y="414" type="offcurve" name="14" />
   <point x="87" y="414" type="curve" smooth="yes" name="15" />
   <point x="101" y="414" type="offcurve" name="14" />
   <point x="108" y="419" type="offcurve" name="14" />
   <point x="108" y="436" type="curve" smooth="yes" name="15" />
   <point x="108" y="454" type="offcurve" name="14" />
   <point x="101" y="459" type="offcurve" name="14" />
  </contour>
 </outline>
</glyph>
<glyph name="cent" format="1">
 <advance width="459" />
 <unicode hex="00a2" />
 <outline>
  <contour>
   <point x="287" y="-11" type="line" smooth="no" name="13" />
   <point x="341" y="-6" type="offcurve" name="14" />
   <point x="358" y="-1" type="offcurve" name="14" />
   <point x="406" y="26" type="curve" smooth="no" name="13" />
   <point x="394" y="47" type="line" smooth="no" name="13" />
   <point x="343" y="24" type="offcurve" name="14" />
   <point x="331" y="21" type="offcurve" name="14" />
   <point x="287" y="17" type="curve" smooth="no" name="13" />
   <point x="287" y="436" type="line" smooth="no" name="13" />
   <point x="325" y="430" type="offcurve" name="14" />
   <point x="336" y="427" type="offcurve" name="14" />
   <point x="381" y="409" type="curve" smooth="no" name="13" />
   <point x="392" y="430" type="line" smooth="no" name="13" />
   <point x="345" y="454" type="offcurve" name="14" />
   <point x="332" y="458" type="offcurve" name="14" />
   <point x="287" y="465" type="curve" smooth="no" name="13" />
   <point x="287" y="512" type="line" smooth="no" name="13" />
   <point x="260" y="512" type="line" smooth="no" name="13" />
   <point x="260" y="464" type="line" smooth="no" name="13" />
   <point x="226" y="462" type="offcurve" name="14" />
   <point x="209" y="458" type="offcurve" name="14" />
   <point x="187" y="449" type="curve" smooth="yes" name="15" />
   <point x="141" y="430" type="offcurve" name="14" />
   <point x="101" y="392" type="offcurve" name="14" />
   <point x="77" y="344" type="curve" smooth="yes" name="15" />
   <point x="58" y="306" type="offcurve" name="14" />
   <point x="50" y="264" type="offcurve" name="14" />
   <point x="50" y="222" type="curve" smooth="yes" name="15" />
   <point x="50" y="87" type="offcurve" name="14" />
   <point x="129" y="5" type="offcurve" name="14" />
   <point x="260" y="-10" type="curve" smooth="no" name="13" />
   <point x="260" y="-52" type="line" smooth="no" name="13" />
   <point x="287" y="-52" type="line" smooth="no" name="13" />
  </contour>
  <contour>
   <point x="260" y="439" type="curve" smooth="no" name="13" />
   <point x="260" y="16" type="line" smooth="no" name="13" />
   <point x="144" y="30" type="offcurve" name="14" />
   <point x="77" y="104" type="offcurve" name="14" />
   <point x="77" y="224" type="curve" smooth="yes" name="15" />
   <point x="77" y="282" type="offcurve" name="14" />
   <point x="97" y="340" type="offcurve" name="14" />
   <point x="131" y="378" type="curve" smooth="yes" name="15" />
   <point x="165" y="416" type="offcurve" name="14" />
   <point x="197" y="432" type="offcurve" name="14" />
  </contour>
 </outline>
</glyph>
<glyph name="sterling" format="1">
 <advance width="455" />
 <unicode hex="00a3" />
 <outline>
  <contour>
   <point x="322" y="338" type="line" smooth="no" name="13" />
   <point x="322" y="360" type="line" smooth="no" name="13" />
   <point x="148" y="360" type="line" smooth="no" name="13" />
   <point x="148" y="435" type="line" smooth="yes" name="15" />
   <point x="148" y="565" type="offcurve" name="14" />
   <point x="189" y="619" type="offcurve" name="14" />
   <point x="278" y="619" type="curve" smooth="yes" name="15" />
   <point x="317" y="619" type="offcurve" name="14" />
   <point x="349" y="605" type="offcurve" name="14" />
   <point x="382" y="575" type="curve" smooth="no" name="13" />
   <point x="397" y="594" type="line" smooth="no" name="13" />
   <point x="357" y="626" type="offcurve" name="14" />
   <point x="323" y="641" type="offcurve" name="14" />
   <point x="276" y="641" type="curve" smooth="yes" name="15" />
   <point x="176" y="641" type="offcurve" name="14" />
   <point x="121" y="580" type="offcurve" name="14" />
   <point x="121" y="442" type="curve" smooth="yes" name="15" />
   <point x="121" y="360" type="line" smooth="no" name="13" />
   <point x="42" y="360" type="line" smooth="no" name="13" />
   <point x="42" y="338" type="line" smooth="no" name="13" />
   <point x="121" y="338" type="line" smooth="no" name="13" />
   <point x="121" y="22" type="line" smooth="no" name="13" />
   <point x="44" y="22" type="line" smooth="no" name="13" />
   <point x="44" y="0" type="line" smooth="no" name="13" />
   <point x="407" y="0" type="line" smooth="no" name="13" />
   <point x="407" y="22" type="line" smooth="no" name="13" />
   <point x="148" y="22" type="line" smooth="no" name="13" />
   <point x="148" y="338" type="line" smooth="no" name="13" />
  </contour>
 </outline>
</glyph>
<glyph name="currency" format="1">
 <advance width="454" />
 <unicode hex="00a4" />
 <outline>
  <contour>
   <point x="417" y="104" type="line" smooth="no" name="13" />
   <point x="427" y="105" type="offcurve" name="14" />
   <point x="436" y="115" type="offcurve" name="14" />
   <point x="436" y="122" type="curve" smooth="yes" name="15" />
   <point x="436" y="124" type="offcurve" name="14" />
   <point x="436" y="125" type="offcurve" name="14" />
   <point x="434" y="127" type="curve" smooth="yes" name="15" />
   <point x="353" y="205" type="line" smooth="no" name="13" />
   <point x="380" y="241" type="offcurve" name="14" />
   <point x="388" y="264" type="offcurve" name="14" />
   <point x="388" y="302" type="curve" smooth="yes" name="15" />
   <point x="388" y="341" type="offcurve" name="14" />
   <point x="380" y="366" type="offcurve" name="14" />
   <point x="354" y="404" type="curve" smooth="no" name="13" />
   <point x="433" y="486" type="line" smooth="yes" name="15" />
   <point x="434" y="487" type="offcurve" name="14" />
   <point x="434" y="488" type="offcurve" name="14" />
   <point x="434" y="489" type="curve" smooth="yes" name="15" />
   <point x="434" y="496" type="offcurve" name="14" />
   <point x="424" y="506" type="offcurve" name="14" />
   <point x="418" y="506" type="curve" smooth="yes" name="15" />
   <point x="416" y="506" type="offcurve" name="14" />
   <point x="415" y="506" type="offcurve" name="14" />
   <point x="414" y="505" type="curve" smooth="yes" name="15" />
   <point x="331" y="423" type="line" smooth="no" name="13" />
   <point x="294" y="448" type="offcurve" name="14" />
   <point x="269" y="457" type="offcurve" name="14" />
   <point x="233" y="457" type="curve" smooth="yes" name="15" />
   <point x="232" y="457" type="offcurve" name="14" />
   <point x="232" y="457" type="offcurve" name="14" />
   <point x="231" y="457" type="curve" smooth="yes" name="15" />
   <point x="194" y="457" type="offcurve" name="14" />
   <point x="169" y="448" type="offcurve" name="14" />
   <point x="131" y="423" type="curve" smooth="no" name="13" />
   <point x="49" y="506" type="line" smooth="no" name="13" />
   <point x="43" y="499" type="offcurve" name="14" />
   <point x="37" y="493" type="offcurve" name="14" />
   <point x="31" y="486" type="curve" smooth="no" name="13" />
   <point x="111" y="401" type="line" smooth="no" name="13" />
   <point x="83" y="364" type="offcurve" name="14" />
   <point x="74" y="340" type="offcurve" name="14" />
   <point x="74" y="302" type="curve" smooth="yes" name="15" />
   <point x="74" y="264" type="offcurve" name="14" />
   <point x="82" y="240" type="offcurve" name="14" />
   <point x="107" y="205" type="curve" smooth="no" name="13" />
   <point x="32" y="127" type="line" smooth="no" name="13" />
   <point x="38" y="121" type="offcurve" name="14" />
   <point x="44" y="114" type="offcurve" name="14" />
   <point x="50" y="107" type="curve" smooth="no" name="13" />
   <point x="128" y="184" type="line" smooth="no" name="13" />
   <point x="165" y="157" type="offcurve" name="14" />
   <point x="190" y="149" type="offcurve" name="14" />
   <point x="233" y="149" type="curve" smooth="yes" name="15" />
   <point x="275" y="149" type="offcurve" name="14" />
   <point x="299" y="157" type="offcurve" name="14" />
   <point x="335" y="183" type="curve" smooth="no" name="13" />
  </contour>
  <contour>
   <point x="101" y="301" type="curve" smooth="yes" name="15" />
   <point x="101" y="301" type="offcurve" name="14" />
   <point x="101" y="302" type="offcurve" name="14" />
   <point x="101" y="302" type="curve" smooth="yes" name="15" />
   <point x="102" y="382" type="offcurve" name="14" />
   <point x="154" y="435" type="offcurve" name="14" />
   <point x="233" y="435" type="curve" smooth="yes" name="15" />
   <point x="313" y="435" type="offcurve" name="14" />
   <point x="361" y="385" type="offcurve" name="14" />
   <point x="361" y="302" type="curve" smooth="yes" name="15" />
   <point x="361" y="220" type="offcurve" name="14" />
   <point x="314" y="171" type="offcurve" name="14" />
   <point x="233" y="171" type="curve" smooth="yes" name="15" />
   <point x="152" y="171" type="offcurve" name="14" />
   <point x="101" y="220" type="offcurve" name="14" />
  </contour>
 </outline>
</glyph>
<glyph name="yen" format="1">
 <advance width="486" />
 <unicode hex="00a5" />
 <outline>
  <contour>
   <point x="256" y="0" type="line" smooth="no" name="13" />
   <point x="256" y="154" type="line" smooth="no" name="13" />
   <point x="440" y="154" type="line" smooth="no" name="13" />
   <point x="440" y="176" type="line" smooth="no" name="13" />
   <point x="256" y="176" type="line" smooth="no" name="13" />
   <point x="256" y="247" type="line" smooth="no" name="13" />
   <point x="269" y="273" type="line" smooth="no" name="13" />
   <point x="440" y="273" type="line" smooth="no" name="13" />
   <point x="440" y="295" type="line" smooth="no" name="13" />
   <point x="279" y="295" type="line" smooth="no" name="13" />
   <point x="467" y="633" type="line" smooth="no" name="13" />
   <point x="437" y="633" type="line" smooth="no" name="13" />
   <point x="250" y="295" type="line" smooth="no" name="13" />
   <point x="235" y="295" type="line" smooth="no" name="13" />
   <point x="50" y="633" type="line" smooth="no" name="13" />
   <point x="20" y="633" type="line" smooth="no" name="13" />
   <point x="206" y="295" type="line" smooth="no" name="13" />
   <point x="35" y="295" type="line" smooth="no" name="13" />
   <point x="35" y="273" type="line" smooth="no" name="13" />
   <point x="216" y="273" type="line" smooth="no" name="13" />
   <point x="229" y="247" type="line" smooth="no" name="13" />
   <point x="229" y="176" type="line" smooth="no" name="13" />
   <point x="35" y="176" type="line" smooth="no" name="13" />
   <point x="35" y="154" type="line" smooth="no" name="13" />
   <point x="229" y="154" type="line" smooth="no" name="13" />
   <point x="229" y="0" type="line" smooth="no" name="13" />
  </contour>
 </outline>
</glyph>
<glyph name="brokenbar" format="1">
 <advance width="216" />
 <unicode hex="00a6" />
 <outline>
  <contour>
   <point x="92" y="207" type="line" smooth="no" name="13" />
   <point x="92" y="-199" type="line" smooth="no" name="13" />
   <point x="119" y="-199" type="line" smooth="no" name="13" />
   <point x="119" y="207" type="line" smooth="no" name="13" />
  </contour>
  <contour>
   <point x="119" y="684" type="line" smooth="no" name="13" />
   <point x="92" y="684" type="line" smooth="no" name="13" />
   <point x="92" y="315" type="line" smooth="no" name="13" />
   <point x="119" y="315" type="line" smooth="no" name="13" />
  </contour>
 </outline>
</glyph>
<glyph name="section" format="1">
 <advance width="420" />
 <unicode hex="00a7" />
 <outline>
  <contour>
   <point x="66" y="-104" type="line" smooth="no" name="13" />
   <point x="118" y="-131" type="offcurve" name="14" />
   <point x="152" y="-140" type="offcurve" name="14" />
   <point x="201" y="-140" type="curve" smooth="no" name="13" />
   <point x="201" y="-140" type="offcurve" name="14" />
   <point x="201" y="-140" type="offcurve" name="14" />
   <point x="202" y="-140" type="curve" smooth="yes" name="15" />
   <point x="297" y="-140" type="offcurve" name="14" />
   <point x="358" y="-87" type="offcurve" name="14" />
   <point x="358" y="-4" type="curve" smooth="yes" name="15" />
   <point x="358" y="-3" type="offcurve" name="14" />
   <point x="358" y="-3" type="offcurve" name="14" />
   <point x="358" y="-3" type="curve" smooth="no" name="13" />
   <point x="358" y="52" type="offcurve" name="14" />
   <point x="338" y="85" type="offcurve" name="14" />
   <point x="281" y="122" type="curve" smooth="no" name="13" />
   <point x="346" y="162" type="offcurve" name="14" />
   <point x="369" y="194" type="offcurve" name="14" />
   <point x="370" y="246" type="curve" smooth="yes" name="15" />
   <point x="370" y="248" type="offcurve" name="14" />
   <point x="370" y="249" type="offcurve" name="14" />
   <point x="370" y="251" type="curve" smooth="yes" name="15" />
   <point x="370" y="317" type="offcurve" name="14" />
   <point x="336" y="354" type="offcurve" name="14" />
   <point x="243" y="391" type="curve" smooth="yes" name="15" />
   <point x="133" y="434" type="offcurve" name="14" />
   <point x="100" y="465" type="offcurve" name="14" />
   <point x="99" y="524" type="curve" smooth="no" name="13" />
   <point x="99" y="524" type="offcurve" name="14" />
   <point x="99" y="524" type="offcurve" name="14" />
   <point x="99" y="525" type="curve" smooth="yes" name="15" />
   <point x="99" y="583" type="offcurve" name="14" />
   <point x="146" y="623" type="offcurve" name="14" />
   <point x="214" y="623" type="curve" smooth="yes" name="15" />
   <point x="252" y="623" type="offcurve" name="14" />
   <point x="281" y="616" type="offcurve" name="14" />
   <point x="328" y="595" type="curve" smooth="no" name="13" />
   <point x="338" y="613" type="line" smooth="no" name="13" />
   <point x="290" y="636" type="offcurve" name="14" />
   <point x="257" y="645" type="offcurve" name="14" />
   <point x="213" y="645" type="curve" smooth="yes" name="15" />
   <point x="213" y="645" type="offcurve" name="14" />
   <point x="212" y="645" type="offcurve" name="14" />
   <point x="212" y="645" type="curve" smooth="yes" name="15" />
   <point x="129" y="645" type="offcurve" name="14" />
   <point x="72" y="595" type="offcurve" name="14" />
   <point x="72" y="520" type="curve" smooth="yes" name="15" />
   <point x="72" y="520" type="offcurve" name="14" />
   <point x="72" y="519" type="offcurve" name="14" />
   <point x="72" y="518" type="curve" smooth="yes" name="15" />
   <point x="73" y="472" type="offcurve" name="14" />
   <point x="90" y="443" type="offcurve" name="14" />
   <point x="139" y="406" type="curve" smooth="no" name="13" />
   <point x="75" y="367" type="offcurve" name="14" />
   <point x="50" y="331" type="offcurve" name="14" />
   <point x="50" y="273" type="curve" smooth="yes" name="15" />
   <point x="50" y="178" type="offcurve" name="14" />
   <point x="123" y="150" type="offcurve" name="14" />
   <point x="201" y="120" type="curve" smooth="yes" name="15" />
   <point x="296" y="84" type="offcurve" name="14" />
   <point x="331" y="50" type="offcurve" name="14" />
   <point x="331" y="-8" type="curve" smooth="yes" name="15" />
   <point x="331" y="-10" type="offcurve" name="14" />
   <point x="331" y="-12" type="offcurve" name="14" />
   <point x="331" y="-14" type="curve" smooth="yes" name="15" />
   <point x="329" y="-77" type="offcurve" name="14" />
   <point x="277" y="-118" type="offcurve" name="14" />
   <point x="199" y="-118" type="curve" smooth="yes" name="15" />
   <point x="156" y="-118" type="offcurve" name="14" />
   <point x="127" y="-111" type="offcurve" name="14" />
   <point x="75" y="-86" type="curve" smooth="no" name="13" />
  </contour>
  <contour>
   <point x="157" y="396" type="curve" smooth="no" name="13" />
   <point x="187" y="383" type="offcurve" name="14" />
   <point x="216" y="371" type="offcurve" name="14" />
   <point x="245" y="359" type="curve" smooth="yes" name="15" />
   <point x="309" y="332" type="offcurve" name="14" />
   <point x="343" y="291" type="offcurve" name="14" />
   <point x="343" y="241" type="curve" smooth="yes" name="15" />
   <point x="343" y="240" type="offcurve" name="14" />
   <point x="343" y="238" type="offcurve" name="14" />
   <point x="343" y="236" type="curve" smooth="yes" name="15" />
   <point x="341" y="196" type="offcurve" name="14" />
   <point x="322" y="172" type="offcurve" name="14" />
   <point x="260" y="130" type="curve" smooth="no" name="13" />
   <point x="252" y="133" type="offcurve" name="14" />
   <point x="237" y="138" type="offcurve" name="14" />
   <point x="213" y="147" type="curve" smooth="yes" name="15" />
   <point x="115" y="182" type="offcurve" name="14" />
   <point x="77" y="218" type="offcurve" name="14" />
   <point x="77" y="276" type="curve" smooth="yes" name="15" />
   <point x="77" y="333" type="offcurve" name="14" />
   <point x="113" y="365" type="offcurve" name="14" />
  </contour>
 </outline>
</glyph>
<glyph name="dieresis" format="1">
 <advance width="249" />
 <unicode hex="00a8" />
 <outline>
  <contour>
   <point x="34" y="617" type="curve" smooth="yes" name="15" />
   <point x="34" y="603" type="offcurve" name="14" />
   <point x="47" y="590" type="offcurve" name="14" />
   <point x="61" y="590" type="curve" smooth="yes" name="15" />
   <point x="77" y="590" type="offcurve" name="14" />
   <point x="89" y="603" type="offcurve" name="14" />
   <point x="89" y="617" type="curve" smooth="yes" name="15" />
   <point x="89" y="633" type="offcurve" name="14" />
   <point x="77" y="645" type="offcurve" name="14" />
   <point x="61" y="645" type="curve" smooth="yes" name="15" />
   <point x="47" y="645" type="offcurve" name="14" />
   <point x="34" y="633" type="offcurve" name="14" />
  </contour>
  <contour>
   <point x="162" y="617" type="curve" smooth="yes" name="15" />
   <point x="162" y="603" type="offcurve" name="14" />
   <point x="174" y="590" type="offcurve" name="14" />
   <point x="190" y="590" type="curve" smooth="yes" name="15" />
   <point x="205" y="590" type="offcurve" name="14" />
   <point x="217" y="603" type="offcurve" name="14" />
   <point x="217" y="617" type="curve" smooth="yes" name="15" />
   <point x="217" y="633" type="offcurve" name="14" />
   <point x="205" y="645" type="offcurve" name="14" />
   <point x="190" y="645" type="curve" smooth="yes" name="15" />
   <point x="174" y="645" type="offcurve" name="14" />
   <point x="162" y="633" type="offcurve" name="14" />
  </contour>
 </outline>
</glyph>
<glyph name="copyright" format="1">
 <advance width="697" />
 <unicode hex="00a9" />
 <outline>
  <contour>
   <point x="480" y="460" type="line" smooth="no" name="13" />
   <point x="430" y="492" type="offcurve" name="14" />
   <point x="403" y="502" type="offcurve" name="14" />
   <point x="363" y="502" type="curve" smooth="yes" name="15" />
   <point x="361" y="502" type="offcurve" name="14" />
   <point x="360" y="502" type="offcurve" name="14" />
   <point x="358" y="502" type="curve" smooth="yes" name="15" />
   <point x="256" y="500" type="offcurve" name="14" />
   <point x="181" y="421" type="offcurve" name="14" />
   <point x="181" y="314" type="curve" smooth="yes" name="15" />
   <point x="181" y="207" type="offcurve" name="14" />
   <point x="256" y="127" type="offcurve" name="14" />
   <point x="358" y="126" type="curve" smooth="yes" name="15" />
   <point x="359" y="126" type="offcurve" name="14" />
   <point x="360" y="126" type="offcurve" name="14" />
   <point x="361" y="126" type="curve" smooth="yes" name="15" />
   <point x="403" y="126" type="offcurve" name="14" />
   <point x="434" y="137" type="offcurve" name="14" />
   <point x="485" y="171" type="curve" smooth="no" name="13" />
   <point x="476" y="188" type="line" smooth="no" name="13" />
   <point x="425" y="156" type="offcurve" name="14" />
   <point x="400" y="148" type="offcurve" name="14" />
   <point x="363" y="148" type="curve" smooth="yes" name="15" />
   <point x="270" y="148" type="offcurve" name="14" />
   <point x="208" y="215" type="offcurve" name="14" />
   <point x="208" y="315" type="curve" smooth="yes" name="15" />
   <point x="208" y="315" type="offcurve" name="14" />
   <point x="208" y="316" type="offcurve" name="14" />
   <point x="208" y="316" type="curve" smooth="yes" name="15" />
   <point x="208" y="414" type="offcurve" name="14" />
   <point x="269" y="480" type="offcurve" name="14" />
   <point x="361" y="480" type="curve" smooth="yes" name="15" />
   <point x="397" y="480" type="offcurve" name="14" />
   <point x="418" y="471" type="offcurve" name="14" />
   <point x="466" y="436" type="curve" smooth="no" name="13" />
  </contour>
  <contour>
   <point x="48" y="315" type="curve" smooth="yes" name="15" />
   <point x="48" y="150" type="offcurve" name="14" />
   <point x="180" y="14" type="offcurve" name="14" />
   <point x="349" y="14" type="curve" smooth="yes" name="15" />
   <point x="513" y="14" type="offcurve" name="14" />
   <point x="649" y="150" type="offcurve" name="14" />
   <point x="649" y="315" type="curve" smooth="yes" name="15" />
   <point x="649" y="481" type="offcurve" name="14" />
   <point x="513" y="617" type="offcurve" name="14" />
   <point x="349" y="617" type="curve" smooth="yes" name="15" />
   <point x="177" y="617" type="offcurve" name="14" />
   <point x="48" y="481" type="offcurve" name="14" />
  </contour>
  <contour>
   <point x="75" y="315" type="curve" smooth="yes" name="15" />
   <point x="75" y="474" type="offcurve" name="14" />
   <point x="192" y="595" type="offcurve" name="14" />
   <point x="347" y="595" type="curve" smooth="yes" name="15" />
   <point x="503" y="595" type="offcurve" name="14" />
   <point x="622" y="474" type="offcurve" name="14" />
   <point x="622" y="315" type="curve" smooth="yes" name="15" />
   <point x="622" y="157" type="offcurve" name="14" />
   <point x="505" y="36" type="offcurve" name="14" />
   <point x="350" y="36" type="curve" smooth="yes" name="15" />
   <point x="195" y="36" type="offcurve" name="14" />
   <point x="75" y="158" type="offcurve" name="14" />
  </contour>
 </outline>
</glyph>
<glyph name="ordfeminine" format="1">
 <advance width="268" />
 <unicode hex="00aa" />
 <outline>
  <contour>
   <point x="221" y="406" type="line" smooth="no" name="13" />
   <point x="221" y="545" type="line" smooth="yes" name="15" />
   <point x="221" y="610" type="offcurve" name="14" />
   <point x="190" y="646" type="offcurve" name="14" />
   <point x="134" y="646" type="curve" smooth="no" name="13" />
   <point x="134" y="646" type="offcurve" name="14" />
   <point x="134" y="646" type="offcurve" name="14" />
   <point x="134" y="646" type="curve" smooth="no" name="13" />
   <point x="103" y="646" type="offcurve" name="14" />
   <point x="82" y="638" type="offcurve" name="14" />
   <point x="51" y="614" type="curve" smooth="no" name="13" />
   <point x="68" y="593" type="line" smooth="no" name="13" />
   <point x="95" y="616" type="offcurve" name="14" />
   <point x="111" y="624" type="offcurve" name="14" />
   <point x="133" y="624" type="curve" smooth="yes" name="15" />
   <point x="170" y="624" type="offcurve" name="14" />
   <point x="197" y="593" type="offcurve" name="14" />
   <point x="197" y="550" type="curve" smooth="yes" name="15" />
   <point x="197" y="549" type="line" smooth="no" name="13" />
   <point x="168" y="549" type="line" smooth="yes" name="15" />
   <point x="85" y="549" type="offcurve" name="14" />
   <point x="47" y="525" type="offcurve" name="14" />
   <point x="46" y="473" type="curve" smooth="yes" name="15" />
   <point x="46" y="473" type="offcurve" name="14" />
   <point x="46" y="472" type="offcurve" name="14" />
   <point x="46" y="471" type="curve" smooth="yes" name="15" />
   <point x="46" y="431" type="offcurve" name="14" />
   <point x="77" y="400" type="offcurve" name="14" />
   <point x="117" y="400" type="curve" smooth="yes" name="15" />
   <point x="151" y="400" type="offcurve" name="14" />
   <point x="174" y="414" type="offcurve" name="14" />
   <point x="196" y="448" type="curve" smooth="no" name="13" />
   <point x="201" y="406" type="line" smooth="no" name="13" />
  </contour>
  <contour>
   <point x="194" y="527" type="line" smooth="no" name="13" />
   <point x="194" y="480" type="line" smooth="no" name="13" />
   <point x="178" y="440" type="offcurve" name="14" />
   <point x="159" y="423" type="offcurve" name="14" />
   <point x="127" y="422" type="curve" smooth="yes" name="15" />
   <point x="126" y="422" type="offcurve" name="14" />
   <point x="125" y="422" type="offcurve" name="14" />
   <point x="124" y="422" type="curve" smooth="yes" name="15" />
   <point x="94" y="422" type="offcurve" name="14" />
   <point x="73" y="442" type="offcurve" name="14" />
   <point x="73" y="470" type="curve" smooth="yes" name="15" />
   <point x="73" y="470" type="offcurve" name="14" />
   <point x="73" y="471" type="offcurve" name="14" />
   <point x="73" y="472" type="curve" smooth="yes" name="15" />
   <point x="74" y="508" type="offcurve" name="14" />
   <point x="106" y="527" type="offcurve" name="14" />
   <point x="166" y="527" type="curve" smooth="yes" name="15" />
  </contour>
 </outline>
</glyph>
<glyph name="guillemotleft" format="1">
 <advance width="416" />
 <unicode hex="00ab" />
 <outline>
  <contour>
   <point x="221" y="29" type="curve" smooth="no" name="13" />
   <point x="221" y="54" type="line" smooth="no" name="13" />
   <point x="157" y="90" type="offcurve" name="14" />
   <point x="106" y="158" type="offcurve" name="14" />
   <point x="76" y="226" type="curve" smooth="no" name="13" />
   <point x="106" y="295" type="offcurve" name="14" />
   <point x="157" y="362" type="offcurve" name="14" />
   <point x="221" y="399" type="curve" smooth="no" name="13" />
   <point x="221" y="424" type="line" smooth="no" name="13" />
   <point x="157" y="394" type="offcurve" name="14" />
   <point x="92" y="315" type="offcurve" name="14" />
   <point x="50" y="226" type="curve" smooth="no" name="13" />
   <point x="92" y="138" type="offcurve" name="14" />
   <point x="157" y="59" type="offcurve" name="14" />
  </contour>
  <contour>
   <point x="376" y="29" type="curve" smooth="no" name="13" />
   <point x="376" y="55" type="line" smooth="no" name="13" />
   <point x="312" y="90" type="offcurve" name="14" />
   <point x="262" y="158" type="offcurve" name="14" />
   <point x="232" y="226" type="curve" smooth="no" name="13" />
   <point x="262" y="295" type="offcurve" name="14" />
   <point x="312" y="363" type="offcurve" name="14" />
   <point x="376" y="398" type="curve" smooth="no" name="13" />
   <point x="376" y="424" type="line" smooth="no" name="13" />
   <point x="312" y="394" type="offcurve" name="14" />
   <point x="248" y="315" type="offcurve" name="14" />
   <point x="205" y="226" type="curve" smooth="no" name="13" />
   <point x="248" y="138" type="offcurve" name="14" />
   <point x="312" y="59" type="offcurve" name="14" />
  </contour>
 </outline>
</glyph>
<glyph name="registered" format="1">
 <advance width="413" />
 <unicode hex="00ae" />
 <outline>
  <contour>
   <point x="201" y="473" type="line" smooth="no" name="13" />
   <point x="236" y="410" type="line" smooth="no" name="13" />
   <point x="265" y="410" type="line" smooth="no" name="13" />
   <point x="228" y="476" type="line" smooth="no" name="13" />
   <point x="242" y="482" type="offcurve" name="14" />
   <point x="259" y="491" type="offcurve" name="14" />
   <point x="259" y="520" type="curve" smooth="yes" name="15" />
   <point x="259" y="553" type="offcurve" name="14" />
   <point x="239" y="567" type="offcurve" name="14" />
   <point x="198" y="567" type="curve" smooth="yes" name="15" />
   <point x="156" y="567" type="line" smooth="no" name="13" />
   <point x="156" y="410" type="line" smooth="no" name="13" />
   <point x="180" y="410" type="line" smooth="no" name="13" />
   <point x="180" y="473" type="line" smooth="no" name="13" />
  </contour>
  <contour>
   <point x="180" y="547" type="line" smooth="no" name="13" />
   <point x="204" y="547" type="line" smooth="yes" name="15" />
   <point x="220" y="547" type="offcurve" name="14" />
   <point x="234" y="542" type="offcurve" name="14" />
   <point x="234" y="518" type="curve" smooth="yes" name="15" />
   <point x="234" y="501" type="offcurve" name="14" />
   <point x="220" y="493" type="offcurve" name="14" />
   <point x="204" y="493" type="curve" smooth="yes" name="15" />
   <point x="180" y="493" type="line" smooth="no" name="13" />
  </contour>
  <contour>
   <point x="207" y="322" type="curve" smooth="yes" name="15" />
   <point x="296" y="322" type="offcurve" name="14" />
   <point x="370" y="395" type="offcurve" name="14" />
   <point x="370" y="484" type="curve" smooth="yes" name="15" />
   <point x="370" y="573" type="offcurve" name="14" />
   <point x="296" y="645" type="offcurve" name="14" />
   <point x="207" y="645" type="curve" smooth="yes" name="15" />
   <point x="118" y="645" type="offcurve" name="14" />
   <point x="45" y="573" type="offcurve" name="14" />
   <point x="45" y="484" type="curve" smooth="yes" name="15" />
   <point x="45" y="395" type="offcurve" name="14" />
   <point x="118" y="322" type="offcurve" name="14" />
  </contour>
  <contour>
   <point x="207" y="620" type="curve" smooth="yes" name="15" />
   <point x="283" y="620" type="offcurve" name="14" />
   <point x="342" y="559" type="offcurve" name="14" />
   <point x="342" y="484" type="curve" smooth="yes" name="15" />
   <point x="342" y="409" type="offcurve" name="14" />
   <point x="283" y="347" type="offcurve" name="14" />
   <point x="207" y="347" type="curve" smooth="yes" name="15" />
   <point x="132" y="347" type="offcurve" name="14" />
   <point x="72" y="409" type="offcurve" name="14" />
   <point x="72" y="484" type="curve" smooth="yes" name="15" />
   <point x="72" y="559" type="offcurve" name="14" />
   <point x="132" y="620" type="offcurve" name="14" />
  </contour>
 </outline>
</glyph>
<glyph name="macron" format="1">
 <advance width="200" />
 <unicode hex="00af" />
 <outline>
  <contour>
   <point x="184" y="611" type="line" smooth="no" name="13" />
   <point x="184" y="633" type="line" smooth="no" name="13" />
   <point x="16" y="633" type="line" smooth="no" name="13" />
   <point x="16" y="611" type="line" smooth="no" name="13" />
  </contour>
 </outline>
</glyph>
<glyph name="degree" format="1">
 <advance width="274" />
 <unicode hex="00b0" />
 <outline>
  <contour>
   <point x="25" y="541" type="curve" smooth="yes" name="15" />
   <point x="25" y="484" type="offcurve" name="14" />
   <point x="75" y="428" type="offcurve" name="14" />
   <point x="137" y="428" type="curve" smooth="yes" name="15" />
   <point x="201" y="428" type="offcurve" name="14" />
   <point x="249" y="484" type="offcurve" name="14" />
   <point x="249" y="541" type="curve" smooth="yes" name="15" />
   <point x="249" y="596" type="offcurve" name="14" />
   <point x="198" y="652" type="offcurve" name="14" />
   <point x="137" y="652" type="curve" smooth="yes" name="15" />
   <point x="75" y="652" type="offcurve" name="14" />
   <point x="25" y="596" type="offcurve" name="14" />
  </contour>
  <contour>
   <point x="138" y="630" type="curve" smooth="yes" name="15" />
   <point x="185" y="630" type="offcurve" name="14" />
   <point x="222" y="587" type="offcurve" name="14" />
   <point x="222" y="542" type="curve" smooth="yes" name="15" />
   <point x="222" y="496" type="offcurve" name="14" />
   <point x="186" y="450" type="offcurve" name="14" />
   <point x="138" y="450" type="curve" smooth="yes" name="15" />
   <point x="92" y="450" type="offcurve" name="14" />
   <point x="52" y="493" type="offcurve" name="14" />
   <point x="52" y="541" type="curve" smooth="yes" name="15" />
   <point x="52" y="587" type="offcurve" name="14" />
   <point x="91" y="630" type="offcurve" name="14" />
  </contour>
 </outline>
</glyph>
<glyph name="plusminus" format="1">
 <advance width="489" />
 <unicode hex="00b1" />
 <outline>
  <contour>
   <point x="229" y="271" type="line" smooth="no" name="13" />
   <point x="229" y="109" type="line" smooth="no" name="13" />
   <point x="256" y="109" type="line" smooth="no" name="13" />
   <point x="256" y="271" type="line" smooth="no" name="13" />
   <point x="447" y="271" type="line" smooth="no" name="13" />
   <point x="447" y="293" type="line" smooth="no" name="13" />
   <point x="256" y="293" type="line" smooth="no" name="13" />
   <point x="256" y="454" type="line" smooth="no" name="13" />
   <point x="229" y="454" type="line" smooth="no" name="13" />
   <point x="229" y="293" type="line" smooth="no" name="13" />
   <point x="42" y="293" type="line" smooth="no" name="13" />
   <point x="42" y="271" type="line" smooth="no" name="13" />
  </contour>
  <contour>
   <point x="447" y="0" type="line" smooth="no" name="13" />
   <point x="447" y="22" type="line" smooth="no" name="13" />
   <point x="42" y="22" type="line" smooth="no" name="13" />
   <point x="42" y="0" type="line" smooth="no" name="13" />
  </contour>
 </outline>
</glyph>
<glyph name="twosuperior" format="1">
 <advance width="306" />
 <unicode hex="00b2" />
 <outline>
  <contour>
   <point x="62" y="316" type="line" smooth="no" name="13" />
   <point x="259" y="316" type="line" smooth="no" name="13" />
   <point x="259" y="338" type="line" smooth="no" name="13" />
   <point x="97" y="338" type="line" smooth="no" name="13" />
   <point x="178" y="422" type="line" smooth="yes" name="15" />
   <point x="244" y="489" type="offcurve" name="14" />
   <point x="254" y="506" type="offcurve" name="14" />
   <point x="254" y="545" type="curve" smooth="yes" name="15" />
   <point x="254" y="600" type="offcurve" name="14" />
   <point x="214" y="639" type="offcurve" name="14" />
   <point x="158" y="639" type="curve" smooth="yes" name="15" />
   <point x="157" y="639" type="offcurve" name="14" />
   <point x="156" y="639" type="offcurve" name="14" />
   <point x="155" y="639" type="curve" smooth="yes" name="15" />
   <point x="123" y="638" type="offcurve" name="14" />
   <point x="100" y="628" type="offcurve" name="14" />
   <point x="60" y="600" type="curve" smooth="no" name="13" />
   <point x="70" y="579" type="line" smooth="no" name="13" />
   <point x="108" y="608" type="offcurve" name="14" />
   <point x="126" y="617" type="offcurve" name="14" />
   <point x="156" y="617" type="curve" smooth="yes" name="15" />
   <point x="199" y="617" type="offcurve" name="14" />
   <point x="227" y="590" type="offcurve" name="14" />
   <point x="227" y="550" type="curve" smooth="yes" name="15" />
   <point x="227" y="503" type="offcurve" name="14" />
   <point x="186" y="464" type="offcurve" name="14" />
   <point x="155" y="434" type="curve" smooth="yes" name="15" />
   <point x="62" y="344" type="line" smooth="no" name="13" />
  </contour>
 </outline>
</glyph>
<glyph name="threesuperior" format="1">
 <advance width="321" />
 <unicode hex="00b3" />
 <outline>
  <contour>
   <point x="136" y="481" type="line" smooth="no" name="13" />
   <point x="158" y="481" type="line" smooth="yes" name="15" />
   <point x="217" y="481" type="offcurve" name="14" />
   <point x="245" y="457" type="offcurve" name="14" />
   <point x="245" y="408" type="curve" smooth="yes" name="15" />
   <point x="245" y="408" type="offcurve" name="14" />
   <point x="245" y="407" type="offcurve" name="14" />
   <point x="245" y="407" type="curve" smooth="yes" name="15" />
   <point x="245" y="363" type="offcurve" name="14" />
   <point x="218" y="339" type="offcurve" name="14" />
   <point x="171" y="339" type="curve" smooth="yes" name="15" />
   <point x="137" y="339" type="offcurve" name="14" />
   <point x="109" y="351" type="offcurve" name="14" />
   <point x="82" y="371" type="curve" smooth="no" name="13" />
   <point x="69" y="352" type="line" smooth="no" name="13" />
   <point x="110" y="327" type="offcurve" name="14" />
   <point x="135" y="318" type="offcurve" name="14" />
   <point x="169" y="317" type="curve" smooth="yes" name="15" />
   <point x="170" y="317" type="offcurve" name="14" />
   <point x="172" y="317" type="offcurve" name="14" />
   <point x="173" y="317" type="curve" smooth="yes" name="15" />
   <point x="231" y="317" type="offcurve" name="14" />
   <point x="272" y="356" type="offcurve" name="14" />
   <point x="272" y="412" type="curve" smooth="yes" name="15" />
   <point x="272" y="452" type="offcurve" name="14" />
   <point x="259" y="474" type="offcurve" name="14" />
   <point x="223" y="493" type="curve" smooth="no" name="13" />
   <point x="254" y="511" type="offcurve" name="14" />
   <point x="266" y="529" type="offcurve" name="14" />
   <point x="266" y="560" type="curve" smooth="yes" name="15" />
   <point x="266" y="560" type="offcurve" name="14" />
   <point x="266" y="561" type="offcurve" name="14" />
   <point x="266" y="561" type="curve" smooth="yes" name="15" />
   <point x="265" y="610" type="offcurve" name="14" />
   <point x="228" y="642" type="offcurve" name="14" />
   <point x="171" y="642" type="curve" smooth="yes" name="15" />
   <point x="171" y="642" type="offcurve" name="14" />
   <point x="170" y="642" type="offcurve" name="14" />
   <point x="169" y="642" type="curve" smooth="yes" name="15" />
   <point x="134" y="642" type="offcurve" name="14" />
   <point x="111" y="633" type="offcurve" name="14" />
   <point x="69" y="606" type="curve" smooth="no" name="13" />
   <point x="81" y="588" type="line" smooth="no" name="13" />
   <point x="117" y="613" type="offcurve" name="14" />
   <point x="135" y="620" type="offcurve" name="14" />
   <point x="164" y="620" type="curve" smooth="yes" name="15" />
   <point x="166" y="620" type="offcurve" name="14" />
   <point x="167" y="620" type="offcurve" name="14" />
   <point x="169" y="620" type="curve" smooth="yes" name="15" />
   <point x="213" y="619" type="offcurve" name="14" />
   <point x="239" y="598" type="offcurve" name="14" />
   <point x="239" y="562" type="curve" smooth="yes" name="15" />
   <point x="239" y="515" type="offcurve" name="14" />
   <point x="195" y="503" type="offcurve" name="14" />
   <point x="156" y="503" type="curve" smooth="yes" name="15" />
   <point x="136" y="503" type="line" smooth="no" name="13" />
  </contour>
 </outline>
</glyph>
<glyph name="acute" format="1">
 <advance width="131" />
 <unicode hex="00b4" />
 <outline>
  <contour>
   <point x="42" y="565" type="line" smooth="no" name="13" />
   <point x="112" y="660" type="line" smooth="no" name="13" />
   <point x="68" y="660" type="line" smooth="no" name="13" />
   <point x="21" y="565" type="line" smooth="no" name="13" />
  </contour>
 </outline>
</glyph>
<glyph name="mu" format="1">
 <advance width="513" />
 <unicode hex="00b5" />
 <outline>
  <contour>
   <point x="105" y="-177" type="line" smooth="no" name="13" />
   <point x="105" y="52" type="line" smooth="no" name="13" />
   <point x="132" y="9" type="offcurve" name="14" />
   <point x="173" y="-12" type="offcurve" name="14" />
   <point x="221" y="-12" type="curve" smooth="yes" name="15" />
   <point x="282" y="-12" type="offcurve" name="14" />
   <point x="323" y="12" type="offcurve" name="14" />
   <point x="367" y="76" type="curve" smooth="no" name="13" />
   <point x="370" y="47" type="offcurve" name="14" />
   <point x="381" y="23" type="offcurve" name="14" />
   <point x="398" y="7" type="curve" smooth="yes" name="15" />
   <point x="411" y="-5" type="offcurve" name="14" />
   <point x="428" y="-12" type="offcurve" name="14" />
   <point x="445" y="-12" type="curve" smooth="yes" name="15" />
   <point x="469" y="-12" type="offcurve" name="14" />
   <point x="483" y="-3" type="offcurve" name="14" />
   <point x="493" y="5" type="curve" smooth="no" name="13" />
   <point x="483" y="24" type="line" smooth="no" name="13" />
   <point x="473" y="15" type="offcurve" name="14" />
   <point x="461" y="10" type="offcurve" name="14" />
   <point x="447" y="10" type="curve" smooth="yes" name="15" />
   <point x="410" y="10" type="offcurve" name="14" />
   <point x="390" y="49" type="offcurve" name="14" />
   <point x="390" y="92" type="curve" smooth="yes" name="15" />
   <point x="390" y="454" type="line" smooth="no" name="13" />
   <point x="363" y="454" type="line" smooth="no" name="13" />
   <point x="363" y="115" type="line" smooth="no" name="13" />
   <point x="330" y="47" type="offcurve" name="14" />
   <point x="285" y="10" type="offcurve" name="14" />
   <point x="222" y="10" type="curve" smooth="yes" name="15" />
   <point x="156" y="10" type="offcurve" name="14" />
   <point x="105" y="65" type="offcurve" name="14" />
   <point x="105" y="144" type="curve" smooth="yes" name="15" />
   <point x="105" y="454" type="line" smooth="no" name="13" />
   <point x="78" y="454" type="line" smooth="no" name="13" />
   <point x="78" y="-177" type="line" smooth="no" name="13" />
  </contour>
 </outline>
</glyph>
<glyph name="paragraph" format="1">
 <advance width="380" />
 <unicode hex="00b6" />
 <outline>
  <contour>
   <point x="298" y="0" type="line" smooth="no" name="13" />
   <point x="298" y="633" type="line" smooth="no" name="13" />
   <point x="280" y="633" type="line" smooth="no" name="13" />
   <point x="280" y="0" type="line" smooth="no" name="13" />
  </contour>
  <contour>
   <point x="240" y="0" type="line" smooth="no" name="13" />
   <point x="257" y="0" type="line" smooth="no" name="13" />
   <point x="257" y="633" type="line" smooth="no" name="13" />
   <point x="198" y="633" type="line" smooth="yes" name="15" />
   <point x="124" y="633" type="offcurve" name="14" />
   <point x="46" y="584" type="offcurve" name="14" />
   <point x="46" y="501" type="curve" smooth="yes" name="15" />
   <point x="46" y="429" type="offcurve" name="14" />
   <point x="107" y="376" type="offcurve" name="14" />
   <point x="197" y="376" type="curve" smooth="yes" name="15" />
   <point x="240" y="376" type="line" smooth="no" name="13" />
  </contour>
 </outline>
</glyph>
<glyph name="periodcentered" format="1">
 <advance width="148" />
 <unicode hex="00b7" />
 <outline>
  <contour>
   <point x="76" y="308" type="curve" smooth="yes" name="15" />
   <point x="92" y="308" type="offcurve" name="14" />
   <point x="109" y="325" type="offcurve" name="14" />
   <point x="109" y="342" type="curve" smooth="yes" name="15" />
   <point x="109" y="362" type="offcurve" name="14" />
   <point x="92" y="378" type="offcurve" name="14" />
   <point x="76" y="378" type="curve" smooth="yes" name="15" />
   <point x="56" y="378" type="offcurve" name="14" />
   <point x="39" y="362" type="offcurve" name="14" />
   <point x="39" y="342" type="curve" smooth="yes" name="15" />
   <point x="39" y="325" type="offcurve" name="14" />
   <point x="56" y="308" type="offcurve" name="14" />
  </contour>
 </outline>
</glyph>
<glyph name="cedilla" format="1">
 <advance width="200" />
 <unicode hex="00b8" />
 <outline>
  <contour>
   <point x="83" y="-35" type="curve" smooth="no" name="13" />
   <point x="89" y="10" type="line" smooth="no" name="13" />
   <point x="68" y="14" type="line" smooth="no" name="13" />
   <point x="50" y="-56" type="line" smooth="no" name="13" />
   <point x="67" y="-54" type="offcurve" name="14" />
   <point x="76" y="-53" type="offcurve" name="14" />
   <point x="88" y="-53" type="curve" smooth="yes" name="15" />
   <point x="89" y="-53" type="offcurve" name="14" />
   <point x="89" y="-53" type="offcurve" name="14" />
   <point x="90" y="-53" type="curve" smooth="yes" name="15" />
   <point x="128" y="-53" type="offcurve" name="14" />
   <point x="148" y="-67" type="offcurve" name="14" />
   <point x="148" y="-94" type="curve" smooth="yes" name="15" />
   <point x="148" y="-123" type="offcurve" name="14" />
   <point x="127" y="-138" type="offcurve" name="14" />
   <point x="88" y="-138" type="curve" smooth="yes" name="15" />
   <point x="65" y="-138" type="offcurve" name="14" />
   <point x="50" y="-132" type="offcurve" name="14" />
   <point x="34" y="-120" type="curve" smooth="no" name="13" />
   <point x="25" y="-145" type="line" smooth="no" name="13" />
   <point x="47" y="-156" type="offcurve" name="14" />
   <point x="66" y="-160" type="offcurve" name="14" />
   <point x="87" y="-160" type="curve" smooth="yes" name="15" />
   <point x="141" y="-160" type="offcurve" name="14" />
   <point x="175" y="-131" type="offcurve" name="14" />
   <point x="175" y="-93" type="curve" smooth="yes" name="15" />
   <point x="175" y="-58" type="offcurve" name="14" />
   <point x="147" y="-32" type="offcurve" name="14" />
   <point x="109" y="-32" type="curve" smooth="yes" name="15" />
   <point x="101" y="-32" type="offcurve" name="14" />
   <point x="94" y="-33" type="offcurve" name="14" />
  </contour>
 </outline>
</glyph>
<glyph name="onesuperior" format="1">
 <advance width="204" />
 <unicode hex="00b9" />
 <outline>
  <contour>
   <point x="116" y="633" type="line" smooth="no" name="13" />
   <point x="89" y="633" type="line" smooth="no" name="13" />
   <point x="28" y="587" type="line" smooth="no" name="13" />
   <point x="47" y="568" type="line" smooth="no" name="13" />
   <point x="89" y="599" type="line" smooth="no" name="13" />
   <point x="89" y="318" type="line" smooth="no" name="13" />
   <point x="116" y="318" type="line" smooth="no" name="13" />
  </contour>
 </outline>
</glyph>
<glyph name="ordmasculine" format="1">
 <advance width="286" />
 <unicode hex="00ba" />
 <outline>
  <contour>
   <point x="145" y="400" type="curve" smooth="yes" name="15" />
   <point x="206" y="400" type="offcurve" name="14" />
   <point x="253" y="453" type="offcurve" name="14" />
   <point x="253" y="522" type="curve" smooth="yes" name="15" />
   <point x="253" y="590" type="offcurve" name="14" />
   <point x="213" y="645" type="offcurve" name="14" />
   <point x="145" y="645" type="curve" smooth="yes" name="15" />
   <point x="74" y="645" type="offcurve" name="14" />
   <point x="33" y="590" type="offcurve" name="14" />
   <point x="33" y="522" type="curve" smooth="yes" name="15" />
   <point x="33" y="453" type="offcurve" name="14" />
   <point x="80" y="400" type="offcurve" name="14" />
  </contour>
  <contour>
   <point x="226" y="521" type="curve" smooth="yes" name="15" />
   <point x="226" y="463" type="offcurve" name="14" />
   <point x="194" y="422" type="offcurve" name="14" />
   <point x="147" y="422" type="curve" smooth="yes" name="15" />
   <point x="98" y="422" type="offcurve" name="14" />
   <point x="61" y="465" type="offcurve" name="14" />
   <point x="60" y="522" type="curve" smooth="yes" name="15" />
   <point x="60" y="522" type="offcurve" name="14" />
   <point x="60" y="523" type="offcurve" name="14" />
   <point x="60" y="523" type="curve" smooth="yes" name="15" />
   <point x="60" y="580" type="offcurve" name="14" />
   <point x="97" y="623" type="offcurve" name="14" />
   <point x="145" y="623" type="curve" smooth="yes" name="15" />
   <point x="193" y="623" type="offcurve" name="14" />
   <point x="226" y="582" type="offcurve" name="14" />
   <point x="226" y="522" type="curve" smooth="yes" name="15" />
   <point x="226" y="522" type="offcurve" name="14" />
   <point x="226" y="521" type="offcurve" name="14" />
  </contour>
 </outline>
</glyph>
<glyph name="guillemotright" format="1">
 <advance width="416" />
 <unicode hex="00bb" />
 <outline>
  <contour>
   <point x="40" y="29" type="line" smooth="no" name="13" />
   <point x="104" y="59" type="offcurve" name="14" />
   <point x="168" y="138" type="offcurve" name="14" />
   <point x="211" y="226" type="curve" smooth="no" name="13" />
   <point x="168" y="315" type="offcurve" name="14" />
   <point x="104" y="394" type="offcurve" name="14" />
   <point x="40" y="424" type="curve" smooth="no" name="13" />
   <point x="40" y="398" type="line" smooth="no" name="13" />
   <point x="104" y="363" type="offcurve" name="14" />
   <point x="154" y="295" type="offcurve" name="14" />
   <point x="184" y="226" type="curve" smooth="no" name="13" />
   <point x="154" y="158" type="offcurve" name="14" />
   <point x="104" y="90" type="offcurve" name="14" />
   <point x="40" y="55" type="curve" smooth="no" name="13" />
  </contour>
  <contour>
   <point x="195" y="29" type="line" smooth="no" name="13" />
   <point x="259" y="59" type="offcurve" name="14" />
   <point x="324" y="138" type="offcurve" name="14" />
   <point x="366" y="226" type="curve" smooth="no" name="13" />
   <point x="324" y="315" type="offcurve" name="14" />
   <point x="259" y="394" type="offcurve" name="14" />
   <point x="195" y="424" type="curve" smooth="no" name="13" />
   <point x="195" y="398" type="line" smooth="no" name="13" />
   <point x="259" y="363" type="offcurve" name="14" />
   <point x="310" y="295" type="offcurve" name="14" />
   <point x="340" y="226" type="curve" smooth="no" name="13" />
   <point x="310" y="158" type="offcurve" name="14" />
   <point x="259" y="90" type="offcurve" name="14" />
   <point x="195" y="55" type="curve" smooth="no" name="13" />
  </contour>
 </outline>
</glyph>
<glyph name="onequarter" format="1">
 <advance width="732" />
 <unicode hex="00bc" />
 <outline>
  <contour>
   <point x="431" y="98" type="line" smooth="no" name="13" />
   <point x="431" y="79" type="line" smooth="no" name="13" />
   <point x="605" y="79" type="line" smooth="no" name="13" />
   <point x="605" y="0" type="line" smooth="no" name="13" />
   <point x="632" y="0" type="line" smooth="no" name="13" />
   <point x="632" y="79" type="line" smooth="no" name="13" />
   <point x="695" y="79" type="line" smooth="no" name="13" />
   <point x="695" y="101" type="line" smooth="no" name="13" />
   <point x="631" y="101" type="line" smooth="no" name="13" />
   <point x="631" y="318" type="line" smooth="no" name="13" />
   <point x="608" y="318" type="line" smooth="no" name="13" />
  </contour>
  <contour>
   <point x="469" y="101" type="line" smooth="no" name="13" />
   <point x="604" y="270" type="line" smooth="no" name="13" />
   <point x="604" y="101" type="line" smooth="no" name="13" />
  </contour>
  <contour>
   <point x="536" y="633" type="line" smooth="no" name="13" />
   <point x="506" y="633" type="line" smooth="no" name="13" />
   <point x="122" y="-30" type="line" smooth="no" name="13" />
   <point x="154" y="-30" type="line" smooth="no" name="13" />
  </contour>
  <contour>
   <point x="158" y="633" type="line" smooth="no" name="13" />
   <point x="131" y="633" type="line" smooth="no" name="13" />
   <point x="70" y="587" type="line" smooth="no" name="13" />
   <point x="89" y="568" type="line" smooth="no" name="13" />
   <point x="131" y="599" type="line" smooth="no" name="13" />
   <point x="131" y="318" type="line" smooth="no" name="13" />
   <point x="158" y="318" type="line" smooth="no" name="13" />
  </contour>
 </outline>
</glyph>
<glyph name="onehalf" format="1">
 <advance width="766" />
 <unicode hex="00bd" />
 <outline>
  <contour>
   <point x="538" y="633" type="line" smooth="no" name="13" />
   <point x="508" y="633" type="line" smooth="no" name="13" />
   <point x="123" y="-30" type="line" smooth="no" name="13" />
   <point x="155" y="-30" type="line" smooth="no" name="13" />
  </contour>
  <contour>
   <point x="158" y="633" type="line" smooth="no" name="13" />
   <point x="131" y="633" type="line" smooth="no" name="13" />
   <point x="70" y="587" type="line" smooth="no" name="13" />
   <point x="89" y="568" type="line" smooth="no" name="13" />
   <point x="131" y="599" type="line" smooth="no" name="13" />
   <point x="131" y="318" type="line" smooth="no" name="13" />
   <point x="158" y="318" type="line" smooth="no" name="13" />
  </contour>
  <contour>
   <point x="494" y="3" type="line" smooth="no" name="13" />
   <point x="691" y="3" type="line" smooth="no" name="13" />
   <point x="691" y="25" type="line" smooth="no" name="13" />
   <point x="529" y="25" type="line" smooth="no" name="13" />
   <point x="610" y="109" type="line" smooth="yes" name="15" />
   <point x="675" y="177" type="offcurve" name="14" />
   <point x="686" y="193" type="offcurve" name="14" />
   <point x="686" y="232" type="curve" smooth="yes" name="15" />
   <point x="686" y="288" type="offcurve" name="14" />
   <point x="646" y="326" type="offcurve" name="14" />
   <point x="590" y="326" type="curve" smooth="yes" name="15" />
   <point x="589" y="326" type="offcurve" name="14" />
   <point x="588" y="326" type="offcurve" name="14" />
   <point x="586" y="326" type="curve" smooth="yes" name="15" />
   <point x="555" y="325" type="offcurve" name="14" />
   <point x="532" y="316" type="offcurve" name="14" />
   <point x="492" y="287" type="curve" smooth="no" name="13" />
   <point x="502" y="266" type="line" smooth="no" name="13" />
   <point x="539" y="296" type="offcurve" name="14" />
   <point x="558" y="304" type="offcurve" name="14" />
   <point x="588" y="304" type="curve" smooth="yes" name="15" />
   <point x="631" y="304" type="offcurve" name="14" />
   <point x="659" y="278" type="offcurve" name="14" />
   <point x="659" y="238" type="curve" smooth="yes" name="15" />
   <point x="659" y="237" type="offcurve" name="14" />
   <point x="659" y="235" type="offcurve" name="14" />
   <point x="659" y="234" type="curve" smooth="yes" name="15" />
   <point x="657" y="203" type="offcurve" name="14" />
   <point x="637" y="171" type="offcurve" name="14" />
   <point x="587" y="122" type="curve" smooth="yes" name="15" />
   <point x="494" y="31" type="line" smooth="no" name="13" />
  </contour>
 </outline>
</glyph>
<glyph name="questiondown" format="1">
 <advance width="367" />
 <unicode hex="00bf" />
 <outline>
  <contour>
   <point x="228" y="465" type="curve" smooth="yes" name="15" />
   <point x="211" y="465" type="offcurve" name="14" />
   <point x="198" y="451" type="offcurve" name="14" />
   <point x="198" y="434" type="curve" smooth="yes" name="15" />
   <point x="198" y="418" type="offcurve" name="14" />
   <point x="211" y="404" type="offcurve" name="14" />
   <point x="228" y="404" type="curve" smooth="yes" name="15" />
   <point x="245" y="404" type="offcurve" name="14" />
   <point x="259" y="418" type="offcurve" name="14" />
   <point x="259" y="434" type="curve" smooth="yes" name="15" />
   <point x="259" y="451" type="offcurve" name="14" />
   <point x="245" y="465" type="offcurve" name="14" />
  </contour>
  <contour>
   <point x="212" y="298" type="line" smooth="no" name="13" />
   <point x="212" y="233" type="line" smooth="yes" name="15" />
   <point x="212" y="184" type="offcurve" name="14" />
   <point x="212" y="184" type="offcurve" name="14" />
   <point x="160" y="137" type="curve" smooth="yes" name="15" />
   <point x="148" y="125" type="line" smooth="yes" name="15" />
   <point x="91" y="74" type="offcurve" name="14" />
   <point x="51" y="34" type="offcurve" name="14" />
   <point x="51" y="-47" type="curve" smooth="yes" name="15" />
   <point x="51" y="-135" type="offcurve" name="14" />
   <point x="106" y="-192" type="offcurve" name="14" />
   <point x="191" y="-192" type="curve" smooth="yes" name="15" />
   <point x="236" y="-192" type="offcurve" name="14" />
   <point x="266" y="-181" type="offcurve" name="14" />
   <point x="316" y="-149" type="curve" smooth="no" name="13" />
   <point x="305" y="-131" type="line" smooth="no" name="13" />
   <point x="255" y="-161" type="offcurve" name="14" />
   <point x="231" y="-170" type="offcurve" name="14" />
   <point x="197" y="-170" type="curve" smooth="yes" name="15" />
   <point x="196" y="-170" type="offcurve" name="14" />
   <point x="195" y="-170" type="offcurve" name="14" />
   <point x="193" y="-170" type="curve" smooth="yes" name="15" />
   <point x="122" y="-168" type="offcurve" name="14" />
   <point x="78" y="-122" type="offcurve" name="14" />
   <point x="78" y="-49" type="curve" smooth="yes" name="15" />
   <point x="78" y="-47" type="offcurve" name="14" />
   <point x="78" y="-45" type="offcurve" name="14" />
   <point x="78" y="-43" type="curve" smooth="yes" name="15" />
   <point x="80" y="9" type="offcurve" name="14" />
   <point x="103" y="48" type="offcurve" name="14" />
   <point x="162" y="101" type="curve" smooth="yes" name="15" />
   <point x="170" y="108" type="offcurve" name="14" />
   <point x="180" y="116" type="offcurve" name="14" />
   <point x="187" y="122" type="curve" smooth="yes" name="15" />
   <point x="235" y="162" type="offcurve" name="14" />
   <point x="239" y="171" type="offcurve" name="14" />
   <point x="239" y="229" type="curve" smooth="yes" name="15" />
   <point x="239" y="298" type="line" smooth="no" name="13" />
  </contour>
 </outline>
</glyph>
<glyph name="Agrave" format="1">
 <advance width="528" />
 <unicode hex="00c0" />
 <outline>
  <contour>
   <point x="182" y="818" type="line" smooth="no" name="13" />
   <point x="249" y="728" type="line" smooth="no" name="13" />
   <point x="267" y="728" type="line" smooth="no" name="13" />
   <point x="226" y="818" type="line" smooth="no" name="13" />
  </contour>
  <contour>
   <point x="244" y="633" type="line" smooth="no" name="13" />
   <point x="21" y="0" type="line" smooth="no" name="13" />
   <point x="48" y="0" type="line" smooth="no" name="13" />
   <point x="105" y="161" type="line" smooth="no" name="13" />
   <point x="424" y="161" type="line" smooth="no" name="13" />
   <point x="481" y="0" type="line" smooth="no" name="13" />
   <point x="508" y="0" type="line" smooth="no" name="13" />
   <point x="286" y="633" type="line" smooth="no" name="13" />
  </contour>
  <contour>
   <point x="264" y="615" type="line" smooth="no" name="13" />
   <point x="417" y="183" type="line" smooth="no" name="13" />
   <point x="113" y="183" type="line" smooth="no" name="13" />
  </contour>
 </outline>
</glyph>
<glyph name="Aacute" format="1">
 <advance width="528" />
 <unicode hex="00c1" />
 <outline>
  <contour>
   <point x="339" y="818" type="line" smooth="no" name="13" />
   <point x="296" y="818" type="line" smooth="no" name="13" />
   <point x="254" y="728" type="line" smooth="no" name="13" />
   <point x="272" y="728" type="line" smooth="no" name="13" />
  </contour>
  <contour>
   <point x="244" y="633" type="line" smooth="no" name="13" />
   <point x="21" y="0" type="line" smooth="no" name="13" />
   <point x="48" y="0" type="line" smooth="no" name="13" />
   <point x="105" y="161" type="line" smooth="no" name="13" />
   <point x="424" y="161" type="line" smooth="no" name="13" />
   <point x="481" y="0" type="line" smooth="no" name="13" />
   <point x="508" y="0" type="line" smooth="no" name="13" />
   <point x="286" y="633" type="line" smooth="no" name="13" />
  </contour>
  <contour>
   <point x="264" y="615" type="line" smooth="no" name="13" />
   <point x="417" y="183" type="line" smooth="no" name="13" />
   <point x="113" y="183" type="line" smooth="no" name="13" />
  </contour>
 </outline>
</glyph>
